<svg width="70" height="70" viewBox="0 0 70 70" fill="none" xmlns="http://www.w3.org/2000/svg">
<circle cx="35" cy="35" r="35" fill="#B28970"/>
<g clip-path="url(#clip0_366_4296)">
<path d="M25.378 34.5986C25.378 34.5986 25.4889 30.676 34.2258 28.5023C34.2513 28.496 34.3229 28.4854 34.4223 28.4664C36.4418 28.0714 37.7497 26.8124 38.339 26.2294C38.8496 25.7245 39.5729 24.8902 40.1367 23.6819C40.2384 23.458 41.0056 21.7005 39.9565 20.1267C39.5151 19.4656 38.919 19.0853 38.5377 18.8889C38.4614 18.8445 38.2997 18.7579 38.0894 18.6629C36.1183 17.782 33.6828 18.1136 32.7285 18.7199C32.4812 18.8783 32.3426 18.9417 32.0676 19.0684C31.3235 19.4128 31.0717 19.3768 30.9677 19.3494C30.8013 19.305 30.6349 19.2079 30.4824 19.0283C30.4755 18.9882 30.4663 18.9332 30.4593 18.8657C30.4015 18.3122 30.561 17.8771 30.6211 17.7313C30.8036 17.2835 31.0832 16.9835 31.2542 16.8251C31.3074 16.785 31.3836 16.7279 31.4807 16.6582C32.8417 15.7013 34.2397 15.4288 35.0023 15.2873C36.8878 14.9387 38.5169 15.1648 39.462 15.3654C40.4418 15.5851 42.0038 16.0604 43.5774 17.1567C45.9021 18.7769 46.9003 20.809 47.2816 21.7364C47.3255 21.8166 48.5294 28.1601 44.377 32.2771C44.2591 32.3933 44.1805 32.4482 44.0096 32.6003C41.2736 35.0317 40.0998 37.6954 39.5498 39.7676C39.2771 40.4668 39.3095 40.9865 39.3742 41.316C39.566 42.2856 40.421 43.4242 41.3476 44.6409C41.4908 44.8289 41.544 44.8944 41.5209 44.9768C41.2575 45.9548 31.9798 44.5627 31.9798 44.5627L25.2601 35.3359L25.378 34.5986Z" fill="#9D7CA0" stroke="black" stroke-miterlimit="10"/>
<path d="M10.3258 35.2915C11.2316 33.6164 14.7186 33.6502 16.6203 33.6861C19.6682 33.7452 25.1308 34.3726 32.2317 38.0989C32.4582 38.2066 32.7955 38.3714 33.1953 38.5868C37.2645 40.7647 38.8705 43.2193 40.6521 44.6726C42.2234 45.9548 44.9316 47.2729 49.8812 47.2307C50.0153 47.2032 50.1493 47.1736 50.2833 47.142C51.5427 46.8462 55.1867 45.7647 56.9799 42.2729C57.234 41.9687 59.1612 40.9062 59.7181 42.5771C59.8198 43.0334 60.4783 45.3232 58.1976 47.3131C57.4328 48.3756 56.1873 49.8078 54.274 51.0731C50.727 53.4157 47.0898 53.6882 45.0379 53.8192C40.6151 54.1022 36.5621 53.0334 34.4454 51.7533C34.3391 51.6878 34.0665 51.5188 33.5211 51.1893C30.9054 49.605 29.5975 48.8128 28.9435 48.5741C27.0279 47.8728 25.1539 47.8179 24.2342 47.97C24.1395 47.9848 23.8553 48.0355 23.4416 48.0904C23.4416 48.0904 22.3833 48.2298 21.4174 48.251C19.7537 48.289 13.1588 44.5458 10.5014 37.7292C10.1641 36.8673 9.92375 36.0351 10.3258 35.2915Z" fill="#B47DB7" stroke="black" stroke-miterlimit="10"/>
<path d="M15.8346 45.0063C15.8346 45.0063 17.771 46.6984 19.4163 47.4799C19.4324 47.4968 20.5531 48.0989 21.3781 48.1559C21.4104 48.1517 21.8171 48.2108 24.7518 47.8031C24.7911 47.8031 26.4964 47.6679 28.5091 48.3059C28.5483 48.327 29.2046 48.4728 30.7597 49.398C30.7782 49.4085 33.6181 51.1174 33.6181 51.1174C33.6181 51.1174 34.9098 51.9392 35.4598 52.161C35.4783 52.1779 37.1721 52.9045 38.0062 53.0524C38.0317 53.0651 40.1529 53.6058 41.6179 53.6692C41.6434 53.6692 43.8409 53.8973 46.0777 53.6291C46.0962 53.6291 48.3145 53.5361 50.8817 52.6341C50.9395 52.6278 53.0538 51.899 54.9117 50.4943C54.9232 50.4795 56.5454 49.3473 57.8163 47.632C57.8556 47.5919 59.2582 46.1576 59.4176 45.5408C59.4292 45.5302 59.9306 44.2881 59.7365 43.2425C59.7411 43.2172 59.6094 42.2708 59.3021 42.0807C59.2975 42.1018 59.2466 42.0617 59.2351 42.1166C59.2397 42.1229 58.3362 45.433 57.4258 45.9421C57.4119 45.9717 55.4316 47.237 55.2398 47.9003C55.2398 47.9299 53.6338 50.6063 51.0365 50.8872C50.2671 50.9083 44.1274 52.858 37.4147 50.6063C37.3708 50.5661 31.7372 46.9645 30.5934 45.376C30.5494 45.2957 28.04 42.3785 23.0441 42.9827C23.0233 43.082 20.6825 43.2488 15.8346 45.0063Z" fill="#9A699E"/>
<path d="M19.2939 38.2742C21.4634 38.2742 23.2221 37.6613 23.2221 36.9054C23.2221 36.1494 21.4634 35.5365 19.2939 35.5365C17.1243 35.5365 15.3656 36.1494 15.3656 36.9054C15.3656 37.6613 17.1243 38.2742 19.2939 38.2742Z" fill="#9A699E"/>
<path d="M32.0782 39.6724C32.2892 39.1691 31.1213 38.292 29.4696 37.7132C27.8179 37.1345 26.3078 37.0734 26.0968 37.5767C25.8858 38.08 27.0537 38.9572 28.7054 39.5359C30.3571 40.1146 31.8671 40.1757 32.0782 39.6724Z" fill="#9A699E"/>
<path d="M38.1132 45.0375C38.4115 44.688 37.7292 43.7456 36.5893 42.9326C35.4493 42.1195 34.2834 41.7438 33.9851 42.0933C33.6868 42.4428 34.3691 43.3852 35.509 44.1983C36.649 45.0113 37.8149 45.3871 38.1132 45.0375Z" fill="#9A699E"/>
<path d="M43.4127 48.2265C43.5703 47.8506 42.7551 47.2156 41.592 46.8081C40.4289 46.4005 39.3583 46.3749 39.2007 46.7507C39.0431 47.1265 39.8583 47.7616 41.0214 48.1691C42.1845 48.5766 43.2551 48.6023 43.4127 48.2265Z" fill="#9A699E"/>
<path d="M48.4245 49.3774C49.6631 49.2567 50.637 48.9002 50.5998 48.5812C50.5626 48.2622 49.5284 48.1014 48.2898 48.2221C47.0512 48.3428 46.0773 48.6992 46.1145 49.0183C46.1517 49.3373 47.1859 49.4981 48.4245 49.3774Z" fill="#9A699E"/>
<path d="M54.4157 47.1706C55.1555 46.8277 55.665 46.3868 55.5536 46.186C55.4422 45.9852 54.7521 46.1004 54.0122 46.4434C53.2724 46.7864 52.7629 47.2272 52.8743 47.428C52.9857 47.6289 53.6758 47.5136 54.4157 47.1706Z" fill="#9A699E"/>
<path d="M22.0522 45.5284C23.8343 45.2279 25.2001 44.5937 25.1029 44.1118C25.0057 43.63 23.4822 43.483 21.7001 43.7835C19.918 44.084 18.5521 44.7182 18.6493 45.2001C18.7465 45.6819 20.2701 45.8289 22.0522 45.5284Z" fill="#88548E"/>
<path d="M30.8424 47.0732C31.023 46.7164 30.2435 46.0357 29.1014 45.5528C27.9594 45.0699 26.8872 44.9677 26.7067 45.3245C26.5261 45.6813 27.3056 46.3621 28.4476 46.845C29.5897 47.3279 30.6619 47.4301 30.8424 47.0732Z" fill="#88548E"/>
<path d="M35.0204 50.6107C35.171 50.4108 34.5877 49.8046 33.7175 49.2566C32.8473 48.7086 32.0198 48.4264 31.8692 48.6262C31.7186 48.826 32.302 49.4323 33.1722 49.9803C34.0423 50.5283 34.8698 50.8105 35.0204 50.6107Z" fill="#88548E"/>
<path d="M40.2832 52.7657C40.3632 52.5751 39.7855 52.1954 38.9931 51.9178C38.2006 51.6401 37.4933 51.5696 37.4134 51.7602C37.3335 51.9509 37.9111 52.3305 38.7036 52.6082C39.4961 52.8858 40.2033 52.9564 40.2832 52.7657Z" fill="#88548E"/>
<path d="M45.2381 53.1824C46.0861 53.1504 46.7667 52.9714 46.7581 52.7825C46.7496 52.5937 46.0553 52.4665 45.2073 52.4985C44.3593 52.5305 43.6788 52.7095 43.6873 52.8983C43.6958 53.0871 44.3901 53.2143 45.2381 53.1824Z" fill="#88548E"/>
<path d="M51.248 51.9678C51.888 51.7608 52.3672 51.4905 52.3182 51.364C52.2693 51.2376 51.7108 51.3028 51.0707 51.5098C50.4307 51.7168 49.9515 51.9871 50.0005 52.1136C50.0494 52.2401 50.608 52.1748 51.248 51.9678Z" fill="#88548E"/>
<path d="M19.2938 37.7926C21.106 37.7926 22.5751 37.3954 22.5751 36.9054C22.5751 36.4154 21.106 36.0182 19.2938 36.0182C17.4816 36.0182 16.0126 36.4154 16.0126 36.9054C16.0126 37.3954 17.4816 37.7926 19.2938 37.7926Z" fill="#CA95D1"/>
<path d="M31.2073 39.3686C31.3584 39.07 30.555 38.4365 29.413 37.9536C28.2709 37.4707 27.2226 37.3212 27.0715 37.6198C26.9204 37.9184 27.7238 38.552 28.8658 39.0349C30.0079 39.5177 31.0562 39.6672 31.2073 39.3686Z" fill="#CA95D1"/>
<path d="M37.5173 44.6881C37.6874 44.5018 37.168 43.8489 36.3571 43.2296C35.5462 42.6103 34.7509 42.2592 34.5807 42.4454C34.4105 42.6317 34.9299 43.2846 35.7408 43.9039C36.5518 44.5232 37.3471 44.8743 37.5173 44.6881Z" fill="#CA95D1"/>
<path d="M42.8357 48.0222C42.9157 47.8316 42.338 47.452 41.5455 47.1743C40.7531 46.8966 40.0458 46.8261 39.9659 47.0167C39.886 47.2074 40.4636 47.587 41.2561 47.8647C42.0486 48.1423 42.7558 48.2129 42.8357 48.0222Z" fill="#CA95D1"/>
<path d="M48.3968 49.14C49.2407 49.0578 49.9071 48.8388 49.8852 48.6508C49.8633 48.4629 49.1614 48.3772 48.3175 48.4594C47.4736 48.5417 46.8072 48.7607 46.8291 48.9486C46.851 49.1366 47.5529 49.2222 48.3968 49.14Z" fill="#CA95D1"/>
<path d="M54.3225 47.0275C54.9212 46.75 55.3527 46.428 55.2864 46.3083C55.22 46.1886 54.6808 46.3166 54.0821 46.5942C53.4834 46.8717 53.0519 47.1938 53.1182 47.3134C53.1846 47.4331 53.7238 47.3051 54.3225 47.0275Z" fill="#CA95D1"/>
<path d="M41.4054 16.109C41.4054 16.109 43.2494 16.7934 44.9755 18.4833C45.0033 18.5192 46.2233 19.7402 46.9836 21.335C46.9998 21.3899 47.4226 21.8504 47.3625 24.0558C47.3625 24.0959 47.4665 25.8956 46.6578 28.4009C46.6462 28.4368 45.9761 30.5344 44.2754 32.2243C44.2708 32.2349 42.2881 33.8593 41.1605 35.7605C41.1374 35.79 40.1368 37.3088 39.5869 39.1952C39.5984 39.2205 38.8983 40.9801 39.4228 41.9202C39.4829 41.9899 39.7579 42.82 41.4101 44.9282C41.3985 44.9894 41.4124 44.9768 41.3338 45.0338C41.3269 45.0401 41.3176 45.0338 41.3176 45.0338C41.3176 45.0338 39.8803 43.9311 39.5869 43.5425C39.5799 43.5551 38.0086 41.8652 37.2253 41.2421C37.2207 41.2421 35.5731 39.7993 34.4062 39.1508C34.3946 39.136 31.0024 37.218 29.824 36.8145C29.8101 36.8019 27.6888 35.8281 25.385 35.0972C25.4081 35.0697 25.5306 33.6819 26.2515 32.8918C26.2885 32.8982 30.6165 35.9168 33.5004 36.4385C33.5674 36.4597 36.985 37.0152 39.744 34.1508C39.781 34.1297 42.6486 31.6033 44.3424 30.6168C44.3794 30.5957 46.3088 28.6798 46.1979 26.1449C46.2649 25.9231 46.8149 21.0139 44.0859 18.7009C43.9103 18.7009 41.4008 16.2463 41.4008 16.2463C41.4008 16.2463 41.3338 16.1491 41.4054 16.109Z" fill="#765D7A"/>
<path d="M32.75 18.0974C33.2491 17.9064 33.6097 17.6556 33.5555 17.5372C33.5013 17.4188 33.0527 17.4777 32.5536 17.6688C32.0545 17.8598 31.6939 18.1106 31.7481 18.229C31.8023 18.3474 32.2508 18.2885 32.75 18.0974Z" fill="#765D7A"/>
<path d="M37.3295 17.5669C37.3454 17.4206 36.8035 17.2514 36.119 17.189C35.4345 17.1266 34.8667 17.1945 34.8507 17.3408C34.8347 17.4871 35.3767 17.6563 36.0612 17.7187C36.7457 17.7812 37.3135 17.7132 37.3295 17.5669Z" fill="#765D7A"/>
<path d="M40.8842 18.9776C40.9899 18.7977 40.4677 18.3533 39.7179 17.9851C38.9681 17.6168 38.2745 17.464 38.1688 17.6438C38.0631 17.8237 38.5853 18.268 39.3351 18.6363C40.085 19.0046 40.7785 19.1574 40.8842 18.9776Z" fill="#765D7A"/>
<path d="M42.3146 21.9371C42.5181 21.853 42.4292 21.2721 42.1162 20.6397C41.8031 20.0074 41.3843 19.563 41.1809 19.6471C40.9774 19.7313 41.0663 20.3122 41.3794 20.9446C41.6924 21.5769 42.1112 22.0213 42.3146 21.9371Z" fill="#765D7A"/>
<path d="M41.8072 24.7873C42.1489 24.0315 42.1841 23.3273 41.8856 23.2146C41.5872 23.1018 41.0683 23.6231 40.7266 24.379C40.3848 25.1348 40.3497 25.8389 40.6481 25.9517C40.9465 26.0644 41.4654 25.5431 41.8072 24.7873Z" fill="#765D7A"/>
<path d="M38.3436 29.0156C39.248 28.3817 39.7968 27.648 39.5693 27.3767C39.3418 27.1054 38.4242 27.3994 37.5198 28.0332C36.6154 28.667 36.0666 29.4008 36.2941 29.672C36.5216 29.9433 37.4392 29.6494 38.3436 29.0156Z" fill="#765D7A"/>
<path d="M32.172 32.4087C33.685 31.6101 34.7362 30.6851 34.5199 30.3426C34.3036 30.0001 32.9017 30.3698 31.3887 31.1684C29.8757 31.967 28.8245 32.892 29.0408 33.2345C29.2572 33.577 30.659 33.2072 32.172 32.4087Z" fill="#765D7A"/>
<path d="M34.3454 16.1353C34.7165 16.0279 34.9933 15.8714 34.9636 15.7857C34.934 15.7001 34.6091 15.7177 34.238 15.8251C33.8669 15.9325 33.5901 16.089 33.6197 16.1746C33.6494 16.2603 33.9743 16.2426 34.3454 16.1353Z" fill="#635666"/>
<path d="M36.5828 15.9675C37.0665 15.9675 37.4586 15.8606 37.4586 15.7288C37.4586 15.5969 37.0665 15.4901 36.5828 15.4901C36.0991 15.4901 35.707 15.5969 35.707 15.7288C35.707 15.8606 36.0991 15.9675 36.5828 15.9675Z" fill="#635666"/>
<path d="M40.5132 16.3375C40.5488 16.2097 40.1365 16.0035 39.5923 15.8768C39.0482 15.7501 38.5782 15.7509 38.5426 15.8787C38.507 16.0065 38.9193 16.2127 39.4635 16.3394C40.0076 16.4661 40.4776 16.4652 40.5132 16.3375Z" fill="#635666"/>
<path d="M43.6197 18.4815C43.7481 18.3439 43.3508 17.8415 42.7324 17.3592C42.114 16.8768 41.5087 16.5974 41.3803 16.7349C41.2519 16.8725 41.6491 17.375 42.2675 17.8573C42.8859 18.3396 43.4913 18.6191 43.6197 18.4815Z" fill="#635666"/>
<path d="M46.1497 22.839C46.3833 22.7423 46.2089 21.929 45.7601 21.0224C45.3113 20.1159 44.758 19.4593 44.5243 19.556C44.2906 19.6527 44.465 20.466 44.9139 21.3725C45.3627 22.2791 45.916 22.9357 46.1497 22.839Z" fill="#635666"/>
<path d="M45.8391 28.0587C46.235 26.941 46.2478 25.9437 45.8677 25.8312C45.4877 25.7188 44.8587 26.5337 44.4629 27.6514C44.0671 28.7691 44.0543 29.7663 44.4343 29.8788C44.8144 29.9913 45.4433 29.1764 45.8391 28.0587Z" fill="#635666"/>
<path d="M40.2995 34.7429C41.2569 33.3846 41.7313 32.1058 41.3591 31.8865C40.9868 31.6672 39.9089 32.5905 38.9514 33.9487C37.994 35.307 37.5195 36.5858 37.8918 36.8051C38.264 37.0244 39.342 36.1011 40.2995 34.7429Z" fill="#635666"/>
<path d="M32.7205 18.0331C33.0795 17.8957 33.3398 17.7171 33.3019 17.6343C33.2639 17.5514 32.9421 17.5956 32.5831 17.7331C32.224 17.8705 31.9637 18.0491 32.0017 18.1319C32.0396 18.2148 32.3615 18.1705 32.7205 18.0331Z" fill="#AF98B7"/>
<path d="M36.8244 17.5692C36.8341 17.4799 36.4961 17.3758 36.0694 17.3369C35.6427 17.298 35.2889 17.3389 35.2791 17.4283C35.2694 17.5177 35.6074 17.6217 36.0341 17.6606C36.4608 17.6995 36.8146 17.6586 36.8244 17.5692Z" fill="#AF98B7"/>
<path d="M40.5498 18.905C40.6226 18.7898 40.2004 18.4425 39.6069 18.1293C39.0135 17.816 38.4734 17.6555 38.4006 17.7706C38.3279 17.8858 38.75 18.2331 39.3435 18.5464C39.937 18.8596 40.4771 19.0202 40.5498 18.905Z" fill="#AF98B7"/>
<path d="M42.1885 21.812C42.3211 21.7571 42.2076 21.2664 41.935 20.7158C41.6625 20.1653 41.3341 19.7635 41.2015 19.8183C41.069 19.8731 41.1825 20.3639 41.4551 20.9144C41.7276 21.465 42.056 21.8668 42.1885 21.812Z" fill="#AF98B7"/>
<path d="M41.5616 24.6951C41.8512 24.0547 41.9167 23.4715 41.7079 23.3927C41.4991 23.3138 41.0952 23.769 40.8056 24.4095C40.516 25.0499 40.4505 25.6331 40.6593 25.7119C40.868 25.7908 41.272 25.3356 41.5616 24.6951Z" fill="#AF98B7"/>
<path d="M38.2218 28.7875C38.9061 28.2662 39.3211 27.6902 39.1487 27.5011C38.9763 27.312 38.2819 27.5814 37.5976 28.1027C36.9133 28.624 36.4983 29.1999 36.6707 29.389C36.8431 29.5781 37.5375 29.3088 38.2218 28.7875Z" fill="#AF98B7"/>
<path d="M31.9686 32.0839C33.2099 31.4061 34.0979 30.6756 33.952 30.4522C33.8061 30.2289 32.6815 30.5973 31.4401 31.2751C30.1988 31.9529 29.3108 32.6835 29.4567 32.9068C29.6027 33.1301 30.7273 32.7617 31.9686 32.0839Z" fill="#AF98B7"/>
</g>
<defs>
<clipPath id="clip0_366_4296">
<rect width="50" height="45" fill="white" transform="translate(10 15)"/>
</clipPath>
</defs>
</svg>
