<svg width="70" height="70" viewBox="0 0 70 70" fill="none" xmlns="http://www.w3.org/2000/svg">
<circle cx="35" cy="35" r="35" fill="#B28970"/>
<g clip-path="url(#clip0_366_4299)">
<path d="M9.28692 42.8042C8.94575 43.4365 8.53557 44.0309 8.06354 44.577C7.91238 44.7528 8.05044 45.066 8.30842 44.9887C8.80119 44.8409 9.24006 44.5864 9.67388 44.3204C9.94849 44.1525 9.69555 43.7265 9.42195 43.8955C9.02491 44.1382 8.62736 44.379 8.1764 44.514L8.42179 44.9251C8.92348 44.349 9.36001 43.7216 9.72377 43.0539C9.87492 42.7737 9.44059 42.525 9.28893 42.8052L9.28692 42.8042Z" fill="black"/>
<path d="M61.7254 33.9511C61.6413 34.0329 61.5577 34.1151 61.4735 34.1974C61.4816 34.1073 61.4876 34.0176 61.4912 33.9275C61.5694 33.9347 61.6475 33.9426 61.7254 33.9511Z" fill="black"/>
<path d="M61.4534 33.0544C61.4622 33.0544 61.4707 33.0575 61.4773 33.0631C61.4701 33.0586 61.4619 33.0557 61.4534 33.0544Z" fill="black"/>
<path d="M57.2778 34.935C57.4173 35.2689 57.4672 35.6737 57.309 36.011C57.1417 36.3671 56.7512 36.5345 56.6283 36.927C56.5089 37.3066 56.6232 37.7055 56.5436 38.0881C56.464 38.4708 56.1758 38.7825 55.8428 38.9814C55.0492 39.4561 53.9714 39.399 53.0756 39.4049C52.0593 39.4123 51.043 39.3606 50.0297 39.2788C48.0143 39.1168 46.0084 38.8357 43.9939 38.651C41.9649 38.4648 39.9283 38.3634 37.8911 38.3215C36.7672 38.2982 35.6432 38.2915 34.5193 38.3014C35.0902 37.0589 35.5971 35.7579 36.3866 34.6283C37.1025 33.6084 38.0122 32.7324 39.0662 32.0479C39.0944 32.0297 39.1188 32.0063 39.1377 31.9789C39.1567 31.9515 39.17 31.9207 39.1767 31.8883C39.1834 31.8559 39.1836 31.8225 39.177 31.7901C39.1705 31.7576 39.1575 31.7267 39.1387 31.6992C42.8758 31.0014 46.6658 30.6084 50.4696 30.5243C51.4728 30.5006 52.478 30.4903 53.4812 30.5129C54.2485 30.5297 55.2447 30.6164 55.5757 31.419C55.7269 31.7879 55.6311 32.0528 55.3994 32.3547C55.1595 32.6654 55.2346 33.0007 55.5284 33.2479C55.8075 33.4823 56.1254 33.6911 56.4207 33.9221C56.78 34.1993 57.1024 34.5101 57.2778 34.935ZM55.8957 35.7825C56.0282 36.0416 56.4162 35.8549 56.3562 35.5929C56.3517 35.5723 56.3466 35.5521 56.3421 35.5314C56.2302 35.0463 56.1023 34.5426 55.8886 34.091C55.6684 33.6247 55.1888 33.247 54.8355 32.8762C54.6144 32.6437 54.2586 32.9929 54.4793 33.2248C54.66 33.4139 54.8406 33.6033 55.021 33.7931C55.1872 33.9674 55.3601 34.1309 55.4588 34.3525C55.6056 34.7013 55.7203 35.0622 55.8014 35.4309C55.7895 35.4629 55.7846 35.4969 55.787 35.5309C55.7894 35.5648 55.7992 35.5979 55.8156 35.6279L55.8957 35.7825ZM53.5225 31.3855C53.5812 31.3697 53.6322 31.3336 53.6657 31.2838C53.6993 31.2341 53.7133 31.1742 53.7051 31.1151C53.697 31.0561 53.6671 31.002 53.6212 30.9628C53.5753 30.9236 53.5164 30.902 53.4555 30.902L53.389 30.898C52.2101 30.8295 51.0274 30.8528 49.8523 30.968C49.5329 30.999 49.5294 31.4919 49.8523 31.4604C50.9802 31.35 52.115 31.3241 53.2469 31.3831C53.2764 31.4058 53.3117 31.4202 53.349 31.4248C53.3863 31.4294 53.4241 31.424 53.4585 31.4092L53.5225 31.3855Z" fill="#D1463B"/>
<path d="M61.4533 33.0544C61.4616 33.0556 61.4695 33.0585 61.4765 33.0628C61.4701 33.0574 61.4619 33.0544 61.4533 33.0544C61.3717 33.0362 61.1802 33.0835 61.1163 33.0899C60.6093 33.1407 60.1064 33.2252 59.6112 33.343C59.121 33.4592 58.6463 33.6079 58.1435 33.6641C57.7812 33.7044 57.4078 33.7133 57.0566 33.8118C57.0269 33.7832 56.9967 33.7552 56.9659 33.7281C56.8541 33.6296 56.7372 33.5355 56.6188 33.4444C57.105 33.2474 57.6215 33.2317 58.1435 33.1726C58.7521 33.1032 59.3356 32.8875 59.9357 32.7703C60.234 32.7122 60.5348 32.6659 60.8366 32.6294C61.0956 32.5979 61.4327 32.5108 61.6811 32.6147C61.9406 32.723 61.9562 33.0086 61.9789 33.2494C62.0078 33.5651 62.0078 33.8827 61.9789 34.1984C61.9683 34.3185 61.8705 34.4598 61.7269 34.4446C60.8572 34.3498 59.9815 34.3169 59.1069 34.3461C58.6932 34.3604 58.282 34.3953 57.8694 34.4318C57.7732 34.4406 57.6766 34.4434 57.5801 34.4401C57.4369 34.2117 57.2646 34.0021 57.0672 33.8162C57.1048 33.809 57.1435 33.8098 57.1807 33.8188C57.2178 33.8277 57.2526 33.8445 57.2824 33.8679C57.5162 34.0462 57.9666 33.928 58.2337 33.9054C58.6213 33.8725 59.0096 33.8525 59.3986 33.8453C60.0983 33.8327 60.7982 33.8598 61.4947 33.9265C61.4911 34.0166 61.4851 34.1063 61.477 34.1964C61.5612 34.1141 61.6448 34.0319 61.729 33.9502C61.6507 33.9416 61.5726 33.9337 61.4947 33.9265C61.5026 33.7476 61.5009 33.5685 61.4896 33.3898C61.4856 33.3262 61.4806 33.2632 61.4735 33.2002C61.4664 33.1687 61.4216 33.0579 61.4533 33.0544Z" fill="black"/>
<path d="M57.0637 33.8172C57.261 34.0031 57.4334 34.2127 57.5766 34.4411C57.3392 34.4377 57.1093 34.3591 56.9216 34.2171C56.7366 34.0752 56.8747 33.8536 57.0637 33.8172Z" fill="black"/>
<path d="M61.4533 33.0544C61.4216 33.0579 61.4664 33.1687 61.47 33.2021C61.477 33.2652 61.4821 33.3282 61.4861 33.3917C61.4973 33.5704 61.499 33.7496 61.4911 33.9285C60.7946 33.8618 60.0948 33.8347 59.3951 33.8472C59.0061 33.8545 58.6178 33.8745 58.2301 33.9073C57.9631 33.93 57.5126 34.0481 57.2788 33.8699C57.249 33.8464 57.2143 33.8296 57.1771 33.8207C57.14 33.8118 57.1012 33.8109 57.0637 33.8182L57.0566 33.8118C57.4093 33.7158 57.7812 33.7054 58.1435 33.664C58.6473 33.6079 59.121 33.4592 59.6112 33.343C60.1064 33.2252 60.6093 33.1407 61.1163 33.0899C61.1802 33.0835 61.3717 33.0387 61.4533 33.0544Z" fill="#499149"/>
<path d="M57.0566 33.8108C56.9444 33.8405 56.8353 33.8808 56.7311 33.931C56.6851 33.9543 56.633 33.9632 56.5817 33.9565C56.5304 33.9498 56.4824 33.9278 56.4444 33.8935C56.3265 33.7901 56.2967 33.5936 56.4771 33.506C56.524 33.4833 56.5713 33.4626 56.6187 33.4434C56.7371 33.5345 56.854 33.6276 56.9659 33.7271C56.9966 33.7542 57.0258 33.7822 57.0566 33.8108Z" fill="black"/>
<path d="M56.4444 33.8935C56.4824 33.9278 56.5304 33.9498 56.5817 33.9565C56.633 33.9632 56.6851 33.9543 56.731 33.931C56.8353 33.8808 56.9444 33.8405 57.0566 33.8108L57.0636 33.8172C56.8762 33.8536 56.7366 34.0752 56.9225 34.2171C57.1103 34.3591 57.3401 34.4377 57.5775 34.4411C57.8244 34.84 57.96 35.294 57.8945 35.7781C57.8411 36.172 57.6481 36.4641 57.3614 36.7334C57.1845 36.8989 57.0933 37.0501 57.0757 37.2919C57.0606 37.5031 57.0848 37.7149 57.0717 37.9261C57.0213 38.7441 56.3955 39.3429 55.6412 39.6201C54.7282 39.9559 53.6449 39.9042 52.6855 39.8973C51.6355 39.8895 50.5869 39.823 49.5419 39.7299C47.4428 39.5423 45.3548 39.2508 43.2542 39.0789C41.138 38.9061 39.0218 38.8224 36.9 38.7977C32.6524 38.7485 28.4074 38.9371 24.1654 39.1257C24.131 39.1287 24.0964 39.1237 24.0643 39.1113C24.0322 39.0989 24.0035 39.0794 23.9805 39.0543C24.3711 38.9006 24.7613 38.7457 25.1509 38.5894L25.5006 38.5742C25.5232 38.6028 25.5531 38.625 25.5874 38.6386C25.6217 38.6522 25.659 38.6566 25.6956 38.6515C26.5784 38.5781 27.4591 38.5111 28.3444 38.4545H28.3535C30.0969 38.388 31.8407 38.3339 33.5851 38.3102C33.7327 38.3102 33.8809 38.3151 34.0285 38.3186C34.0521 38.3193 34.0756 38.3168 34.0985 38.3112C34.1938 38.4589 34.4255 38.5116 34.5162 38.3141L34.5223 38.3004C35.6459 38.2918 36.7699 38.2986 37.8941 38.3206C39.9313 38.3624 41.9679 38.4639 43.9969 38.65C46.0124 38.8352 48.0157 39.1158 50.0327 39.2779C51.046 39.3596 52.0623 39.4113 53.0785 39.4039C53.9744 39.398 55.0522 39.4532 55.8458 38.9804C56.1788 38.7834 56.4675 38.4703 56.5466 38.0871C56.6257 37.704 56.5119 37.3056 56.6313 36.926C56.7542 36.532 57.1447 36.3661 57.312 36.01C57.4702 35.6742 57.4203 35.2679 57.2808 34.9341C57.1034 34.5091 56.7809 34.1983 56.4242 33.9191L56.4444 33.8935Z" fill="black"/>
<path d="M56.4212 33.9201C56.1259 33.6892 55.808 33.4804 55.5289 33.246C55.2351 32.9997 55.16 32.6634 55.3999 32.3527C55.6317 32.0528 55.7289 31.7879 55.5762 31.4171C55.2442 30.6144 54.249 30.5277 53.4817 30.511C52.4785 30.4883 51.4733 30.4986 50.4701 30.5223C46.6661 30.6071 42.8759 31.0007 39.1387 31.6992C39.1143 31.6529 39.0735 31.6168 39.024 31.5974C38.9745 31.578 38.9195 31.5768 38.8691 31.5938C38.9966 31.4619 39.118 31.3245 39.2314 31.1812C39.4471 31.1411 39.6629 31.1022 39.8789 31.0645C43.9898 30.3527 48.1574 30 52.3324 30.0106C53.2353 30.0106 54.247 29.9279 55.0915 30.2953C55.7556 30.5838 56.2716 31.2841 56.138 32.0188C56.1076 32.1856 56.0387 32.3434 55.9365 32.4802C55.8921 32.5398 55.7611 32.6412 55.7541 32.7131C55.7435 32.818 55.8821 32.8988 55.9556 32.954C56.1733 33.1219 56.3985 33.279 56.6167 33.4464C56.5693 33.4656 56.522 33.4863 56.4751 33.5089C56.2947 33.5966 56.324 33.7931 56.4424 33.8965L56.4212 33.9201Z" fill="black"/>
<path d="M56.2534 35.3787L56.3325 35.5338L55.8725 35.7239C55.8503 35.6254 55.8276 35.527 55.804 35.4285C55.871 35.2546 56.1441 35.165 56.2534 35.3787Z" fill="#F7B2B2"/>
<path d="M56.2535 35.3787C56.1441 35.165 55.871 35.2536 55.804 35.4309C55.7228 35.0622 55.6082 34.7013 55.4614 34.3525C55.3606 34.1309 55.1898 33.9674 55.0235 33.7931C54.8432 33.6033 54.6626 33.4139 54.4819 33.2248C54.2612 32.9929 54.6169 32.6437 54.8381 32.8761C55.1908 33.247 55.671 33.6247 55.8912 34.091C56.1043 34.5426 56.2323 35.0463 56.3447 35.5314L56.3331 35.5338L56.2535 35.3787Z" fill="#F7B2B2"/>
<path d="M56.3582 35.5929C56.4182 35.8549 56.0302 36.0415 55.8977 35.7825L55.8181 35.6274C55.8017 35.5974 55.792 35.5643 55.7895 35.5304C55.7871 35.4964 55.792 35.4624 55.804 35.4304C55.8277 35.5289 55.8504 35.6274 55.8725 35.7259L56.3326 35.5358L56.3441 35.5333C56.3487 35.5501 56.3537 35.5723 56.3582 35.5929Z" fill="#F7B2B2"/>
<path d="M53.4575 30.902C53.5185 30.902 53.5774 30.9236 53.6233 30.9628C53.6692 31.002 53.699 31.0561 53.7072 31.1151C53.7154 31.1742 53.7014 31.2341 53.6678 31.2838C53.6342 31.3336 53.5833 31.3697 53.5245 31.3855L53.4605 31.4092C53.4261 31.424 53.3883 31.4294 53.351 31.4248C53.3137 31.4202 53.2784 31.4058 53.2489 31.3831C53.3184 31.386 53.388 31.39 53.4575 31.3944C53.4353 31.2334 53.4127 31.0723 53.3905 30.9108V30.898L53.4575 30.902Z" fill="#F7B2B2"/>
<path d="M53.3905 30.9108C53.4127 31.0723 53.4354 31.2334 53.4575 31.3944C53.388 31.39 53.3185 31.386 53.2489 31.3831C53.1164 31.2787 53.1109 31.0123 53.3265 30.934L53.3905 30.9108Z" fill="#F7B2B2"/>
<path d="M53.3266 30.934C53.1109 31.0123 53.1164 31.2787 53.249 31.3831C52.1171 31.3241 50.9823 31.35 49.8544 31.4604C49.5315 31.4919 49.535 30.999 49.8544 30.9679C51.0295 30.8528 52.2122 30.8295 53.3911 30.898V30.9108L53.3266 30.934Z" fill="#F7B2B2"/>
<path d="M40.7042 21.7953L41.0141 21.9671C40.9345 21.9809 40.8554 21.9957 40.7763 22.012C40.7511 21.9396 40.7279 21.8677 40.7042 21.7953Z" fill="black"/>
<path d="M40.8821 22.3301C40.942 22.3025 41.0025 22.2754 41.063 22.2488C41.0243 22.3414 40.9857 22.434 40.9471 22.5266C40.9254 22.4611 40.9022 22.3956 40.8821 22.3301Z" fill="black"/>
<path d="M39.1387 31.6992C39.1575 31.7267 39.1705 31.7576 39.177 31.7901C39.1836 31.8225 39.1835 31.8559 39.1767 31.8883C39.17 31.9207 39.1567 31.9515 39.1377 31.9789C39.1188 32.0063 39.0944 32.0297 39.0662 32.0479C38.0122 32.7324 37.1025 33.6084 36.3866 34.6283C35.5971 35.7579 35.0902 37.0589 34.5193 38.3014C34.3863 38.3014 34.2533 38.3014 34.1202 38.3048C34.3011 38.2408 34.3167 37.9768 34.1671 37.8714C34.7274 36.6354 35.2439 35.3556 36.0455 34.2476C36.202 34.0309 36.3668 33.821 36.5398 33.6178C36.8451 33.4457 37.1506 33.274 37.4563 33.1027C37.6256 33.0076 37.6009 32.8156 37.4931 32.7122C37.912 32.4378 38.3061 32.1289 38.6711 31.7889C38.8288 31.7583 38.9876 31.7283 39.1387 31.6992Z" fill="#822727"/>
<path d="M39.1387 31.6992C38.983 31.7283 38.8268 31.7583 38.6711 31.7889C38.7383 31.7255 38.8043 31.6598 38.8692 31.5919C38.9198 31.575 38.975 31.5765 39.0245 31.5963C39.074 31.616 39.1146 31.6526 39.1387 31.6992Z" fill="#822727"/>
<path d="M38.5236 31.8184C38.6193 31.7514 38.716 31.6864 38.8138 31.6214C38.8317 31.6097 38.851 31.6001 38.8712 31.5929C38.8067 31.6585 38.7407 31.7242 38.6732 31.7898L38.5236 31.8184Z" fill="#822727"/>
<path d="M38.5235 31.8184L38.6747 31.7889C38.3097 32.1289 37.9156 32.4378 37.4966 32.7122C37.483 32.6988 37.4678 32.687 37.4513 32.6772C37.7892 32.3685 38.1474 32.0816 38.5235 31.8184Z" fill="#822727"/>
<path d="M38.4752 31.8277C38.4375 31.8351 38.3987 31.8343 38.3614 31.8254C38.3241 31.8165 38.2892 31.7997 38.2593 31.7763C38.2293 31.7528 38.2049 31.7232 38.1879 31.6896C38.1709 31.6559 38.1616 31.619 38.1608 31.5815C38.2505 31.5017 38.3376 31.42 38.4223 31.3353C38.691 31.2815 38.9614 31.2296 39.2335 31.1797C39.1201 31.323 38.9987 31.4604 38.8712 31.5924C38.851 31.5996 38.8317 31.6092 38.8138 31.6209C38.716 31.6849 38.6193 31.7499 38.5236 31.8179L38.4752 31.8277Z" fill="black"/>
<path d="M38.4222 31.3368C38.3376 31.4215 38.2504 31.5032 38.1607 31.583C38.1544 31.5292 38.1696 31.4751 38.2033 31.4321C38.2369 31.3892 38.2863 31.3606 38.3411 31.3525L38.4222 31.3368Z" fill="black"/>
<path d="M36.9243 32.4916C37.3616 32.2229 37.7752 31.919 38.1608 31.583C38.1616 31.6205 38.1709 31.6574 38.1879 31.691C38.2049 31.7247 38.2293 31.7543 38.2593 31.7777C38.2892 31.8012 38.3241 31.818 38.3614 31.8269C38.3987 31.8358 38.4375 31.8366 38.4752 31.8292L38.5256 31.8199C38.1489 32.083 37.7902 32.3699 37.4518 32.6787C37.415 32.656 37.3724 32.644 37.3289 32.644C37.2854 32.644 37.2428 32.656 37.2059 32.6787C35.4424 33.669 33.6819 34.6647 31.9154 35.6481C31.8317 35.6944 31.7478 35.74 31.6635 35.785C30.735 36.2193 29.8005 36.64 28.86 37.0471C28.0251 37.3751 27.1796 37.6819 26.3406 38.0024C26.2825 38.0235 26.2342 38.0645 26.2046 38.1177C26.0358 38.131 25.8665 38.1448 25.6977 38.159C25.6608 38.1624 25.6249 38.1733 25.5925 38.1909C25.56 38.2085 25.5317 38.2325 25.5092 38.2614C25.4868 38.2903 25.4707 38.3234 25.4621 38.3587C25.4534 38.394 25.4523 38.4306 25.4589 38.4663L25.153 38.5894L24.1675 38.6333C23.9266 38.6441 23.8652 38.9199 23.9826 39.0543C22.3324 39.7023 20.6742 40.3297 19.0135 40.9502C15.8029 42.1507 12.5906 43.3469 9.37659 44.5386L9.59527 44.4332C9.84015 44.3145 9.69604 43.9939 9.47283 43.9806L10.348 43.6547C13.4438 42.5024 16.5392 41.3491 19.6342 40.1948C22.6433 39.0656 25.6433 37.9089 28.5904 36.631C30.0499 35.9984 31.4943 35.3328 32.9236 34.6342C34.274 33.9654 35.6465 33.2918 36.9243 32.4916Z" fill="black"/>
<path d="M37.7849 23.5449C37.8222 23.5243 37.8533 23.4946 37.8753 23.4587C37.8973 23.4228 37.9094 23.3819 37.9103 23.3401C37.9244 23.3278 37.939 23.3164 37.9536 23.3051C38.0131 23.2559 38.0731 23.213 38.1345 23.1682C38.2578 23.0792 38.3843 22.9941 38.5139 22.9126C38.7608 22.758 39.0177 22.619 39.2828 22.4965C39.7593 22.2779 40.2606 22.1153 40.7763 22.012C40.8111 22.1178 40.8463 22.2242 40.8821 22.3301C39.9083 22.7698 38.9643 23.2699 38.0559 23.8276C38.0244 23.8467 37.9973 23.872 37.9763 23.9019C37.9168 23.7802 37.8495 23.6623 37.7748 23.5489L37.7849 23.5449Z" fill="#499149"/>
<path d="M37.9763 23.9019C38.0378 24.0265 38.091 24.1548 38.1355 24.286C37.9798 24.2521 37.879 24.0447 37.9763 23.9019Z" fill="black"/>
<path d="M37.4291 23.0993C37.3913 23.1481 37.3663 23.2053 37.3561 23.2657C37.3415 23.3726 37.3652 23.4883 37.472 23.5439C37.5175 23.5706 37.5694 23.5851 37.6225 23.586C37.6755 23.5869 37.7279 23.5741 37.7743 23.5489C37.849 23.6623 37.9163 23.7802 37.9758 23.9019C37.8791 24.0448 37.9758 24.2521 38.1351 24.286C38.1396 24.3003 38.1446 24.3146 38.1492 24.3289C38.2595 24.6706 38.26 25.0301 38.3547 25.3748C38.4555 25.7328 38.7256 25.9421 39.0098 26.1627C39.2556 26.3481 39.4721 26.568 39.6522 26.8152C40.3495 27.8035 40.2876 29.1543 39.819 30.219C39.6658 30.562 39.4687 30.8847 39.2325 31.1792C38.9614 31.2294 38.691 31.2813 38.4212 31.3348C38.906 30.8532 39.299 30.2943 39.504 29.6384C39.6744 29.0932 39.7278 28.5013 39.6008 27.9419C39.4647 27.3431 39.1377 26.8906 38.6535 26.5109C38.4016 26.3139 38.1421 26.1125 37.994 25.8254C37.8363 25.5211 37.8156 25.1907 37.7597 24.8602C37.6518 24.2201 37.3163 23.6602 36.8467 23.2081C35.8389 22.237 34.4165 21.9125 33.0637 21.6668C33.1524 21.5584 33.1594 21.3945 32.9951 21.3221C32.9078 21.2833 32.8206 21.2484 32.7336 21.2172C32.7631 21.1883 32.7994 21.167 32.8393 21.1553C32.8792 21.1435 32.9215 21.1416 32.9624 21.1497C33.3504 21.2191 33.7383 21.2905 34.1213 21.3787C35.3598 21.6633 36.5912 22.1558 37.4291 23.0993Z" fill="black"/>
<path d="M37.857 23.3834C37.8746 23.3686 37.8922 23.3539 37.9104 23.3401C37.9094 23.3819 37.8974 23.4228 37.8754 23.4587C37.8534 23.4946 37.8222 23.5243 37.7849 23.5449L37.7753 23.5489C37.7609 23.5262 37.7458 23.5036 37.73 23.4809C37.6569 23.3745 37.5788 23.2736 37.4972 23.1766L37.5224 23.1333H37.7325L37.8413 23.3957L37.8257 23.4085L37.8418 23.3967L37.857 23.3834Z" fill="black"/>
<path d="M37.7279 23.119L37.7566 23.1338H37.7342L37.7279 23.119Z" fill="black"/>
<path d="M37.5314 23.1195L37.5231 23.1338H37.4996L37.5314 23.1195Z" fill="black"/>
<path d="M37.4952 32.7122C37.603 32.8156 37.6277 33.0076 37.4584 33.1027C37.1524 33.274 36.8469 33.4457 36.5419 33.6178C36.7585 33.3627 36.9873 33.1186 37.2281 32.8855C37.3175 32.829 37.4065 32.7713 37.4952 32.7122Z" fill="#822727"/>
<path d="M37.8413 23.3957L37.7325 23.1333H37.7541L37.7264 23.119L37.7325 23.1333H37.5223L37.5304 23.1195L37.4997 23.1333H37.5223L37.4972 23.1766C37.4851 23.1618 37.4725 23.147 37.4589 23.1328C37.5853 23.0156 37.8771 23.0756 37.9068 23.3086L37.9098 23.3322C37.9101 23.3348 37.9101 23.3375 37.9098 23.3401C37.8917 23.3539 37.874 23.3686 37.8564 23.3834L37.8413 23.3957Z" fill="black"/>
<path d="M37.4588 23.1328C37.4495 23.1211 37.4396 23.1099 37.4291 23.0993C37.5717 22.9023 37.8826 22.7383 38.0503 22.6241C38.3257 22.4372 38.6147 22.2703 38.915 22.1247C39.5356 21.8231 40.1974 21.6101 40.88 21.4924C40.9444 21.477 41.0123 21.4862 41.0699 21.5182C41.1275 21.5501 41.1705 21.6024 41.1899 21.6643C41.2709 21.9079 41.3518 22.1518 41.4328 22.3961C41.4645 22.4911 41.4136 22.6315 41.3169 22.6738C40.2796 23.1335 39.2751 23.6609 38.3103 24.2526C38.285 24.2694 38.2565 24.2811 38.2264 24.2868C38.1964 24.2926 38.1654 24.2923 38.1355 24.2861C38.091 24.1548 38.0378 24.0265 37.9763 23.9019C37.9973 23.8721 38.0244 23.8467 38.0559 23.8276C38.9643 23.27 39.9082 22.7698 40.8821 22.3301C40.9032 22.3956 40.9254 22.4611 40.9471 22.5271C40.9853 22.4345 41.024 22.3419 41.0629 22.2493C41.0025 22.2759 40.942 22.303 40.8821 22.3306C40.8463 22.2247 40.811 22.1183 40.7762 22.0125C40.8553 21.9962 40.9345 21.9814 41.0141 21.9676L40.7042 21.7958C40.7279 21.8682 40.7546 21.9401 40.7762 22.0125C40.2606 22.1158 39.7593 22.2784 39.2828 22.497C39.0176 22.6195 38.7608 22.7585 38.5139 22.9131C38.3842 22.9945 38.2578 23.0797 38.1345 23.1687C38.073 23.2135 38.0131 23.2588 37.9536 23.3056C37.939 23.3169 37.9244 23.3283 37.9103 23.3406C37.9105 23.3379 37.9105 23.3353 37.9103 23.3327L37.9072 23.309C37.879 23.0756 37.5853 23.0156 37.4588 23.1328Z" fill="black"/>
<path d="M37.4497 32.6772C37.4662 32.687 37.4815 32.6988 37.4951 32.7122C37.4064 32.7713 37.3174 32.829 37.228 32.8855C37.3013 32.8152 37.3752 32.7458 37.4497 32.6772Z" fill="#822727"/>
<path d="M37.403 23.3086C37.3969 23.277 37.3989 23.2445 37.4086 23.2139C37.4184 23.1832 37.4356 23.1554 37.4589 23.1328C37.4725 23.147 37.4851 23.1618 37.4972 23.1766C37.4665 23.2283 37.4362 23.2805 37.406 23.3322L37.403 23.3086Z" fill="black"/>
<path d="M37.4059 23.3322C37.4362 23.2829 37.4664 23.2283 37.4971 23.1766C37.5788 23.2751 37.6569 23.3736 37.7299 23.4809C37.7454 23.5036 37.7605 23.5262 37.7753 23.5489C37.7289 23.5741 37.6765 23.5869 37.6234 23.586C37.5704 23.5851 37.5185 23.5706 37.4729 23.5439C37.3661 23.4883 37.3425 23.3726 37.3571 23.2657C37.3672 23.2053 37.3923 23.1481 37.4301 23.0993C37.4406 23.1099 37.4505 23.1211 37.4599 23.1328C37.4366 23.1554 37.4193 23.1832 37.4096 23.2139C37.3998 23.2445 37.3979 23.277 37.4039 23.3085L37.4059 23.3322Z" fill="black"/>
<path d="M36.9721 33.0446C37.0577 32.9953 37.1439 32.9397 37.2295 32.8855C36.9894 33.1183 36.7606 33.3624 36.5433 33.6178C35.0584 34.4549 33.575 35.2921 32.0841 36.1184C30.7 36.8856 29.2181 37.448 27.7332 38.0034C27.2707 38.0363 26.808 38.0706 26.3451 38.1063C26.9769 37.8473 27.6068 37.5847 28.2346 37.3184C28.4432 37.2295 28.6513 37.1399 28.8589 37.0496C29.8162 36.6743 30.7564 36.2705 31.6619 35.786C32.0263 35.6156 32.3894 35.4426 32.7512 35.2669C34.1771 34.5716 35.6142 33.864 36.9721 33.0446Z" fill="#822727"/>
<path d="M36.5801 24.71L36.1594 24.9499C36.116 24.8164 36.0742 24.677 36.0273 24.5382C36.1236 24.4032 36.3483 24.3565 36.4471 24.5436C36.4793 24.6074 36.5246 24.664 36.5801 24.71Z" fill="#F7B2B2"/>
<path d="M35.8369 23.247C36.2621 23.6217 36.4415 24.1792 36.6073 24.7017L36.5806 24.71C36.5251 24.664 36.4798 24.6074 36.4475 24.5436C36.3468 24.3565 36.1241 24.4032 36.0278 24.5382C35.9099 24.1871 35.7618 23.8394 35.4811 23.5952C35.1108 23.2731 34.616 23.1342 34.1519 22.9963C33.8416 22.9048 33.9746 22.4295 34.286 22.5216C34.8367 22.6846 35.4005 22.8629 35.8369 23.247Z" fill="#F7B2B2"/>
<path d="M36.2244 25.0582C36.1369 24.9835 36.0649 24.893 36.0123 24.7918C35.99 24.7525 35.9795 24.7077 35.9822 24.6628C35.9849 24.6179 36.0006 24.5747 36.0274 24.5382C36.0743 24.677 36.1161 24.8164 36.1594 24.9499L36.5802 24.71L36.6069 24.7017L36.6446 24.8189C36.7263 25.0675 36.4018 25.2113 36.2244 25.0582Z" fill="#F7B2B2"/>
<path d="M36.5418 33.6178C36.3691 33.821 36.2044 34.0309 36.0475 34.2476C35.2459 35.3556 34.7294 36.6354 34.1691 37.8714C34.1277 37.8427 34.0783 37.8272 34.0275 37.8271C31.9234 37.7779 29.8268 37.8606 27.7292 38.0034C29.2141 37.4494 30.696 36.8856 32.0801 36.1184C33.5736 35.2926 35.0574 34.4539 36.5418 33.6178Z" fill="#822727"/>
<path d="M34.5213 38.3014L34.5152 38.3151C34.4245 38.5121 34.1928 38.458 34.0975 38.3122C34.106 38.3107 34.1143 38.3082 34.1222 38.3048C34.2552 38.3033 34.3883 38.3018 34.5213 38.3014Z" fill="#822727"/>
<path d="M34.1691 37.8714C34.3203 37.9768 34.3031 38.2408 34.1223 38.3048H34.093C34.0708 38.2692 34.058 38.2287 34.0557 38.187C34.0534 38.1453 34.0617 38.1037 34.0799 38.066L34.1691 37.8714Z" fill="#822727"/>
<path d="M34.093 38.3078H34.1232C34.1151 38.3113 34.1065 38.3139 34.0977 38.3154L34.093 38.3078Z" fill="#822727"/>
<path d="M34.093 38.3078L34.0975 38.3146C34.0747 38.3202 34.0511 38.3227 34.0275 38.322C33.8799 38.3186 33.7317 38.3161 33.5841 38.3137C33.7539 38.3078 33.9232 38.3078 34.093 38.3078Z" fill="#822727"/>
<path d="M28.3525 38.4555C30.0939 38.3471 31.8367 38.2856 33.5841 38.3112C31.8398 38.3348 30.0959 38.389 28.3525 38.4555Z" fill="#D1463B"/>
<path d="M32.9961 21.3235C33.1604 21.3964 33.1533 21.5604 33.0646 21.6682L32.8293 21.6259C32.6061 21.586 32.6056 21.3418 32.7346 21.2181C32.822 21.2497 32.9091 21.2848 32.9961 21.3235Z" fill="black"/>
<path d="M31.9124 35.6486C33.6799 34.6637 35.4394 33.6695 37.2029 32.6792C37.2397 32.6565 37.2824 32.6445 37.3259 32.6445C37.3694 32.6445 37.412 32.6565 37.4488 32.6792C37.3742 32.7478 37.3003 32.8172 37.2271 32.8875C37.1415 32.9416 37.0553 32.9948 36.9696 33.0465C35.6132 33.8659 34.1762 34.5731 32.7488 35.2664C32.387 35.4424 32.0239 35.6154 31.6594 35.7855C31.7444 35.7395 31.8287 35.6939 31.9124 35.6486Z" fill="#822727"/>
<path d="M31.7944 22.0198C32.1154 22.1134 31.9718 22.5364 31.6604 22.4945C31.7054 22.3366 31.7501 22.1784 31.7944 22.0198Z" fill="#F7B2B2"/>
<path d="M31.7944 22.0198C31.7494 22.1781 31.7047 22.3363 31.6604 22.4945C31.5994 22.4768 31.5379 22.4586 31.4759 22.4424C31.3082 22.3168 31.4477 21.9731 31.7198 22.01L31.7944 22.0198Z" fill="#F7B2B2"/>
<path d="M31.7198 22.008C31.4477 21.9711 31.3081 22.3148 31.4759 22.4404C31.2008 22.367 30.9192 22.3266 30.6697 22.5C30.4042 22.6827 30.1523 22.2538 30.4153 22.0745C30.835 21.7854 31.3384 21.8844 31.7964 22.0179L31.7198 22.008Z" fill="#F7B2B2"/>
<path d="M31.6604 22.4945L31.5858 22.4847C31.546 22.4803 31.5081 22.4657 31.476 22.4424C31.5379 22.4586 31.5994 22.4768 31.6604 22.4945Z" fill="#F7B2B2"/>
<path d="M28.86 37.0471C29.8005 36.6394 30.7349 36.2182 31.663 35.7835C30.755 36.2681 29.8128 36.6719 28.86 37.0471Z" fill="#D1463B"/>
<path d="M28.86 37.0471C28.6524 37.1371 28.4443 37.2267 28.2357 37.316C27.6079 37.5842 26.978 37.8468 26.3462 38.1039L26.2041 38.1152C26.2337 38.062 26.282 38.0211 26.3401 38C27.1771 37.6819 28.0225 37.3751 28.86 37.0471Z" fill="#822727"/>
<path d="M26.3829 38.5357C27.0366 38.5082 27.6901 38.4816 28.3434 38.456C27.4602 38.5111 26.5799 38.5781 25.6946 38.653C25.658 38.6581 25.6207 38.6537 25.5864 38.6401C25.5522 38.6265 25.5222 38.6043 25.4996 38.5756L25.6558 38.5688L26.3829 38.5357Z" fill="#822727"/>
<path d="M27.7318 38.0034C27.311 38.161 26.8903 38.3171 26.4721 38.4771C26.4433 38.4886 26.4125 38.4948 26.3814 38.4954C26.2237 38.4954 26.138 38.3201 26.1799 38.1738L26.3446 38.1063C26.8065 38.0696 27.2689 38.0353 27.7318 38.0034Z" fill="#822727"/>
<path d="M26.4717 38.4771C26.8904 38.3171 27.3111 38.161 27.7313 38.0034C29.8264 37.8606 31.923 37.7784 34.0296 37.8271C34.0804 37.8272 34.1298 37.8427 34.1712 37.8714L34.082 38.0684C34.0638 38.1062 34.0555 38.1478 34.0578 38.1895C34.06 38.2311 34.0729 38.2716 34.0951 38.3073C33.9253 38.3073 33.756 38.3107 33.5862 38.3132C31.8388 38.2876 30.096 38.3491 28.3546 38.4575H28.3455C27.6922 38.4824 27.0387 38.509 26.385 38.5372V38.4969C26.4149 38.4954 26.4442 38.4887 26.4717 38.4771Z" fill="#822727"/>
<path d="M26.2015 38.1177L26.3436 38.1063L26.1788 38.1738C26.1838 38.1542 26.1915 38.1353 26.2015 38.1177Z" fill="#822727"/>
<path d="M26.1789 38.1738C26.1376 38.3215 26.2233 38.4954 26.3805 38.4954V38.5357L25.6534 38.5673L25.4972 38.5742C25.4736 38.5424 25.4585 38.5053 25.4534 38.4663C25.6966 38.3698 25.9384 38.2723 26.1789 38.1738Z" fill="#822727"/>
<path d="M26.2015 38.1177C26.1915 38.1353 26.1838 38.1542 26.1788 38.1738C25.938 38.2723 25.697 38.3698 25.4558 38.4663C25.4492 38.4306 25.4503 38.394 25.459 38.3587C25.4676 38.3234 25.4837 38.2903 25.5061 38.2614C25.5286 38.2325 25.5569 38.2085 25.5894 38.1909C25.6218 38.1733 25.6577 38.1624 25.6946 38.159C25.8634 38.1448 26.0327 38.131 26.2015 38.1177Z" fill="#822727"/>
<path d="M25.4997 38.5742L25.15 38.5894L25.4559 38.4663C25.461 38.5053 25.4761 38.5424 25.4997 38.5742Z" fill="#D1463B"/>
<path d="M24.1644 38.6333L25.1499 38.5894C24.7606 38.746 24.3705 38.901 23.9795 39.0543C23.8616 38.9199 23.922 38.6441 24.1644 38.6333Z" fill="black"/>
<path d="M9.4693 43.9787C9.69403 43.992 9.83662 44.3126 9.59174 44.4312L9.37306 44.5366C9.30823 44.3866 9.24357 44.2366 9.17908 44.0865L9.4693 43.9787Z" fill="black"/>
<path d="M9.12663 44.1072L9.33725 44.0058C9.37792 43.9852 9.42356 43.9758 9.46926 43.9787L9.17904 44.0865C9.24353 44.2369 9.30819 44.3869 9.37302 44.5366L9.31206 44.5593C9.0435 44.6578 8.86563 44.2313 9.11806 44.1092L9.12663 44.1072Z" fill="black"/>
<path d="M26.7296 24.0374C28.2659 22.664 30.4985 20.7498 32.7417 21.7485C32.7967 21.7736 32.8589 21.7794 32.9177 21.7648C32.9766 21.7503 33.0285 21.7164 33.0647 21.6687C34.4175 21.915 35.8389 22.239 36.8477 23.2101C37.3173 23.6621 37.6539 24.2215 37.7607 24.8622C37.8166 25.1926 37.8373 25.5231 37.995 25.8274C38.1431 26.1145 38.4031 26.3164 38.6545 26.5129C39.1387 26.8925 39.4657 27.3451 39.6018 27.9439C39.7288 28.5033 39.6754 29.0952 39.505 29.6403C39.3 30.2963 38.907 30.8552 38.4222 31.3368L38.3411 31.3525C38.2864 31.3606 38.2369 31.3892 38.2033 31.4321C38.1696 31.4751 38.1544 31.5292 38.1607 31.583C37.7752 31.919 37.3616 32.2229 36.9243 32.4916C35.6465 33.2918 34.2739 33.9654 32.9196 34.6322C31.4933 35.3341 30.0489 35.9997 28.5863 36.629C25.6392 37.9094 22.6407 39.0637 19.6302 40.1928C16.5375 41.3533 13.4421 42.5066 10.344 43.6527L9.46877 43.9787C9.42306 43.9758 9.37742 43.9852 9.33676 44.0058L9.12614 44.1072L9.10901 44.0737C9.18559 44.029 9.24344 43.9592 9.27226 43.8768C9.28611 43.8343 9.28611 43.7887 9.27226 43.7463C9.33575 43.6857 9.41989 43.5877 9.4345 43.5709L9.72574 43.2326L10.276 42.5925C10.6539 42.1535 11.0316 41.7144 11.4091 41.2752C12.1431 40.4216 12.8769 39.5681 13.6105 38.7145L18.0445 33.5587C19.4825 31.8844 20.9105 30.2066 22.3641 28.5481C23.7432 26.9782 25.1651 25.4359 26.7296 24.0374ZM36.2244 25.0582C36.4018 25.2113 36.7283 25.0676 36.6451 24.8189L36.6073 24.7017C36.4395 24.1792 36.2622 23.6217 35.8369 23.247C35.4006 22.8629 34.8368 22.6846 34.2855 22.5216C33.9741 22.4295 33.8411 22.9048 34.1515 22.9964C34.6156 23.1342 35.1088 23.2731 35.4807 23.5952C35.7613 23.8414 35.9095 24.1861 36.0274 24.5382C36.0005 24.5747 35.9849 24.6179 35.9822 24.6628C35.9795 24.7077 35.9899 24.7525 36.0123 24.7918C36.0649 24.893 36.1369 24.9835 36.2244 25.0582ZM31.6604 22.4945C31.9718 22.5364 32.1139 22.1134 31.7944 22.0198C31.3364 21.8864 30.8331 21.7874 30.4133 22.0765C30.1503 22.2577 30.4023 22.6846 30.6678 22.5019C30.9197 22.3286 31.2009 22.369 31.474 22.4424C31.5061 22.4657 31.544 22.4803 31.5838 22.4847L31.6604 22.4945Z" fill="#D1463B"/>
<path d="M9.03889 43.6345L9.02429 43.6202L9.05765 43.6294L9.03889 43.6345Z" fill="black"/>
<path d="M9.15892 43.5995C9.18723 43.6154 9.21201 43.6367 9.23182 43.662C9.25163 43.6874 9.26608 43.7164 9.27431 43.7472C9.23702 43.7832 9.20679 43.8063 9.20225 43.7921C9.14784 43.7394 9.09443 43.6867 9.04052 43.634L9.05865 43.6291L9.02641 43.6202L9.04052 43.634L8.81378 43.6926C8.80521 43.7108 8.79715 43.729 8.78909 43.7467C8.82738 43.8398 8.86618 43.9324 8.90447 44.025L8.8818 44.0137C8.83205 43.9925 8.79238 43.9537 8.77077 43.9051C8.74917 43.8565 8.74725 43.8016 8.7654 43.7517C8.77553 43.715 8.79385 43.681 8.81904 43.6521C8.84422 43.6232 8.87565 43.6 8.91106 43.5844C8.94647 43.5688 8.98498 43.561 9.02383 43.5617C9.06268 43.5623 9.1009 43.5714 9.13575 43.5882L9.15892 43.5995Z" fill="black"/>
<path d="M32.7396 21.7485C30.4964 20.7498 28.2638 22.6639 26.7276 24.0374C25.1656 25.4359 23.7412 26.9782 22.3631 28.5506C20.9094 30.2091 19.4815 31.8893 18.0435 33.5611L13.6095 38.717C12.8759 39.5705 12.1421 40.4241 11.4081 41.2777C11.0309 41.7169 10.6531 42.156 10.2749 42.5949L9.72469 43.2351L9.43346 43.5734C9.41885 43.5901 9.33269 43.6881 9.27122 43.7487C9.26298 43.7178 9.24854 43.6889 9.22873 43.6635C9.20892 43.6381 9.18414 43.6169 9.15583 43.601L9.13265 43.5897C9.09781 43.5728 9.05959 43.5638 9.02074 43.5631C8.98189 43.5625 8.94338 43.5703 8.90796 43.5859C8.87255 43.6015 8.84113 43.6246 8.81594 43.6536C8.79076 43.6825 8.77245 43.7165 8.76232 43.7531L8.7074 43.733C8.74758 43.6293 8.80703 43.5338 8.88274 43.4513C9.33118 42.9204 9.78969 42.3975 10.2432 41.8706L12.964 38.7091C16.1061 35.0562 19.2069 31.3639 22.4039 27.7563C23.911 26.0559 25.4835 24.3998 27.241 22.9432C28.748 21.6948 30.7297 20.4972 32.7331 21.2196C32.6041 21.3432 32.6046 21.5875 32.8278 21.6274L33.0631 21.6697C33.0268 21.7173 32.9747 21.7511 32.9157 21.7655C32.8568 21.7798 32.7946 21.7738 32.7396 21.7485Z" fill="black"/>
<path d="M8.76335 43.7517C8.7452 43.8016 8.74711 43.8564 8.76872 43.9051C8.79032 43.9537 8.83 43.9925 8.87974 44.0136L8.90242 44.025C8.86413 43.9324 8.82533 43.8398 8.78703 43.7467C8.79509 43.729 8.80316 43.7108 8.81172 43.6926L9.03846 43.634C9.09237 43.6867 9.14578 43.7394 9.2002 43.7921C9.20473 43.8063 9.23497 43.7832 9.27225 43.7472C9.28611 43.7897 9.28611 43.8353 9.27225 43.8777C9.24343 43.9602 9.18558 44.03 9.109 44.0747C9.05753 44.1064 8.99636 44.1195 8.93603 44.1119C8.8757 44.1043 8.81998 44.0763 8.77846 44.0328C8.73767 43.9952 8.70921 43.9466 8.69665 43.8931C8.6841 43.8396 8.68802 43.7837 8.70793 43.7325L8.76335 43.7517Z" fill="black"/>
</g>
<defs>
<clipPath id="clip0_366_4299">
<rect width="54" height="24" fill="white" transform="translate(8 21)"/>
</clipPath>
</defs>
</svg>
