<svg width="70" height="70" viewBox="0 0 70 70" fill="none" xmlns="http://www.w3.org/2000/svg">
<circle cx="35" cy="35" r="35" fill="#FFDEB2"/>
<g clip-path="url(#clip0_338_11985)">
<path d="M43.9223 30.4797C43.9223 30.4797 42.7184 34.4598 40.7766 37.6278C40.7281 37.485 39.7669 32.9338 28.6698 40.5191C28.6601 40.6619 30.2038 35.6199 33.0485 32.9338C33.1359 32.9606 37.7961 29.7212 43.9223 30.4797Z" fill="#D4F4FC" stroke="black" stroke-miterlimit="10"/>
<path d="M28.7864 40.5817C28.7864 40.5817 39.6894 32.7911 40.8738 38.1544C40.9806 38.431 40.4369 57.546 40.0583 57.8315C39.9903 58.0011 32.6602 61.9187 29.5729 59.5628C29.534 59.2861 28.3204 53.8872 28.7864 40.5817Z" fill="#DAE9ED" stroke="black" stroke-miterlimit="10"/>
<path d="M43.3884 50.8173C43.3884 50.8173 40.4952 57.885 40.1748 58.117C40.2039 57.9296 41.1845 39.0556 40.8835 38.0651C40.8835 38.0651 43.1942 33.7994 44.1068 30.917C44.2136 30.8903 44.301 46.4714 43.3884 50.8173Z" fill="#A3DBE8" stroke="black" stroke-miterlimit="10"/>
<path d="M32.835 39.5286C34.1262 38.895 35.4175 38.2703 36.7087 37.6367C35.0291 45.106 33.3495 52.5664 31.6602 60.0357L30.5631 57.6441L32.835 39.5286Z" fill="white"/>
<path d="M38.0874 37.3155L38.6893 37.1013L33.534 60.0357L33.0874 59.8929L38.0874 37.3155Z" fill="white"/>
<path d="M28.6603 38.8861L27.4272 37.4583C27.4272 37.4583 29.2039 35.3166 31.4661 33.6567C31.5826 33.6746 31.8641 34.6116 31.8641 34.6116C31.8641 34.6116 29.4564 37.021 28.6603 38.8861Z" fill="#A3DBE8" stroke="black" stroke-miterlimit="10"/>
<path d="M15.5825 42.8751C15.5825 42.8751 16.2136 51.7543 20.2136 56.716C20.4078 56.6625 26.9612 52.9501 28.4078 51.4777C28.3981 51.4063 27.6116 45.2756 28.1359 39.7249L28.5437 38.9575L27.3107 37.5297C27.3107 37.5297 16.8544 41.7328 15.5825 42.8751Z" fill="#DAE9ED" stroke="black" stroke-miterlimit="10"/>
<path d="M20.0097 37.012C21.8737 36.1732 23.4368 35.6199 24.5436 35.2629C27.8155 34.2189 31.3689 33.5317 31.398 33.6745C31.398 33.6923 31.3689 33.7102 31.3495 33.7191C30 34.9863 27.3106 37.5207 27.3106 37.5207C27.3106 37.5207 16.8349 41.6881 15.5825 42.8661C15.5533 42.875 15.5242 42.8839 15.5048 42.8572C15.3786 42.7144 16.2718 41.4829 16.5922 41.0545C17.2135 40.1889 18.2718 38.8414 20.0097 37.012Z" fill="#D4F4FC" stroke="black" stroke-miterlimit="10"/>
<path d="M16.6796 42.7591L20.4174 41.0367L27.4951 47.3549L27.8058 50.6924L27.9223 51.1386L26.0776 52.5485L16.6796 42.7591Z" fill="white"/>
<path d="M16.2039 43.0535L16.5728 42.8304L25.8835 52.7449L25.4174 53.1018L16.2039 43.0535Z" fill="white"/>
<path d="M21.1845 37.021L23.1262 36.2714L20.3398 39.8141L18.5049 40.6976L21.1845 37.021Z" fill="white"/>
<path d="M23.4466 36.191L24.1845 35.9412L20.7767 39.7249L20.6505 39.8052L23.4466 36.191Z" fill="white"/>
<path d="M22.4854 33.5496C22.4078 32.9874 22.3107 32.2913 22.165 31.4971C21.9417 30.2477 21.7767 29.6677 21.0485 29.1055C20.7573 28.8824 20.4563 28.7128 20.233 28.6147C20.1553 28.6058 24.8447 27.4456 28.0485 27.0173C30.6796 26.6693 34.5437 26.3034 39.4757 26.3391C39.5922 26.3748 38.4466 31.4079 37.2136 31.8719C37.1553 31.9968 37.1553 31.9968 37.1553 31.9968C37.1553 31.9968 32.7573 32.3984 31.6408 33.2729C31.6116 33.1659 31.4951 32.7732 30.9806 32.6483C30.9417 32.6393 30.8932 32.6304 30.8447 32.6215C28.0583 32.9338 25.2718 33.2462 22.4854 33.5496Z" fill="#DAE9ED" stroke="black" stroke-miterlimit="10"/>
<path d="M31.4078 23.6708C31.4078 23.6708 40.7282 23.2871 43.5437 24.9826C43.4563 25.0719 39.4757 26.339 39.4757 26.339C39.4757 26.339 29.2815 26.0446 20.3398 28.5789C20.2524 28.5968 20.2039 28.6057 20.1942 28.5968C20.0777 28.5075 23.8155 26.8656 31.4078 23.6708Z" fill="#D4F4FC" stroke="black" stroke-miterlimit="10"/>
<path d="M40.7379 31.5774C40.7379 31.5774 42.2136 26.4908 43.5437 24.9826C43.5631 24.9469 43.5534 24.9291 43.534 24.9202C43.534 24.9202 43.3786 24.822 39.5631 26.3123C39.5631 26.3123 38.5728 31.5684 37.4563 31.9522C40.7573 31.4792 40.7573 31.4792 40.7573 31.4792L40.7379 31.5774Z" fill="#A3DBE8" stroke="black" stroke-miterlimit="10"/>
<path d="M23.5437 28.5076C23.5437 28.5076 27.2816 27.5528 27.9903 27.6152C28.068 27.6688 31.1942 30.2924 31.1942 30.2924L29.1942 30.7654L23.5437 28.5076Z" fill="white"/>
<path d="M23.9806 29.5071L28.7379 31.2829L28.2039 31.7648L23.8641 30.3013L23.9806 29.5071Z" fill="white"/>
<path d="M32.8349 24.1349H34.301L29.5146 26.3123L27.8738 26.58L32.8349 24.1349Z" fill="white"/>
<path d="M34.4661 24.5811L35.1554 25.2147L30.7767 26.1785L34.3884 24.5365L34.4661 24.5811Z" fill="white"/>
<path d="M40.0292 30.1674C40.0292 30.1674 38.5535 24.4204 38.602 22.6267C38.7088 22.4393 40.4078 18.0042 50.7671 16.2819C50.9612 16.6834 53.5049 26.7674 53.0098 38.7968C52.9321 39.127 47.602 43.8924 44.2913 43.2677C44.4078 43.0089 44.7088 31.0866 44.1166 30.5422C43.8933 30.5511 42.2331 29.8283 40.0292 30.1674Z" fill="#DAE9ED" stroke="black" stroke-miterlimit="10"/>
<path d="M54.4563 9.75857C54.7476 11.3559 55.0097 13.0158 55.2525 14.7292C56 20.0389 56.369 25.0095 56.5146 29.5607C56.4952 29.8016 54.0097 38.3864 53.0195 38.7969C53.1165 38.4756 53.301 26.4552 50.7767 16.2819C51.602 14.9166 52.2136 13.7386 52.6214 12.9176C53.5243 11.0882 54.2428 9.33023 54.4369 9.44624C54.4661 9.48193 54.4661 9.63364 54.4563 9.75857Z" fill="#A3DBE8" stroke="black" stroke-miterlimit="10"/>
<path d="M45.2621 13.23C45.2621 13.23 38.6019 21.9129 38.6019 22.4216C39.5534 21.2258 41.5534 17.799 50.767 16.2819C50.8155 16.1748 54.3786 9.70502 54.3786 9.70502C54.4369 9.65148 54.5048 9.58901 54.4951 9.54439C54.4369 9.30345 52.0291 10.1155 50.8544 10.5528C49.4563 11.0615 47.534 11.8914 45.2621 13.23Z" fill="#D4F4FC" stroke="black" stroke-miterlimit="10"/>
<path d="M42.6213 19.8961L51.1456 22.6625C51.1456 22.6625 51.631 25.4646 51.5436 26.7229C51.5436 26.7764 41.8446 20.4672 41.8446 20.4672C41.8446 20.4672 42.2718 20.03 42.6213 19.8961Z" fill="white"/>
<path d="M42.8641 19.6284L50.9127 21.9843C50.9127 21.9843 50.8253 19.8961 50.3204 19.4142C49.8156 18.9234 42.8641 19.6284 42.8641 19.6284Z" fill="white"/>
</g>
<defs>
<clipPath id="clip0_338_11985">
<rect width="42" height="51.7674" fill="white" transform="translate(15 9)"/>
</clipPath>
</defs>
</svg>
