<svg width="70" height="70" viewBox="0 0 70 70" fill="none" xmlns="http://www.w3.org/2000/svg">
<circle cx="35" cy="35" r="35" fill="#FFDEB2"/>
<g clip-path="url(#clip0_365_13087)">
<path d="M42.7637 50.8925C53.7997 50.8925 62.7461 42.2419 62.7461 31.5709C62.7461 20.8999 53.7997 12.2493 42.7637 12.2493C31.7278 12.2493 22.7814 20.8999 22.7814 31.5709C22.7814 42.2419 31.7278 50.8925 42.7637 50.8925Z" fill="#FFF929" stroke="black" stroke-miterlimit="10"/>
<path d="M42.6791 48.7284C52.5714 48.7284 60.5906 40.9864 60.5906 31.4362C60.5906 21.886 52.5714 14.144 42.6791 14.144C32.7869 14.144 24.7677 21.886 24.7677 31.4362C24.7677 40.9864 32.7869 48.7284 42.6791 48.7284Z" fill="#F4EEA8"/>
<path d="M31.5281 20.0328C32.1055 19.2151 32.912 18.2926 34.0172 17.4948C36.8597 15.4505 39.9312 15.4904 41.4296 15.635C41.4993 15.635 41.6238 15.6499 41.7582 15.7297C41.7582 15.7297 41.9125 15.8195 42.0519 16.0089C42.2461 16.2682 42.4452 17.0162 42.5199 17.9984C42.5796 19.2101 42.6792 20.2223 42.7638 20.9503C42.6543 24.306 42.5448 27.6667 42.4352 31.0224L42.4253 31.0125C42.3307 31.0424 42.2361 31.0673 42.1365 31.0972L41.9772 31.167C39.6674 29.2872 37.7807 27.8462 36.4963 26.8789C33.6289 24.7248 31.5978 23.1891 31.309 20.9104C31.2841 20.7159 31.309 20.5414 31.309 20.5414C31.3489 20.312 31.4484 20.1425 31.5281 20.0328Z" fill="#FF9566"/>
<path d="M48.2646 17.6095C49.2901 17.7242 50.5197 17.9835 51.7693 18.5519C54.9852 20.0179 56.3542 22.6406 56.9067 23.9819C56.9366 24.0417 56.9814 24.1514 56.9714 24.306C56.9714 24.306 56.9615 24.4755 56.847 24.685C56.6927 24.9692 56.0903 25.4778 55.2092 25.9913C54.104 26.5997 53.208 27.1481 52.5707 27.552C49.3897 28.998 46.2087 30.449 43.0326 31.895L43.0376 31.8801C42.9679 31.8102 42.8982 31.7454 42.8285 31.6756L42.6891 31.5709C43.3811 28.7537 43.859 26.49 44.1726 24.9592C44.8645 21.5436 45.3624 19.1153 47.3536 17.8289C47.5229 17.7192 47.6971 17.6644 47.6971 17.6644C47.9211 17.5846 48.1252 17.5896 48.2646 17.6095Z" fill="#FF9566"/>
<path d="M58.2011 29.1925C58.6541 30.08 59.0872 31.2069 59.2565 32.5133C59.6945 35.884 58.1165 38.402 57.2353 39.5638C57.2005 39.6236 57.1258 39.7134 56.9864 39.7882C56.9864 39.7882 56.8271 39.8729 56.5882 39.8929C56.2546 39.9228 55.478 39.7134 54.5471 39.2796C53.4171 38.7211 52.4463 38.2973 51.7444 38.0031C48.7525 36.233 45.7557 34.4579 42.7638 32.6878L42.7787 32.6828C42.8036 32.5881 42.8235 32.4983 42.8484 32.4036L42.8634 32.2341C45.7258 31.2667 47.9809 30.434 49.4993 29.8556C52.8894 28.5642 55.2988 27.6567 57.5141 28.5642C57.7033 28.639 57.8476 28.7487 57.8476 28.7487C58.0418 28.9033 58.1463 29.0678 58.2011 29.1925Z" fill="#FF9566"/>
<path d="M53.5017 42.8397C52.979 43.6774 52.2372 44.6348 51.1968 45.4924C48.5086 47.7063 45.457 47.9157 43.9585 47.8957C43.8888 47.9007 43.7644 47.8957 43.625 47.8309C43.625 47.8309 43.4657 47.7561 43.3164 47.5866C43.1073 47.3523 42.8633 46.6442 42.7289 45.7068C42.5945 44.54 42.4302 43.5727 42.3008 42.8796C42.1963 39.6286 42.0917 36.3776 41.9872 33.1316L41.9971 33.1366C42.0917 33.1017 42.1813 33.0668 42.2759 33.0318L42.4302 32.9471C44.8397 34.5726 46.806 35.8092 48.1402 36.6369C51.1221 38.4818 53.2378 39.7932 53.661 41.9721C53.6958 42.1566 53.6809 42.3261 53.6809 42.3261C53.666 42.5605 53.5813 42.73 53.5017 42.8397Z" fill="#FF9566"/>
<path d="M39.8615 46.9783C38.8559 47.0481 37.6163 47.0132 36.2822 46.6991C32.8473 45.8813 30.866 43.6724 29.9948 42.5206C29.95 42.4708 29.8803 42.376 29.8504 42.2314C29.8504 42.2314 29.8156 42.0719 29.8703 41.8575C29.945 41.5683 30.388 40.9899 31.0949 40.3616C31.986 39.6087 32.7029 38.9455 33.2007 38.4569C35.8541 36.5671 38.5025 34.6773 41.1558 32.7875V32.8025C41.2405 32.8524 41.3251 32.9072 41.4047 32.9571L41.564 33.0319C41.6337 35.7743 41.7582 37.9632 41.8577 39.4391C42.0818 42.74 42.2311 45.0835 40.668 46.6193C40.5336 46.7489 40.3842 46.8337 40.3842 46.8337C40.1901 46.9484 40.0009 46.9783 39.8615 46.9783Z" fill="#FF9566"/>
<path d="M27.416 37.0058C26.9182 36.1083 26.4204 34.9565 26.1466 33.5753C25.4447 30.0251 26.6842 27.1481 27.3961 25.8018C27.426 25.737 27.4857 25.6273 27.6052 25.5326C27.6052 25.5326 27.7446 25.4278 27.9636 25.373C28.2673 25.3032 29.009 25.4378 29.9051 25.7868C31.0003 26.2506 31.9362 26.5896 32.6082 26.824C35.5304 28.3697 38.4576 29.9104 41.3798 31.4562L41.3698 31.4612C41.3549 31.5609 41.3449 31.6656 41.33 31.7653V31.9498C38.7712 33.316 36.7551 34.4728 35.401 35.2656C32.3792 37.0407 30.2287 38.2923 28.108 37.5842C27.9288 37.5244 27.7844 37.4247 27.7844 37.4247C27.5853 37.295 27.4758 37.1305 27.416 37.0058Z" fill="#FF9566"/>
<path d="M7.15991 36.3327C7.15493 36.3128 7.14497 36.2829 7.15493 36.253C7.44864 35.5349 17.0416 40.9749 27.8093 41.5982C36.7203 42.1167 45.9149 39.2995 46.0095 39.8031C46.0095 39.8131 46.0095 39.8231 46.0095 39.8281C45.9896 39.9079 45.9548 40.0275 45.9149 40.1721C45.1632 42.7899 43.2217 49.5711 38.5174 53.5152C33.4396 57.7685 26.8237 57.205 24.7776 57.1751C16.2152 57.0405 9.08646 52.4731 6.93091 45.9811C5.60672 41.9871 6.50279 38.2823 7.15991 36.3327Z" fill="#FFF929" stroke="black" stroke-miterlimit="10"/>
<path d="M8.94702 36.976C10.0422 37.4197 11.5456 38.0031 13.3477 38.6264C15.0851 39.2297 16.708 39.7932 18.7839 40.3317C20.7104 40.8303 24.1802 41.7079 28.7502 41.8375C30.1739 41.8774 31.2094 41.8325 32.3842 41.7727C35.1919 41.6381 39.1346 41.289 43.9385 40.3217C43.6548 41.8624 42.9578 44.5201 41.0462 47.2376C39.513 49.4166 37.8602 50.708 37.213 51.1767C32.3643 54.692 26.7987 54.4726 25.1211 54.3828C23.8367 54.313 19.9637 53.9889 15.8816 51.6205C13.4274 50.1994 10.1916 48.3146 8.85741 44.4353C7.75226 41.2242 8.51392 38.2823 8.94702 36.976Z" fill="#F4EEA8"/>
<path d="M29.5269 41.8524C30.6967 42.7948 33.4148 44.7145 37.2978 45.0187C39.0302 45.1583 40.5137 44.9339 41.6138 44.6647C41.9026 44.4303 42.3556 44.0065 42.6593 43.3483C43.1172 42.361 43.0077 41.3189 42.7588 40.6109C42.7439 40.571 42.7339 40.5411 42.724 40.5211C42.495 40.561 42.1565 40.6208 41.7383 40.6906C41.1359 40.7954 40.7277 40.8652 40.5883 40.8901C40.5883 40.8901 39.5628 41.0696 38.2436 41.2591C34.2014 41.8325 30.0396 41.8475 30.0396 41.8475C29.8255 41.8524 29.6463 41.8524 29.5269 41.8524Z" fill="#FF9566"/>
<path d="M28.1827 41.8375C28.1827 41.8375 33.5044 46.9035 36.5062 48.0603C36.6755 48.18 37.1683 48.7085 36.3768 49.8454C36.2473 50.0698 34.6095 52.7274 30.5672 52.7673C30.5224 52.7274 29.5865 52.8471 29.4372 51.2066C29.4372 51.1468 27.9487 41.8375 27.9487 41.8375H28.1827Z" fill="#FF9566"/>
<path d="M25.8728 41.7278L27.1522 41.8375L28.8747 51.2465C28.8747 51.2465 29.0439 52.9318 28.4466 53.3955C28.2574 53.4753 21.8903 54.4725 20.0783 51.8747C19.5257 50.4537 20.2674 49.5212 20.2674 49.5212L25.8728 41.7278Z" fill="#FF9566"/>
<path d="M25.0913 41.653C23.11 44.0763 21.1237 46.5046 19.1424 48.9279C19.1424 48.9279 17.42 50.6531 15.4187 49.5163C15.2694 49.3318 11.5009 46.8985 11.8195 43.8719C11.8594 43.7073 11.9788 43.2835 12.3771 42.9295C12.6907 42.6453 13.0292 42.5356 13.2035 42.4957C16.8823 42.1616 20.5612 41.8275 24.24 41.4935C24.5238 41.5433 24.8076 41.5982 25.0913 41.653Z" fill="#FF9566"/>
<path d="M21.7459 41.0297C18.311 41.2641 14.8761 41.4935 11.4411 41.7278C11.247 41.663 10.5301 41.4087 10.1518 40.7056C9.73361 39.9278 9.91282 38.9156 10.6048 38.1726C10.7541 37.9582 10.8786 37.8784 10.9632 37.8485C10.9881 37.8386 11.1474 37.7887 11.1474 37.7887C12.4168 38.2973 13.7709 38.7959 15.2046 39.2646C17.5195 40.0225 19.7148 40.5959 21.7459 41.0297Z" fill="#FF9566"/>
</g>
<defs>
<clipPath id="clip0_365_13087">
<rect width="57" height="45.4643" fill="white" transform="translate(6 12)"/>
</clipPath>
</defs>
</svg>
