<svg width="70" height="70" viewBox="0 0 70 70" fill="none" xmlns="http://www.w3.org/2000/svg">
<circle cx="35" cy="35" r="35" fill="#FFDEB2"/>
<g clip-path="url(#clip0_338_10420)">
<path d="M33.7902 32.3942C38.2316 32.1085 41.6694 29.3175 41.4688 26.1603C41.2682 23.0031 37.5052 20.6753 33.0638 20.9609C28.6225 21.2466 25.1847 24.0376 25.3853 27.1949C25.5859 30.3521 29.3489 32.6799 33.7902 32.3942Z" fill="#A5734A" stroke="black" stroke-width="1.5" stroke-miterlimit="10"/>
<path d="M55.3815 27.5613C55.9103 24.4318 52.7935 21.2883 48.4201 20.5402C44.0466 19.792 40.0726 21.7225 39.5438 24.8521C39.015 27.9816 42.1317 31.1251 46.5051 31.8733C50.8786 32.6214 54.8527 30.6909 55.3815 27.5613Z" fill="#8B6B4C" stroke="black" stroke-width="1.5" stroke-miterlimit="10"/>
<path d="M26.4464 37.6863C31.1005 37.6863 34.8734 34.434 34.8734 30.422C34.8734 26.41 31.1005 23.1577 26.4464 23.1577C21.7922 23.1577 18.0193 26.41 18.0193 30.422C18.0193 34.434 21.7922 37.6863 26.4464 37.6863Z" fill="#8E5935" stroke="black" stroke-width="1.5" stroke-miterlimit="10"/>
<path d="M40.9305 35.6481C45.0749 35.6481 48.4346 32.6902 48.4346 29.0415C48.4346 25.3927 45.0749 22.4348 40.9305 22.4348C36.7862 22.4348 33.4265 25.3927 33.4265 29.0415C33.4265 32.6902 36.7862 35.6481 40.9305 35.6481Z" fill="#7A411A" stroke="black" stroke-width="1.5" stroke-miterlimit="10"/>
<path d="M34.17 48.9166C38.9564 48.9166 42.8365 45.2148 42.8365 40.6483C42.8365 36.0818 38.9564 32.3799 34.17 32.3799C29.3836 32.3799 25.5034 36.0818 25.5034 40.6483C25.5034 45.2148 29.3836 48.9166 34.17 48.9166Z" fill="#551D12" stroke="black" stroke-width="1.5" stroke-miterlimit="10"/>
<path d="M59.3545 37.9613C60.2459 33.5233 57.1302 29.1451 52.3953 28.1822C47.6605 27.2194 43.0995 30.0366 42.208 34.4746C41.3166 38.9126 44.4324 43.2909 49.1672 44.2537C53.9021 45.2165 58.4631 42.3993 59.3545 37.9613Z" fill="#512010" stroke="black" stroke-width="2" stroke-miterlimit="10"/>
<path d="M28.8214 38.2586C28.8563 38.1883 28.9062 38.093 28.976 37.9775C29.1257 37.7315 29.3353 37.3851 29.6895 37.0939C29.8592 36.9584 30.2084 36.7174 30.7622 36.5969C30.877 36.5869 31.5506 36.5367 31.9896 36.9684C32.0994 37.0789 32.1742 37.1994 32.2191 37.2998C32.2291 37.4654 32.2241 37.6411 32.1992 37.8269C32.0296 38.9062 31.1414 39.584 30.7822 39.83C30.6575 40.0207 28.5819 41.5619 30.3531 43.2437C30.423 43.3893 31.8549 44.7598 33.696 44.1474C33.8806 44.1172 35.4373 44.067 35.8215 44.9406C35.8814 45.1012 36.51 45.2669 35.9861 46.6023C35.9263 46.9135 34.6739 47.9276 31.6304 46.773C29.6845 46.4015 28.1029 45.1012 27.4942 43.3743C26.8705 41.582 27.3794 39.6091 28.8214 38.2586Z" fill="#3A1611"/>
<path d="M28.1583 46.2701C29.7015 42.5647 27.7612 38.2153 23.8245 36.5554C19.8877 34.8955 15.4454 36.5536 13.9022 40.259C12.3589 43.9643 14.2992 48.3137 18.236 49.9736C22.1727 51.6336 26.615 49.9754 28.1583 46.2701Z" fill="#551D12" stroke="black" stroke-width="1.5" stroke-miterlimit="10"/>
<path d="M15.5097 42.1192C15.5047 42.0439 15.4947 41.9334 15.4897 41.8029C15.4847 41.5218 15.4748 41.1252 15.6244 40.7085C15.6943 40.5127 15.8639 40.1462 16.2781 39.7798C16.3679 39.7195 16.9267 39.3631 17.5404 39.5338C17.695 39.5789 17.8248 39.6492 17.9245 39.7145C18.0243 39.85 18.1191 40.0057 18.194 40.1814C18.638 41.1904 18.2439 42.1895 18.0642 42.566C18.0642 42.7919 17.1113 45.0811 19.5661 45.7137C19.7058 45.8091 21.6965 46.3262 22.9538 44.9506C23.0936 44.8402 24.4157 44.0771 25.224 44.6544C25.3637 44.7649 25.9924 44.6193 26.2768 46.0149C26.3965 46.3111 25.8726 47.767 22.6046 48.1736C20.7186 48.7509 18.643 48.3594 17.1712 47.1495C15.6494 45.8944 15.0107 43.9516 15.5097 42.1192Z" fill="#3A1611"/>
<path d="M51.084 32.9372C51.084 32.9372 53.6685 30.2814 56.3777 32.9372C56.4975 33.2183 58.2936 35.7334 56.3777 39.4886C56.258 39.84 54.4618 43.0228 51.6927 42.8823C51.3584 42.9124 47.3419 43.2738 45.6106 41.095C45.6106 40.9545 44.7574 38.8861 45.8551 38.9163C46.2493 39.0267 47.1623 36.9885 49.9015 39.4886C49.9913 39.6141 51.7276 40.4525 51.9072 39.4886C52.0918 39.3078 53.2444 38.0227 51.4183 36.2204C51.4482 36.0648 50.0811 35.6481 51.084 32.9372Z" fill="#3A1611"/>
<path d="M45.6106 31.7574C45.6106 31.7574 46.4637 30.5325 47.5864 31.5968C47.8907 31.8227 48.8337 33.4141 47.9805 34.5035C47.8608 34.865 46.6234 35.7987 46.9677 36.5869C47.1273 36.7375 47.4916 37.4604 47.736 37.1843C47.6462 37.6612 47.0974 38.8059 45.8501 38.1331C45.8501 38.1331 44.6326 37.1843 45.0567 35.9845C45.0867 35.8991 45.7852 35.7887 46.0895 34.0015C46.0945 33.7756 45.2114 32.8669 45.6106 31.7574Z" fill="#3A1611"/>
<path d="M20.1797 41.3712C20.8025 41.3712 21.3073 40.8025 21.3073 40.1011C21.3073 39.3996 20.8025 38.8309 20.1797 38.8309C19.557 38.8309 19.0521 39.3996 19.0521 40.1011C19.0521 40.8025 19.557 41.3712 20.1797 41.3712Z" fill="#3A1611"/>
<path d="M39.1761 43.1487C39.7849 41.8681 40.0185 40.7049 39.6978 40.5506C39.3771 40.3962 38.6237 41.3092 38.0149 42.5898C37.4061 43.8704 37.1726 45.0337 37.4932 45.188C37.8139 45.3423 38.5674 44.4293 39.1761 43.1487Z" fill="#3A1611"/>
<path d="M20.3943 28.188C20.4891 27.9521 20.6937 27.5304 21.1427 27.1789C21.3622 27.0082 21.7564 26.697 22.3402 26.6769C22.4998 26.6719 22.9339 26.6568 23.2333 26.8827C23.8968 27.3898 23.6773 28.9461 23.1035 30.0304C22.7892 30.6228 22.3701 31.0646 22.3751 31.8478C22.3751 32.0385 22.3751 32.3096 22.4948 32.5205C22.899 33.2133 24.7251 33.2484 26.9653 32.6309C27.115 32.5757 28.547 32.4753 28.4571 33.3639C28.3973 33.6099 28.033 35.3419 25.0195 35.2565C24.6852 35.1159 22.0707 35.5627 20.8234 33.1078C20.6288 32.6259 20.4392 32.0335 20.3195 31.3508C20.0949 30.0505 20.2296 28.9511 20.3943 28.188Z" fill="#7A411A"/>
<path d="M25.4136 26.4711C25.4136 26.4711 26.6011 25.1458 27.8934 26.205C27.9682 26.4159 28.6867 26.933 28.7316 28.5093C28.7615 28.7603 28.9012 29.3879 28.7316 30.5626C28.7166 30.7032 28.2775 33.1029 27.0452 31.5968C27.0003 31.1701 27.12 30.9341 27.2447 30.7986C27.4343 30.5877 27.6738 30.5676 27.8285 30.3166C27.9432 30.1309 27.9383 29.9301 27.9183 29.7895C27.9083 29.3477 27.8684 28.9762 27.8285 28.7001C27.6888 27.7663 27.4942 27.5555 27.3296 27.445C27.1899 27.3547 27.0501 27.3195 26.9454 27.3045C26.7957 27.3597 26.5961 27.3848 26.3716 27.445C26.1221 27.5153 25.8826 27.5605 25.8527 27.4701C25.7779 27.5153 24.8349 27.2794 25.4136 26.4711Z" fill="#7A411A"/>
<path d="M36.1957 30.5877C36.1957 30.5877 35.3275 29.7794 36.6647 29.5284C36.969 29.5284 38.7652 29.7543 39.2791 30.8437C39.4936 31.0395 40.3418 32.661 41.8935 30.8437C41.9833 30.5626 42.4124 29.0013 43.3255 28.946C43.57 29.0314 44.962 29.0063 44.6227 29.7844C44.5928 29.8296 41.9883 31.9431 41.7638 35.2716C41.7139 35.2916 41.2449 35.3268 41.2449 35.3268C41.2449 35.3268 40.6562 34.2725 39.0246 33.3689C39.0246 33.3388 38.1615 31.17 37.443 31.1047C37.3532 31.0997 36.5 30.924 36.1957 30.5877Z" fill="#6D3612"/>
<path d="M45.6555 26.1749C45.7503 26.3757 45.885 26.7573 45.8251 27.2292C45.7952 27.4601 45.7403 27.8768 45.3761 28.2131C45.2763 28.3035 45.0069 28.5595 44.6676 28.5796C43.9092 28.6298 43.046 27.5254 42.7167 26.5213C42.5371 25.9741 42.5221 25.457 42.0132 24.965C41.8885 24.8445 41.7139 24.6739 41.4993 24.6086C40.7908 24.3977 39.5884 25.3968 38.5406 27.0384C38.4807 27.1589 37.6226 28.0224 37.1037 27.4099C36.9839 27.2191 36.0958 25.9239 38.0966 24.2923C38.4009 24.1919 39.8029 22.4499 42.1978 23.3033C42.6369 23.4991 43.1408 23.7652 43.6597 24.1317C44.6426 24.8345 45.2713 25.6026 45.6555 26.1749Z" fill="#6D3612"/>
<path d="M32.5505 22.8193C32.5843 22.4271 31.9487 22.0512 31.1306 21.9796C30.3126 21.9081 29.622 22.168 29.5881 22.5602C29.5542 22.9524 30.1899 23.3284 31.0079 23.3999C31.826 23.4715 32.5166 23.2115 32.5505 22.8193Z" fill="#C19780"/>
<path d="M49.1798 23.125C49.3218 22.5434 48.1788 21.7609 46.6267 21.3772C45.0747 20.9935 43.7014 21.1539 43.5594 21.7355C43.4174 22.3171 44.5604 23.0996 46.1125 23.4833C47.6645 23.8669 49.0378 23.7065 49.1798 23.125Z" fill="#C19F8E"/>
</g>
<defs>
<clipPath id="clip0_338_10420">
<rect width="47" height="31" fill="white" transform="translate(13 20)"/>
</clipPath>
</defs>
</svg>
