<svg width="70" height="70" viewBox="0 0 70 70" fill="none" xmlns="http://www.w3.org/2000/svg">
<circle cx="35" cy="35" r="35" fill="#FFDEB2"/>
<path d="M46 45C53.1797 45 59 42.7614 59 40C59 37.2386 53.1797 35 46 35C38.8203 35 33 37.2386 33 40C33 42.7614 38.8203 45 46 45Z" fill="#F4EEA8"/>
<path d="M36.8789 18L33 39.445L59 40L56.4571 18H36.8789Z" fill="#F4EEA8"/>
<path d="M47 22C52.5228 22 57 20.433 57 18.5C57 16.567 52.5228 15 47 15C41.4772 15 37 16.567 37 18.5C37 20.433 41.4772 22 47 22Z" fill="#724235" stroke="black" stroke-miterlimit="10"/>
<path d="M36.8901 18.4806L33.002 39.7606C33.002 39.7606 32.5166 44.8996 46.7018 45C46.9049 44.9947 58.5939 44.8257 59 39.7606C58.1481 32.5088 57.2962 25.2518 56.4492 18C56.4591 18.0317 56.469 18.0898 56.474 18.1585C56.4839 18.2746 56.469 18.3644 56.4591 18.4225C56.4245 18.618 56.3551 18.9349 56.3304 19.0141C55.9787 20.044 52.3631 20.9261 52.3631 20.9261C51.9074 21.037 51.3576 21.169 50.7286 21.3063C50.5552 21.338 49.9064 21.4437 48.8514 21.5229C48.2224 21.5704 47.4002 21.6127 46.4344 21.6074C45.9936 21.6021 45.4438 21.5863 44.8049 21.544C44.473 21.5229 44.2254 21.4965 44.1362 21.4912C43.2744 21.4067 42.6355 21.3011 42.4671 21.2746C42.1649 21.2218 41.7241 21.1479 41.1545 21.0053C40.4859 20.8415 39.8767 20.6884 39.1238 20.3451C38.584 20.1021 38.2224 19.9331 37.7964 19.5528C37.3655 19.1778 37.0733 18.7711 36.8901 18.4806Z" fill="#EFE79C" stroke="black" stroke-miterlimit="10"/>
<path d="M37.0566 19C37.0115 19.2258 36.9664 19.4571 36.9213 19.6883C36.5655 21.565 36.3049 23.404 36.1094 25.1893C36.0493 25.4689 36.0192 25.8292 36.0042 26.2378C35.9842 26.8025 36.0293 27.4531 36.2848 27.7865C36.4302 27.8725 37.0366 28.6523 38.2995 27.7865C38.3796 27.5875 39.0011 27.1843 39.3068 25.6679C39.3569 25.5012 39.7227 24.3504 40.4243 25.3829C40.4293 25.399 40.4494 25.442 40.4694 25.4904C41.146 27.1466 40.8453 28.8889 40.705 29.6471C40.6849 29.7438 40.6548 29.9159 40.5997 30.1364C40.5747 30.3891 40.5646 30.658 40.5496 30.9376C40.5296 31.3732 40.5195 31.9378 40.5847 32.5239C40.6649 32.6745 40.8904 33.7768 42.0079 33.9758C42.1683 34.008 43.4763 34.1263 43.9424 33.2767C43.9724 33.1047 44.0125 32.8519 44.0326 32.5454C44.1128 31.3463 43.8522 30.4752 43.6968 29.8138C43.5364 29.1201 43.3661 28.1307 43.351 26.8509C43.351 26.8509 43.2708 25.3667 44.0526 25.2484C44.5137 25.3667 44.8695 25.2807 45.2504 26.8347C45.2604 26.8724 45.2704 26.8939 45.2754 26.9046C45.6463 28.0231 45.2053 28.8082 45.4759 29.9643C45.506 30.088 45.5611 30.2977 45.6663 30.5504C45.8467 31.0183 46.2627 31.3033 46.6736 31.271C47.0946 31.2387 47.3402 30.8785 47.3702 30.8301C47.6058 30.4805 47.5456 30.1041 47.5306 30.0288C47.5206 29.7976 47.4905 29.5288 47.4304 29.2222C47.3903 29.0233 47.3301 28.7867 47.2249 28.5232C47.2249 28.4587 45.4809 24.7537 46.2577 23.7051C46.3128 23.6406 46.9843 23.205 47.4153 24.2913C47.4654 24.5171 47.5256 24.8505 47.5556 25.2592C47.5907 25.7001 47.5707 25.9475 47.5807 26.2432C47.5907 26.6196 47.6459 27.152 47.8513 27.808C47.8614 27.8457 48.0017 28.2705 48.4176 28.3995C48.7183 28.4909 49.0842 28.3995 49.2946 28.1038C49.475 27.851 49.4951 27.5069 49.3548 27.2165C49.2395 26.7756 49.1242 26.3239 49.014 25.8614C48.9639 25.6463 48.9138 25.4313 48.8636 25.2162C48.8085 25.0548 48.598 24.3827 48.7634 23.7858C48.8486 23.4793 49.029 23.205 49.1844 23.119C49.2094 23.1029 49.2395 23.0921 49.2395 23.0921C49.4099 23.0276 49.5703 23.076 49.6655 23.1083C50.0163 23.2104 50.1566 23.3449 50.2167 23.4578C50.2418 23.5008 50.342 23.7105 50.342 23.7105C50.342 23.7105 50.3771 23.974 50.3771 23.9794C50.5675 25.3936 50.2368 28.6523 50.2368 28.6523C50.2218 28.7974 50.1716 29.7869 50.0764 31.7603C50.0714 31.8948 50.0564 32.2389 50.1666 32.6583C50.2518 32.9864 50.3821 33.2391 50.4773 33.395C50.8532 33.723 51.2992 33.8198 51.5648 33.637C51.7803 33.4918 51.8355 33.1907 51.8856 32.981C51.9357 32.7874 51.9457 32.5454 51.8806 32.2497C51.8505 32.2335 50.9685 27.6628 51.1439 26.8939C51.2742 26.6788 51.3493 26.4422 51.7503 26.3777C51.8605 26.4261 52.2314 26.496 52.3266 26.91C52.3917 27.0606 52.6623 28.7168 52.6323 31.1097C52.6824 31.3463 52.7776 32.1152 53.6095 32.2174C53.7198 32.2335 54.682 31.8733 54.5216 31.1097C54.4915 31.0129 53.7699 27.5929 53.7999 27.1627C53.81 27.0982 53.9202 26.5175 54.4063 26.297C54.677 26.1787 55.0879 26.1572 55.2733 26.383C55.4287 26.5712 55.3736 26.8616 55.3485 27.0122C55.2483 27.5983 54.9426 29.3943 55.6041 30.4321C55.7895 30.7225 55.985 30.8462 56.0501 30.8838C56.0501 30.8838 56.0551 30.8892 56.0651 30.8892C56.5863 31.1688 57.9895 30.6365 57.9996 30.3246C58.0046 30.2278 57.9645 29.8729 57.9595 29.8138C57.9595 29.7546 57.8843 29.0287 57.8843 29.0287C57.8592 28.6899 57.8041 28.2866 57.6989 27.4585C57.5636 26.3777 57.5786 26.34 57.3882 24.7268C57.3631 24.5332 57.3481 24.3827 57.328 24.2375C57.2378 23.4954 57.1627 22.8932 57.1576 22.8179C57.0975 22.3393 56.9822 21.3714 56.7267 19.2689C56.6665 19.3872 56.5262 19.5324 56.3458 19.6883C56.005 19.9787 55.6993 20.1346 55.3184 20.3228C54.9275 20.5164 54.6168 20.6347 54.3512 20.7261C53.9804 20.8605 53.6947 20.9466 53.4291 21.0219C53.2086 21.0864 52.8879 21.1778 52.3967 21.2907C51.7703 21.4413 51.1489 21.5865 50.332 21.6994C49.7306 21.7854 49.2846 21.8177 48.8536 21.8446C48.5329 21.8661 47.8664 21.9091 47.0094 21.9091C46.6436 21.9091 45.3656 21.9037 43.7369 21.7263C42.5492 21.5972 41.8075 21.4467 41.2913 21.323C41.2662 21.3176 41.2412 21.3122 41.2211 21.3069C40.6799 21.1724 39.6626 20.9251 38.7806 20.4357C38.3496 20.2099 37.7081 19.7743 37.0566 19Z" fill="#724235"/>
<path d="M27 55C36.3888 55 44 52.0899 44 48.5C44 44.9101 36.3888 42 27 42C17.6112 42 10 44.9101 10 48.5C10 52.0899 17.6112 55 27 55Z" fill="#F4EEA8"/>
<path d="M15.0777 23L10 48.341L44 49L40.6764 23H15.0777Z" fill="#F4EEA8"/>
<path d="M28 27C35.1797 27 41 25.2091 41 23C41 20.7909 35.1797 19 28 19C20.8203 19 15 20.7909 15 23C15 25.2091 20.8203 27 28 27Z" fill="#894730" stroke="black" stroke-miterlimit="10"/>
<path d="M15.5819 24C15.0989 26.4065 14.6209 28.813 14.138 31.2195C14.138 31.2195 13.7098 33.5855 14.362 34.4011C14.5462 34.5025 15.318 35.46 16.9212 34.4011C17.0208 34.158 17.8174 33.6665 18.2008 31.8123C18.2605 31.6096 18.7285 30.2012 19.6247 31.4678C19.6347 31.488 19.6546 31.5387 19.6845 31.5995C20.5458 33.6209 20.1575 35.7589 19.9832 36.681C19.9583 36.7975 19.9185 37.0103 19.8538 37.2788C19.8239 37.5879 19.8089 37.9172 19.789 38.2566C19.7592 38.7886 19.7492 39.4827 19.8338 40.197C19.9334 40.3794 20.2222 41.727 21.6412 41.9702C21.8453 42.0108 23.5083 42.1526 24.1007 41.114C24.1406 40.9063 24.1904 40.5973 24.2153 40.2224C24.3198 38.7582 23.9862 37.6943 23.7871 36.8836C23.578 36.0376 23.3639 34.8267 23.3489 33.2663C23.3489 33.2663 23.2494 31.4526 24.2451 31.3107C24.8326 31.4526 25.2807 31.3512 25.7687 33.246C25.7786 33.2967 25.7936 33.317 25.7986 33.3322C26.2715 34.7001 25.7139 35.6576 26.0525 37.0762C26.0873 37.2282 26.157 37.4815 26.2964 37.7956C26.5255 38.3681 27.0532 38.7177 27.581 38.6771C28.1137 38.6366 28.4274 38.1958 28.4672 38.1401C28.766 37.7095 28.6913 37.2484 28.6714 37.1623C28.6614 36.8836 28.6216 36.5493 28.5419 36.1794C28.4921 35.9362 28.4125 35.6475 28.283 35.3283C28.283 35.2472 26.0674 30.7179 27.0532 29.4362C27.1279 29.3551 27.9793 28.8231 28.527 30.1505C28.5867 30.4241 28.6664 30.8345 28.7062 31.336C28.751 31.8731 28.7261 32.177 28.7361 32.5367C28.7461 32.9927 28.8158 33.6463 29.0846 34.4467C29.0996 34.4923 29.2738 35.0142 29.8066 35.1662C30.1899 35.2776 30.658 35.1662 30.9218 34.8065C31.1509 34.4974 31.1807 34.0718 30.9965 33.7223C30.8472 33.1802 30.7028 32.6279 30.5634 32.0605C30.4986 31.7971 30.4339 31.5336 30.3742 31.2702C30.3045 31.0726 30.0406 30.2468 30.2497 29.5172C30.3592 29.1474 30.5883 28.8079 30.7874 28.7015C30.8223 28.6863 30.8571 28.6711 30.8571 28.6711C31.0712 28.5901 31.2803 28.6509 31.3998 28.6965C31.8479 28.8181 32.0222 28.9903 32.1018 29.1271C32.1317 29.1778 32.2612 29.4311 32.2612 29.4311C32.2612 29.4311 32.306 29.7553 32.306 29.7604C32.545 31.488 32.1267 35.4752 32.1267 35.4752C32.1068 35.6525 32.0471 36.8583 31.9176 39.2749C31.9077 39.4421 31.8927 39.8626 32.0321 40.3743C32.1417 40.7746 32.306 41.0836 32.4304 41.2761C32.9084 41.6764 33.471 41.7929 33.8146 41.57C34.0884 41.3927 34.1581 41.0228 34.2228 40.7695C34.2826 40.5314 34.3025 40.2375 34.2179 39.8778C34.178 39.8576 33.0578 34.2694 33.2818 33.3322C33.4461 33.0687 33.5457 32.7799 34.0536 32.6989C34.198 32.7597 34.661 32.8407 34.7855 33.3524C34.8651 33.5348 35.2136 35.5613 35.1738 38.4846C35.2336 38.7784 35.358 39.7157 36.4136 39.8373C36.558 39.8576 37.7728 39.4168 37.5736 38.4846C37.5338 38.3681 36.6177 34.1884 36.6575 33.6564C36.6725 33.5804 36.8119 32.8661 37.4293 32.5975C37.7728 32.4506 38.2906 32.4253 38.5296 32.6989C38.7288 32.9269 38.659 33.2815 38.6242 33.4689C38.4997 34.1833 38.1114 36.377 38.9478 37.6487C39.1968 38.0236 39.4507 38.1654 39.5353 38.211C40.546 38.743 42.0148 37.8766 41.9999 37.4561C41.9999 37.4156 41.98 37.3497 41.9401 37.0306C41.9252 36.914 41.9152 36.8229 41.9053 36.7621C41.6414 34.7355 41.3775 32.709 41.1136 30.6825C40.8398 28.5648 40.561 26.4521 40.2871 24.3344C39.62 24.7903 38.4599 25.525 37.3396 25.8847C37.1654 25.9404 36.7073 26.0772 36.1646 26.2241C35.9306 26.2849 35.5174 26.3913 34.8701 26.5332C33.954 26.7358 33.2171 26.8929 32.2412 27.0246C31.4894 27.1209 30.9318 27.1563 30.3891 27.1918C29.4431 27.2526 28.6365 27.2627 28.0291 27.2576C26.3164 27.2424 24.8924 27.1259 23.8369 27.0094C21.9847 26.8067 20.9192 26.5585 20.6404 26.4926C19.4953 26.2241 18.5941 26.0012 17.5386 25.4287C16.6374 24.9373 15.9901 24.3901 15.5819 24Z" fill="#894730"/>
<path d="M15.0866 23.57L10.0026 48.7917C10.0026 48.7917 9.36838 54.8808 27.9194 55C28.1854 54.9948 43.4681 54.7927 44 48.7917C42.885 40.1945 41.7751 31.5972 40.6601 23C40.6703 23.0363 40.6857 23.1036 40.6959 23.1917C40.7061 23.3317 40.6857 23.4405 40.6754 23.5027C40.6294 23.7307 40.5373 24.1142 40.5015 24.2023C40.0412 25.4253 35.3152 26.4669 35.3152 26.4669C34.7219 26.5964 33.9956 26.7519 33.1773 26.9177C32.9522 26.954 32.1032 27.0836 30.7222 27.1768C29.8988 27.2338 28.8247 27.2857 27.5562 27.2753C26.9834 27.2701 26.2622 27.2494 25.4285 27.1976C24.9938 27.1717 24.6716 27.1406 24.5539 27.1302C23.4287 27.0317 22.5899 26.9074 22.3699 26.8711C21.9761 26.8089 21.3981 26.7208 20.6514 26.555C19.7768 26.3581 18.9789 26.1767 17.9969 25.7725C17.291 25.4823 16.8205 25.2853 16.2579 24.8345C15.7106 24.3992 15.327 23.9172 15.0866 23.57Z" fill="#F4EEA8" stroke="black" stroke-miterlimit="10"/>
<path d="M14.6916 24C14.175 26.4239 13.6583 28.8479 13.1417 31.2768C13.1417 31.2768 12.7019 33.6302 13.3719 34.4416C13.5612 34.5424 14.3591 35.4948 16.0214 34.4416C16.1288 34.1997 16.9472 33.7109 17.3462 31.8665C17.4076 31.6649 17.8935 30.2639 18.8193 31.5238C18.8295 31.5439 18.85 31.5943 18.8807 31.6548C19.7758 33.6655 19.3717 35.7921 19.1875 36.7093C19.162 36.8252 19.121 37.0368 19.0494 37.3039C19.0188 37.6113 19.0034 37.9389 18.9829 38.2765C18.9523 38.8057 18.942 39.4961 19.029 40.2066C19.1364 40.388 19.4279 41.7285 20.901 41.9704C21.1107 42.0107 22.8396 42.1518 23.4482 41.1187C23.4892 40.9121 23.5403 40.6047 23.5659 40.2318C23.6733 38.7754 23.3255 37.7172 23.1209 36.9109C22.9061 36.0693 22.681 34.8649 22.6708 33.3128C22.6708 33.3128 22.5634 31.5087 23.5966 31.3676C24.2052 31.5087 24.6707 31.4079 25.1771 33.2926C25.1924 33.343 25.2027 33.3631 25.2078 33.3783C25.6988 34.7389 25.1208 35.6913 25.4686 37.1024C25.5044 37.2535 25.5812 37.5055 25.7193 37.8179C25.9597 38.3874 26.5069 38.7351 27.0491 38.6948C27.6015 38.6545 27.9289 38.2161 27.9698 38.1606C28.2767 37.7323 28.2 37.2737 28.1846 37.188C28.1744 36.9109 28.1335 36.5783 28.0516 36.2104C28.0005 35.9685 27.9187 35.6813 27.7857 35.3638C27.7857 35.2831 25.4891 30.778 26.5121 29.503C26.5888 29.4224 27.4685 28.8932 28.0414 30.2135C28.1028 30.4857 28.1846 30.8939 28.2307 31.3928C28.2767 31.9269 28.2511 32.2293 28.2614 32.5871C28.2716 33.0406 28.3483 33.6907 28.6194 34.4869C28.6347 34.5323 28.8138 35.0513 29.3662 35.2025C29.7651 35.3134 30.2459 35.2025 30.5221 34.8447C30.7574 34.5373 30.7881 34.114 30.5989 33.7663C30.4454 33.2271 30.292 32.6778 30.1488 32.1134C30.0823 31.8513 30.0158 31.5893 29.9493 31.3272C29.8777 31.1307 29.6015 30.3093 29.8214 29.5836C29.9339 29.2157 30.1692 28.8781 30.3789 28.7723C30.4147 28.7572 30.4505 28.742 30.4505 28.742C30.6756 28.6614 30.8904 28.7219 31.0132 28.7672C31.4786 28.8882 31.6576 29.0595 31.7395 29.1956C31.7702 29.246 31.9032 29.498 31.9032 29.498C31.9032 29.498 31.9492 29.8205 31.9492 29.8255C32.1998 31.5439 31.7599 35.5099 31.7599 35.5099C31.7395 35.6863 31.6781 36.8857 31.5451 39.2894C31.5349 39.4557 31.5195 39.874 31.6628 40.383C31.7753 40.7811 31.9492 41.0885 32.0719 41.28C32.5681 41.6781 33.1512 41.794 33.5041 41.5723C33.7854 41.3959 33.8622 41.028 33.9287 40.7761C33.99 40.5392 34.0105 40.2469 33.9235 39.8891C33.8826 39.869 32.7215 34.3105 32.9568 33.3783C33.1256 33.1162 33.2279 32.829 33.7547 32.7483C33.9031 32.8088 34.3839 32.8894 34.5118 33.3984C34.5936 33.5798 34.9516 35.5956 34.9107 38.5033C34.9721 38.7956 35.1 39.7279 36.1945 39.8488C36.3429 39.869 37.6063 39.4305 37.3965 38.5033C37.3556 38.3874 36.4094 34.2299 36.4503 33.7008C36.4656 33.6252 36.6089 32.9146 37.2533 32.6476C37.6063 32.5014 38.1484 32.4762 38.394 32.7483C38.5985 32.9751 38.5269 33.3279 38.4963 33.5143C38.3633 34.2249 37.9643 36.4069 38.8338 37.6718C39.0896 38.0447 39.3556 38.1858 39.4425 38.2312C40.4911 38.7603 42.0102 37.8986 41.9999 37.4803C41.9999 37.44 41.9795 37.3745 41.9386 37.057C41.9232 36.9411 41.9079 36.8504 41.9028 36.7899C41.6163 34.5424 41.0844 30.7427 41.0844 30.7427C40.8747 29.251 40.5882 27.1798 40.1893 24.2822C39.7289 24.7005 39.2942 24.9928 38.9668 25.1893C38.2507 25.6126 37.6267 25.8243 37.1766 25.9754C36.8083 26.0964 36.527 26.1669 35.9593 26.3131C35.7189 26.3735 35.2892 26.4794 34.6192 26.6205C33.6729 26.822 32.9057 26.9783 31.898 27.1093C31.1206 27.205 30.5426 27.2403 29.98 27.2756C28.9979 27.3361 28.1642 27.3461 27.535 27.3411C25.7653 27.326 24.2871 27.2101 23.1925 27.0942C21.2744 26.8926 20.1696 26.6457 19.8781 26.5802C19.0443 26.3937 17.7758 26.1065 16.6659 25.5219C16.1595 25.2447 15.4383 24.7912 14.6916 24Z" fill="#894730"/>
</svg>
