<svg width="70" height="70" viewBox="0 0 70 70" fill="none" xmlns="http://www.w3.org/2000/svg">
<circle cx="35" cy="35" r="35" fill="#FFDEB2"/>
<g clip-path="url(#clip0_365_13005)">
<path d="M32.2845 30.27C32.2845 30.27 30.0191 22.4513 36.3423 21.249C37.2924 21.3564 40.7693 19.9395 41.2963 27.7926C41.5079 28.8831 41.5079 29.9093 43.3002 30.27C44.1425 30.6307 45.1964 32.7345 43.9309 33.9711C43.5077 34.6624 41.4332 37.1699 38.2052 35.6456C38.2384 35.4267 33.5998 35.0359 32.2845 30.27Z" fill="#8D3F38" stroke="black" stroke-miterlimit="10"/>
<path d="M60.4069 43.9624C60.4069 43.9624 54.5235 49.3982 50.7935 43.9839C50.4865 43.0479 47.773 40.3901 54.4198 36.5688C55.287 35.9075 56.1832 35.4739 55.7392 33.6448C55.6977 32.7045 57.0918 30.8239 58.7099 31.4851C59.4941 31.5881 62.5685 32.4683 62.6017 36.1437C62.3943 36.1952 64.0166 40.7078 60.4069 43.9624Z" fill="#894730" stroke="black" stroke-miterlimit="10"/>
<path d="M25.1938 31.7642C25.1938 31.7642 28.177 22.0992 36.0021 32.6744C36.6618 33.984 37.5041 34.8556 35.1847 40.1969C34.8694 41.0685 32.0232 47.9383 27.704 42.3781C27.2808 41.5064 23.2106 40.5576 25.1938 31.7642Z" fill="#894730" stroke="black" stroke-miterlimit="10"/>
<path d="M37.3672 33.8294C37.3672 33.8294 46.0802 29.1751 44.3915 42.378C43.9642 43.7863 43.9642 45.0186 38.6741 47.101C37.8526 47.4875 31.1519 50.2655 31.8904 43.1724C32.1892 42.2492 29.957 38.6039 37.3672 33.8294Z" fill="#8D3F38" stroke="black" stroke-miterlimit="10"/>
<path d="M11.9998 40.4974C11.9998 40.4974 17.796 34.7697 20.1652 42.5154C20.3228 43.387 18.742 46.9765 22.0115 47.9641C23.2769 48.2947 25.9116 50.1495 23.9076 52.657C23.3807 53.2023 16.6385 55.2761 12.5268 49.9306C12.5268 49.8189 7.68066 45.5682 11.9998 40.4974Z" fill="#8E5242" stroke="black" stroke-miterlimit="10"/>
<path d="M33.6372 44.542C33.6372 44.542 40.9603 51.2874 28.4426 54.3917C27.0194 54.4818 25.9075 54.9241 22.1319 50.5617C21.4887 49.9091 16.5804 44.4261 23.2438 42.6013C24.1856 42.5584 26.6751 39.0977 33.6372 44.542Z" fill="#8D3F38" stroke="black" stroke-miterlimit="10"/>
<path d="M42.5577 36.8178C42.5577 36.8178 42.8522 36.178 43.2879 36.1308C43.3875 36.1437 43.8688 36.1179 44.0721 36.4185C44.1135 36.4872 44.6654 38.7886 44.2712 41.2445C44.2961 41.3175 44.2131 42.6571 43.8107 43.4257C43.7858 43.4987 43.2837 44.6923 41.4789 45.5639C41.4374 45.6069 39.6201 46.5386 38.7986 46.8263C38.7571 46.852 37.4502 47.4746 35.8362 47.6979C35.803 47.6077 35.1391 45.345 33.4837 44.1384C33.3965 44.0826 32.102 43.1853 32.102 43.1853C32.102 43.1853 32.156 42.8031 32.0564 42.1505C32.0357 42.1033 31.99 41.7641 31.9983 41.6138C32.0066 41.588 32.4215 40.652 33.5667 40.9311C33.5915 40.9569 34.106 40.974 36.4254 42.7859C36.4793 42.8461 38.7447 43.4472 40.3504 43.2282C40.5329 43.1466 42.5369 42.9019 43.1676 40.8581C43.1925 40.6134 43.2713 39.3038 42.7195 38.0501C42.6614 37.9084 42.2755 37.2386 42.5577 36.8178Z" fill="#7A271F"/>
<path d="M32.1062 27.0111C32.1062 27.0111 32.0979 28.2262 32.1643 28.4237C32.2057 28.4752 35.442 30.592 36.778 33.984C36.8278 33.9539 38.9023 32.3395 41.6199 32.9707C41.7278 33.0007 42.6863 33.1252 43.4953 34.1858C43.5659 34.1643 44.5118 33.2455 44.2546 32.0304C44.2629 32.0089 43.9766 30.4031 42.5161 30.2829C42.4871 30.2743 41.342 29.875 41.1718 28.4108C41.1635 28.3679 40.3005 28.1146 39.0185 29.656C38.9687 29.7676 36.5208 30.5362 35.5499 28.5311C35.4959 28.5053 33.1227 26.0021 32.1062 27.0111Z" fill="#7A271F"/>
<path d="M31.2058 43.1338C31.2058 43.1338 29.7827 42.7344 29.1521 43.7692C29.1604 43.8808 28.6791 44.8126 30.0234 45.6412C30.1229 45.6842 32.0564 46.5086 32.156 48.2174C32.2058 48.372 30.9984 50.712 27.8202 50.6691C27.4758 50.712 26.2104 49.8834 25.2436 48.9946C25.1565 48.9946 24.2562 48.8228 23.5135 49.4025C22.7833 49.922 22.1899 50.3514 22.1899 50.3514C22.1899 50.3514 24.725 53.2195 25.8992 53.7648C25.9241 53.7906 26.8659 54.396 28.4716 54.1641C28.5131 54.1641 31.4963 53.3569 32.6124 52.6528C32.6829 52.6313 34.8155 51.4978 35.3383 49.8919C35.3673 49.8705 35.9814 48.8701 35.0437 46.7748C35.052 46.7533 34.2222 44.6322 31.2058 43.1338Z" fill="#7A271F"/>
<path d="M50.3702 42.6228C50.3702 42.6228 53.0256 44.7396 54.9342 44.3703C55.0711 44.3274 59.9048 43.6361 62.3527 40.2012C62.2241 40.6735 62.1038 41.8886 60.5147 43.5631C60.4939 43.6146 57.49 46.2638 54.9342 46.1822C54.8637 46.1822 52.4655 46.2552 50.9719 43.8808C50.9636 43.7692 50.3702 42.6228 50.3702 42.6228Z" fill="#87402D"/>
<path d="M31.4547 37.1012C31.4547 37.1012 33.1932 34.9114 36.3921 34.1858C35.6038 34.7697 33.4463 36.4099 32.5916 37.9599C32.5584 38.0286 31.1145 39.7589 31.7161 42.9234C31.6124 42.8675 29.0898 41.193 26.7995 41.2746C26.7995 41.266 25.978 40.6391 25.4178 39.4154C25.4593 39.4026 29.5793 38.8401 31.4547 37.1012Z" fill="#87402D"/>
<path d="M19.6922 44.4089V45.01C19.6922 45.01 19.4018 45.9504 19.6258 46.633C19.6922 46.822 19.5719 47.4102 21.0074 49.5355C21.0863 49.6601 23.3268 52.3007 23.696 52.5754C23.6172 52.6441 21.6422 53.4084 19.7046 53.2968C19.7046 53.2839 18.1238 53.2023 17.8085 53.052C17.821 53.0263 16.9538 50.5317 17.8085 48.2818C17.8085 48.226 19.7171 45.1045 19.6922 44.4089Z" fill="#87402D"/>
</g>
<defs>
<clipPath id="clip0_365_13005">
<rect width="53" height="33.6622" fill="white" transform="translate(10 21)"/>
</clipPath>
</defs>
</svg>
