<svg width="80" height="80" viewBox="0 0 80 80" fill="none" xmlns="http://www.w3.org/2000/svg">
<circle cx="40" cy="40" r="40" fill="#C8AA98"/>
<path d="M32.2 52.9C32.8667 52.9 33.55 52.85 34.25 52.75C34.95 52.6167 35.5167 52.4833 35.95 52.35V55.7C35.4833 55.9333 34.8167 56.1167 33.95 56.25C33.0833 56.4167 32.25 56.5 31.45 56.5C30.05 56.5 28.75 56.2667 27.55 55.8C26.3833 55.3 25.4333 54.45 24.7 53.25C23.9667 52.05 23.6 50.3667 23.6 48.2V32.6H19.8V30.5L23.65 28.75L25.4 23.05H28V29.2H35.75V32.6H28V48.1C28 49.7333 28.3833 50.95 29.15 51.75C29.95 52.5167 30.9667 52.9 32.2 52.9ZM64.6164 42.55C64.6164 44.7833 64.3164 46.7667 63.7164 48.5C63.1497 50.2 62.3164 51.65 61.2164 52.85C60.1497 54.05 58.8331 54.9667 57.2664 55.6C55.7331 56.2 54.0164 56.5 52.1164 56.5C50.3497 56.5 48.7164 56.2 47.2164 55.6C45.7164 54.9667 44.4164 54.05 43.3164 52.85C42.2164 51.65 41.3497 50.2 40.7164 48.5C40.1164 46.7667 39.8164 44.7833 39.8164 42.55C39.8164 39.5833 40.3164 37.0833 41.3164 35.05C42.3164 32.9833 43.7497 31.4167 45.6164 30.35C47.4831 29.25 49.6997 28.7 52.2664 28.7C54.6997 28.7 56.8331 29.25 58.6664 30.35C60.5331 31.4167 61.9831 32.9833 63.0164 35.05C64.0831 37.0833 64.6164 39.5833 64.6164 42.55ZM44.3664 42.55C44.3664 44.65 44.6331 46.4833 45.1664 48.05C45.7331 49.5833 46.5997 50.7667 47.7664 51.6C48.9331 52.4333 50.4164 52.85 52.2164 52.85C54.0164 52.85 55.4997 52.4333 56.6664 51.6C57.8331 50.7667 58.6831 49.5833 59.2164 48.05C59.7831 46.4833 60.0664 44.65 60.0664 42.55C60.0664 40.4167 59.7831 38.6 59.2164 37.1C58.6497 35.6 57.7831 34.45 56.6164 33.65C55.4831 32.8167 53.9997 32.4 52.1664 32.4C49.4331 32.4 47.4497 33.3 46.2164 35.1C44.9831 36.9 44.3664 39.3833 44.3664 42.55Z" fill="#513617"/>
</svg>
