<svg width="70" height="70" viewBox="0 0 70 70" fill="none" xmlns="http://www.w3.org/2000/svg">
<circle cx="35" cy="35" r="35" fill="#B28970"/>
<g clip-path="url(#clip0_366_2558)">
<path d="M48.6217 54.9281L48.8734 54.2913L48.8859 54.3104C48.9281 54.3702 48.9536 54.4408 48.9598 54.5146C48.9715 54.7144 48.8121 54.8803 48.6217 54.9281Z" fill="black"/>
<path d="M48.5445 50.2854C48.5445 50.3522 48.5296 50.4181 48.5009 50.4779C48.4723 50.5378 48.4307 50.59 48.3794 50.6305C48.3281 50.671 48.2685 50.6988 48.2052 50.7115C48.1419 50.7243 48.0766 50.7217 48.0143 50.7041C47.9775 50.6923 47.9414 50.6784 47.9061 50.6624C47.9011 50.4887 47.8935 50.3149 47.886 50.1411L48.2366 49.8649C48.0362 49.7989 48.0387 49.3871 48.032 49.2176C48.0313 49.1445 48.012 49.0728 47.9759 49.0099C47.9398 48.947 47.8882 48.8952 47.8264 48.8597C47.7946 48.2463 47.7579 47.6333 47.7165 47.0205C47.6922 46.6574 48.0378 46.5322 48.2928 46.6417C48.3963 47.8551 48.4802 49.0697 48.5445 50.2854Z" fill="black"/>
<path d="M48.469 54.1262C48.49 54.1193 48.4774 54.1028 48.448 54.0819C48.5287 54.0675 48.6114 54.0713 48.6905 54.0932C48.7782 54.1202 48.8553 54.1754 48.9107 54.2508C48.9661 54.3263 48.9967 54.4181 48.9983 54.5128H48.9589C48.9528 54.4391 48.9272 54.3684 48.8851 54.3087L48.8725 54.2895L48.6208 54.9264H48.4698C48.3717 54.7926 48.2735 54.6579 48.1746 54.525C48.271 54.3955 48.3692 54.2609 48.469 54.1262Z" fill="black"/>
<path d="M47.9666 52.916C48.0595 52.8693 48.1655 52.8586 48.2653 52.8858C48.3652 52.9131 48.4524 52.9765 48.511 53.0646L48.7626 53.4303L47.9808 53.6493C47.9749 53.4051 47.9707 53.1602 47.9666 52.916Z" fill="black"/>
<path d="M48.1611 54.5457C48.1611 54.535 48.1611 54.5235 48.1611 54.5128L48.1744 54.5306L48.1611 54.5457Z" fill="black"/>
<path d="M48.4674 54.9316H48.6184C48.5336 54.9549 48.4439 54.9501 48.3619 54.9178C48.2799 54.8855 48.2097 54.8275 48.1612 54.7517L48.1486 54.7318C47.9976 54.5059 48.1486 54.1531 48.4003 54.0941C48.4171 54.0897 48.4338 54.0871 48.4498 54.0845C48.4791 54.1054 48.4917 54.1219 48.4707 54.1288C48.3709 54.2635 48.2728 54.3981 48.1738 54.5328L48.1612 54.5154C48.1612 54.5259 48.1612 54.5371 48.1612 54.5476L48.1721 54.5328C48.2711 54.6631 48.3692 54.7978 48.4674 54.9316Z" fill="black"/>
<path d="M48.141 53.9368C48.2383 53.9741 48.3333 54.0177 48.4254 54.0672C48.3593 54.0698 48.2934 54.0576 48.2323 54.0313C48.1712 54.0051 48.1163 53.9654 48.0714 53.9151C48.0949 53.9212 48.1184 53.929 48.141 53.9368Z" fill="black"/>
<path d="M48.3985 54.0915C48.1469 54.1505 47.9975 54.5033 48.1469 54.7291L48.1594 54.7491C48.2079 54.8248 48.2781 54.8829 48.3601 54.9152C48.4421 54.9475 48.5318 54.9523 48.6166 54.929C48.807 54.8812 48.9664 54.7152 48.9522 54.5154H48.9916C48.9916 54.5259 48.9916 54.5371 48.9916 54.5476C48.9898 54.6422 48.9591 54.7338 48.9037 54.809C48.8484 54.8843 48.7713 54.9394 48.6837 54.9663C48.3717 55.0732 48.188 54.8794 47.9095 54.7769C47.6486 54.6861 47.3716 54.6564 47.0983 54.6901C46.4599 54.75 45.8727 55.0836 45.3149 55.3851C45.2249 55.4362 45.1197 55.4508 45.0199 55.4261C44.92 55.4014 44.8326 55.339 44.7747 55.2513C45.0045 55.0271 45.2268 54.7934 45.4457 54.5563C45.5145 54.4846 45.5556 54.3895 45.5615 54.2887C45.9497 54.089 46.3627 53.946 46.7888 53.8638C47.1056 53.8064 47.4292 53.8014 47.7476 53.8491C47.8546 53.8655 47.9605 53.889 48.0647 53.9194C48.1096 53.9698 48.1644 54.0094 48.2256 54.0357C48.2867 54.0619 48.3525 54.0741 48.4186 54.0715L48.4413 54.0863C48.4321 54.0845 48.4153 54.0871 48.3985 54.0915Z" fill="black"/>
<path d="M48.0295 49.2194C48.0362 49.3888 48.0295 49.8006 48.2342 49.8666L47.8835 50.1429C47.8668 49.7154 47.8469 49.2883 47.824 48.8614C47.8857 48.8969 47.9373 48.9488 47.9734 49.0117C48.0095 49.0745 48.0289 49.1462 48.0295 49.2194Z" fill="black"/>
<path d="M47.9665 52.916C47.9531 52.1631 47.9321 51.4119 47.9036 50.6624C47.9389 50.6784 47.975 50.6923 48.0118 50.7041C48.074 50.7217 48.1393 50.7243 48.2026 50.7115C48.2659 50.6988 48.3256 50.671 48.3769 50.6305C48.4282 50.59 48.4697 50.5378 48.4984 50.4779C48.527 50.4181 48.5419 50.3522 48.5419 50.2854C48.4793 49.0691 48.3954 47.8551 48.2903 46.6434C48.365 46.6731 48.4297 46.7248 48.4764 46.7921C48.523 46.8594 48.5496 46.9394 48.5528 47.0222C48.6971 49.1548 48.7838 51.2905 48.8129 53.4295H48.7592L48.5075 53.0637C48.4489 52.9766 48.3623 52.9139 48.2632 52.8869C48.1641 52.8598 48.0589 52.8702 47.9665 52.916Z" fill="black"/>
<path d="M48.0344 53.8682L47.787 53.5033C47.6192 53.2539 47.7551 53.0116 47.9665 52.916C47.9665 53.1601 47.9749 53.4051 47.9774 53.6493L48.7592 53.4303H48.8129C48.8129 53.5033 48.8129 53.5771 48.8129 53.6501C48.8157 53.7047 48.8075 53.7592 48.789 53.8103C48.7706 53.8615 48.7421 53.9081 48.7054 53.9473C48.6687 53.9865 48.6246 54.0175 48.5758 54.0383C48.5271 54.059 48.4747 54.0691 48.422 54.068C48.3299 54.0185 48.2349 53.975 48.1376 53.9377C48.115 53.9299 48.0915 53.922 48.068 53.916C48.0556 53.9009 48.0444 53.885 48.0344 53.8682Z" fill="black"/>
<path d="M47.8239 48.8658C47.8463 49.2932 47.8662 49.7204 47.8835 50.1472L47.7031 50.2897C47.6769 49.7945 47.6489 49.2999 47.6193 48.8058C47.691 48.8095 47.761 48.83 47.8239 48.8658Z" fill="black"/>
<path d="M47.9036 50.6624C47.3575 50.4183 47.2132 49.8075 47.1906 49.2194C47.1797 48.9301 47.3986 48.7911 47.6159 48.8015C47.6489 49.2955 47.6768 49.7902 47.6998 50.2854L47.8801 50.1429C47.891 50.3158 47.8986 50.4886 47.9036 50.6624Z" fill="black"/>
<path d="M46.2519 46.9779C45.9577 47.1668 45.6664 47.3599 45.3778 47.5574C45.4924 47.2087 45.5786 46.8507 45.6353 46.4871L46.2519 46.9779Z" fill="black"/>
<path d="M44.8996 54.6319C45.1186 54.5128 45.3409 54.3938 45.5707 54.2843C45.5648 54.3852 45.5237 54.4803 45.455 54.5519C45.2385 54.7917 45.0162 55.0254 44.7839 55.2469C44.6455 55.0584 44.6396 54.7735 44.8996 54.6319Z" fill="black"/>
<path d="M45.3778 47.5574C44.7344 49.5139 43.2505 51.0612 41.5887 52.2001C39.359 53.7283 36.6395 54.8629 33.9224 54.6153C33.4174 54.5666 32.9153 54.4895 32.4183 54.3842C33.5577 54.3549 34.6894 54.1828 35.7889 53.8717C36.9623 53.5401 38.0887 53.0506 39.1392 52.4156C40.291 51.7206 41.2951 50.8092 42.3143 49.9248C43.2914 49.0762 44.3142 48.2858 45.3778 47.5574Z" fill="#589968"/>
<path d="M45.1556 29.294C45.1774 29.3809 45.2168 29.4521 45.1321 29.3687H45.1187C45.1329 29.3449 45.1453 29.3199 45.1556 29.294Z" fill="black"/>
<path d="M45.1178 28.884C45.1588 28.9417 45.1842 29.0098 45.1913 29.0811C45.1983 29.1525 45.1869 29.2245 45.1581 29.2897H45.153C45.1497 29.2762 45.1472 29.2626 45.1455 29.2488C45.1312 29.122 45.1237 29.0012 45.1178 28.884Z" fill="black"/>
<path d="M45.1555 29.2948V29.2827H45.1611C45.1609 29.2873 45.1589 29.2917 45.1555 29.2948Z" fill="black"/>
<path d="M45.127 28.4956C45.5498 30.0878 45.9362 31.6901 46.2863 33.3026C47.2367 37.6992 47.907 42.1557 48.2929 46.6434C48.0412 46.534 47.6922 46.6591 47.7166 47.0222C47.758 47.6344 47.7946 48.2475 47.8265 48.8614C47.7625 48.8252 47.6913 48.8047 47.6184 48.8015C47.5457 47.6756 47.4543 46.5517 47.3441 45.4298C46.8335 40.2439 45.938 35.1064 44.6656 30.0629C44.7733 30.1119 44.8949 30.1164 45.0056 30.0756C45.1163 30.0347 45.2078 29.9515 45.2612 29.8431C45.3258 29.7136 45.351 29.5312 45.2612 29.4044L45.2411 29.3757C45.2168 29.3431 45.1887 29.3139 45.1572 29.2888C45.186 29.2236 45.1975 29.1516 45.1904 29.0803C45.1833 29.009 45.158 28.9409 45.117 28.8831C45.117 28.8727 45.117 28.8622 45.117 28.8518C45.1119 28.7198 45.1111 28.5912 45.117 28.4565C45.1211 28.4693 45.1245 28.4824 45.127 28.4956Z" fill="black"/>
<path d="M44.7444 29.2619L45.1186 29.3653C44.9944 29.5581 44.7402 29.6615 44.5314 29.4912V29.4287L44.7444 29.2619Z" fill="black"/>
<path d="M45.0767 28.8284C44.9956 28.6894 44.9148 28.7568 44.8343 29.0308L44.3712 28.758C44.4369 28.6947 44.4826 28.6122 44.5022 28.5215C44.5218 28.4308 44.5145 28.3361 44.4811 28.2498C44.5224 28.226 44.566 28.2068 44.6111 28.1924C44.7113 28.1635 44.8182 28.1742 44.9112 28.2224C45.0043 28.2705 45.0767 28.3527 45.1144 28.4531C45.1144 28.5851 45.1144 28.7137 45.1144 28.8484C45.1144 28.8588 45.1144 28.8692 45.1144 28.8796C45.103 28.8617 45.0904 28.8446 45.0767 28.8284Z" fill="black"/>
<path d="M44.7244 29.2569L44.7664 29.2454L44.7449 29.2623L44.7244 29.2569Z" fill="black"/>
<path d="M45.2587 29.4052C45.3485 29.5321 45.3233 29.7145 45.2587 29.844C45.2053 29.9524 45.1138 30.0356 45.0031 30.0764C44.8924 30.1173 44.7707 30.1128 44.6631 30.0638C44.6212 29.8952 44.5784 29.7267 44.5348 29.5581V29.4921C44.7403 29.6659 44.9945 29.559 45.122 29.3661H45.1354C45.2193 29.453 45.1807 29.38 45.1589 29.2914C45.1594 29.2891 45.1594 29.2868 45.1589 29.2845C45.1903 29.3096 45.2185 29.3388 45.2428 29.3714L45.2587 29.4052Z" fill="black"/>
<path d="M44.5179 29.4452L44.5392 29.4044V29.4292L44.5179 29.4452Z" fill="black"/>
<path d="M44.5354 29.4921V29.5581C44.5285 29.5295 44.5207 29.5017 44.5129 29.4713C44.52 29.4787 44.5275 29.4857 44.5354 29.4921Z" fill="black"/>
<path d="M44.3711 28.758L44.8342 29.0308C44.9147 28.7574 44.9955 28.6899 45.0766 28.8284C45.0915 28.845 45.1053 28.8627 45.1177 28.8814C45.1236 29.0012 45.1311 29.122 45.1454 29.2419C45.1471 29.2557 45.1496 29.2693 45.153 29.2827C45.1027 29.2447 45.0457 29.2174 44.9851 29.2025C44.9246 29.1876 44.8618 29.1853 44.8004 29.1959C44.739 29.2064 44.6802 29.2294 44.6276 29.2638C44.5749 29.2981 44.5294 29.3429 44.4936 29.3957C44.4408 29.1932 44.3879 28.9899 44.3342 28.7875C44.3472 28.7786 44.3595 28.7687 44.3711 28.758Z" fill="black"/>
<path d="M45.1555 29.294C45.145 29.3188 45.1327 29.3426 45.1186 29.3653L44.7445 29.2619L44.7654 29.2454L44.7243 29.2567L44.7445 29.2619L44.5348 29.4287V29.4052L44.5146 29.4452L44.5348 29.4296V29.4921C44.5271 29.4862 44.5198 29.4798 44.5129 29.473C44.5071 29.4478 44.5004 29.4226 44.4937 29.3965C44.5294 29.3438 44.5749 29.2989 44.6276 29.2646C44.6803 29.2303 44.739 29.2072 44.8004 29.1967C44.8618 29.1862 44.9246 29.1885 44.9852 29.2034C45.0457 29.2183 45.1028 29.2456 45.153 29.2836L45.1555 29.294Z" fill="black"/>
<path d="M44.4811 28.2498C44.4667 28.1998 44.4424 28.1535 44.4098 28.1137C44.3773 28.074 44.3371 28.0416 44.2918 28.0188C44.2466 27.9959 44.1973 27.983 44.1469 27.9809C44.0966 27.9788 44.0465 27.9875 43.9996 28.0065C43.4875 28.1778 42.9449 28.2283 42.4116 28.1542C42.4456 28.0621 42.5114 27.9862 42.5962 27.9413C42.9518 27.734 43.3296 27.5704 43.7219 27.454C44.0323 27.3671 44.4559 27.2229 44.7663 27.3775C45.0909 27.5391 45.1354 27.8866 45.1203 28.2211C45.1203 28.2993 45.1153 28.3775 45.1136 28.4548C45.0758 28.3545 45.0034 28.2723 44.9104 28.2241C44.8174 28.1759 44.7104 28.1653 44.6103 28.1942C44.5655 28.2081 44.5222 28.2267 44.4811 28.2498Z" fill="black"/>
<path d="M44.4735 29.4313C44.4793 29.4189 44.486 29.407 44.4936 29.3957C44.5004 29.4217 44.5071 29.4469 44.5129 29.4721C44.5025 29.463 44.4927 29.4531 44.4836 29.4426L44.4735 29.4313Z" fill="black"/>
<path d="M44.5129 29.4721C44.5205 29.5008 44.528 29.5286 44.5347 29.559V29.8396L44.5146 29.8101C44.4722 29.7576 44.4457 29.6934 44.4383 29.6254C44.431 29.5574 44.4433 29.4886 44.4735 29.4278L44.4836 29.4391C44.4926 29.4508 44.5024 29.4618 44.5129 29.4721Z" fill="black"/>
<path d="M44.3343 28.7875C44.388 28.9899 44.4408 29.1932 44.4936 29.3957C44.486 29.4069 44.4793 29.4189 44.4735 29.4313C44.4017 29.3496 44.3416 29.2578 44.2948 29.1585C44.2948 29.1055 44.2898 29.0542 44.2864 29.0073C44.2864 28.9456 44.2789 28.8831 44.2772 28.8214C44.297 28.8115 44.3161 28.8002 44.3343 28.7875Z" fill="black"/>
<path d="M44.3712 28.758C44.3596 28.7687 44.3473 28.7786 44.3343 28.7875L44.3184 28.7267L44.3712 28.758Z" fill="black"/>
<path d="M44.3343 28.7875C44.3161 28.8002 44.297 28.8115 44.2773 28.8214C44.2722 28.6981 44.2705 28.5738 44.2773 28.4504C44.3277 28.3652 44.3996 28.2958 44.4853 28.2498C44.5186 28.3361 44.526 28.4308 44.5064 28.5215C44.4868 28.6122 44.4411 28.6947 44.3754 28.758L44.3225 28.7267L44.3343 28.7875Z" fill="black"/>
<path d="M44.5389 29.983C44.3309 29.7988 44.3091 29.4478 44.2948 29.1585C44.3415 29.2578 44.4017 29.3496 44.4735 29.4313C44.4432 29.4921 44.431 29.5609 44.4383 29.6289C44.4456 29.6969 44.4722 29.7611 44.5146 29.8136L44.5347 29.8431V29.5573C44.5783 29.7258 44.6211 29.8944 44.6631 30.0629C44.618 30.0429 44.5762 30.0159 44.5389 29.983Z" fill="black"/>
<path d="M44.29 28.0387C44.29 28.1768 44.3488 28.1881 44.2822 28.2063C44.2848 28.1507 44.2883 28.0943 44.29 28.0387Z" fill="black"/>
<path d="M44.2772 28.8214C44.2772 28.8831 44.2822 28.9456 44.2864 29.0073C44.2864 29.0542 44.2915 29.1055 44.2948 29.1585C44.2485 29.0621 44.2176 28.9585 44.2034 28.8518L44.2227 28.8449C44.2413 28.8383 44.2595 28.8304 44.2772 28.8214Z" fill="black"/>
<path d="M44.2731 28.4496C44.2731 28.5729 44.2731 28.6972 44.2731 28.8205C44.2554 28.8296 44.2372 28.8374 44.2185 28.844L44.1992 28.851C44.1784 28.7124 44.2045 28.5705 44.2731 28.4496Z" fill="black"/>
<path d="M41.4436 27.9561C41.7612 28.0467 42.0847 28.1129 42.4117 28.1542C42.2993 28.4757 42.6432 28.9066 43.0198 28.6911C43.3735 28.4861 43.7534 28.3337 44.1481 28.2385C44.2169 28.222 44.2588 28.2141 44.2823 28.2063C44.2823 28.2376 44.2781 28.268 44.2773 28.2993C44.2773 28.3497 44.2773 28.4001 44.2773 28.4505C44.2102 28.572 44.1856 28.7137 44.2077 28.8518C43.1876 29.1993 42.0963 29.0542 41.0812 28.7528C40.8482 28.6854 40.6198 28.6018 40.3976 28.5026L40.4815 28.3071C40.558 28.3379 40.6415 28.3456 40.7221 28.3293C40.8027 28.313 40.8772 28.2734 40.937 28.215C41.0366 28.1214 41.1061 27.9982 41.1358 27.8623C41.2339 27.8962 41.3396 27.9283 41.4436 27.9561Z" fill="black"/>
<path d="M42.2933 30.8587C42.1994 30.3114 43.0081 30.0768 43.102 30.6276L44.1036 36.4779C44.1975 37.0253 43.3889 37.2598 43.2949 36.709L42.2933 30.8587Z" fill="black"/>
<path d="M44.2773 28.2993C44.2773 28.268 44.2773 28.2376 44.2823 28.2063C44.3469 28.1881 44.2823 28.1768 44.2898 28.0386C44.2898 28.0942 44.2848 28.1507 44.2823 28.2063C44.2588 28.2141 44.2169 28.222 44.1481 28.2385C43.7533 28.3337 43.3735 28.4861 43.0198 28.6911C42.6432 28.9065 42.2992 28.4756 42.4116 28.1542C42.945 28.2282 43.4875 28.1778 43.9996 28.0065C44.0465 27.9875 44.0967 27.9788 44.147 27.9809C44.1973 27.983 44.2466 27.9959 44.2919 28.0187C44.3371 28.0416 44.3773 28.0739 44.4099 28.1137C44.4424 28.1535 44.4667 28.1998 44.4811 28.2497C44.3954 28.2958 44.3235 28.3652 44.2731 28.4504C44.2739 28.4 44.2756 28.3497 44.2773 28.2993Z" fill="black"/>
<path d="M41.5316 39.0226C41.6226 38.9818 41.7239 38.9733 41.82 38.9985C41.916 39.0236 42.0014 39.081 42.0626 39.1616C42.0237 39.1874 41.9809 39.2065 41.936 39.218C41.315 39.3851 40.6839 39.5085 40.0469 39.5873C40.5512 39.4266 41.0468 39.2381 41.5316 39.0226Z" fill="black"/>
<path d="M40.7649 30.5798C41.1693 30.5555 41.3521 31.2054 40.9763 31.3895L40.7809 31.4842L40.7649 31.4486L40.5527 30.6398C40.3033 30.762 40.0516 30.8764 39.7977 30.9829C39.8124 30.8837 39.8597 30.7928 39.9317 30.7256C40.0038 30.6585 40.096 30.6192 40.1928 30.6146L40.7649 30.5798Z" fill="#81EA97"/>
<path d="M40.9888 27.7658L40.9646 27.7346C40.9689 27.725 40.9724 27.7146 40.9767 27.705C40.981 27.7259 40.9845 27.7459 40.9888 27.7658Z" fill="black"/>
<path d="M40.7843 28.1959C40.8363 28.063 40.8883 27.9353 40.9403 27.7971C40.9689 27.8084 40.9982 27.8189 41.0242 27.8275C41.0245 27.8995 41.0054 27.9701 40.9691 28.0315C40.9328 28.0929 40.8807 28.1426 40.8187 28.1751L40.7843 28.1959Z" fill="black"/>
<path d="M40.3682 27.5104C40.3649 27.5416 40.3542 27.5714 40.3371 27.5973L40.4781 27.5782C40.6253 27.6649 40.7801 27.7374 40.9403 27.7945C40.8883 27.9283 40.8362 28.0604 40.7842 28.1933L40.8211 28.1716C40.8832 28.1391 40.9353 28.0894 40.9716 28.0281C41.0079 27.9667 41.027 27.896 41.0267 27.8241L41.129 27.8579C41.0993 27.9939 41.0299 28.117 40.9302 28.2107C40.8704 28.269 40.7959 28.3087 40.7153 28.325C40.6347 28.3413 40.5513 28.3336 40.4747 28.3028C40.4571 28.2958 40.4395 28.2871 40.4219 28.2784C40.3558 28.246 40.2984 28.1974 40.2546 28.1369C40.2107 28.0763 40.1818 28.0056 40.1702 27.9309C40.1506 27.8471 40.1544 27.7593 40.1811 27.6776C40.2078 27.5959 40.2564 27.5238 40.3212 27.4696C40.3346 27.4878 40.3514 27.4991 40.3682 27.5104Z" fill="black"/>
<path d="M40.8169 27.5356C40.8656 27.6025 40.9151 27.6677 40.9646 27.7346C40.957 27.7554 40.9486 27.7763 40.9402 27.7971C40.78 27.74 40.6253 27.6676 40.478 27.5808L40.8169 27.5356Z" fill="black"/>
<path d="M40.7952 27.5061L40.8455 27.5321H40.817L40.7952 27.5061Z" fill="black"/>
<path d="M40.5527 30.6398L40.7649 31.4486L40.1928 31.4833C39.885 31.5024 39.7541 31.2279 39.7977 30.9829C40.0522 30.8769 40.3038 30.7625 40.5527 30.6398Z" fill="#81EA97"/>
<path d="M40.817 27.5356L40.4815 27.5808C40.4437 27.5591 40.4068 27.5356 40.3716 27.5104C40.3749 27.4878 40.3783 27.4627 40.3816 27.4349C40.3884 27.4316 40.3948 27.4278 40.4009 27.4236C40.7273 27.2342 41.0292 27.533 41.0301 27.8276C41.0016 27.8189 40.9722 27.8084 40.9462 27.7971C40.9546 27.7763 40.963 27.7554 40.9705 27.7346L40.994 27.7659C40.9898 27.7459 40.9865 27.7259 40.9823 27.705C40.9823 27.7146 40.9747 27.725 40.9705 27.7346C40.921 27.6677 40.8715 27.6025 40.8229 27.5356H40.8514L40.8011 27.5096L40.817 27.5356Z" fill="black"/>
<path d="M40.4219 28.2828C40.4395 28.2915 40.4571 28.3002 40.4747 28.3071L40.3908 28.5026C39.8447 28.2567 39.3523 27.8944 39.1124 27.3063C38.9035 26.7972 39.6266 26.3506 39.8364 26.8675C39.9382 27.1128 40.1044 27.3235 40.3162 27.4757C40.2514 27.5299 40.2028 27.602 40.1761 27.6837C40.1494 27.7653 40.1456 27.8532 40.1652 27.937C40.1775 28.0119 40.2074 28.0826 40.2521 28.1429C40.2968 28.2031 40.3551 28.2512 40.4219 28.2828Z" fill="black"/>
<path d="M41.191 27.407C41.1788 27.5596 41.1581 27.7113 41.129 27.8614L41.0266 27.8275C41.0266 27.533 40.7238 27.2342 40.3975 27.4235C40.3914 27.4278 40.3849 27.4316 40.3782 27.4349C40.3941 27.2776 40.3958 27.0604 40.4034 26.9961C40.4336 26.7563 40.468 26.5166 40.4872 26.2768C40.525 25.8763 40.5342 25.4688 40.3195 25.1161C39.8866 24.3959 39.0394 24.3212 38.3297 24.5705C38.3459 24.263 38.3633 23.956 38.3817 23.6496C39.3623 23.4055 40.4218 23.7139 41.0099 24.6252C41.3597 25.1682 41.3756 25.8033 41.306 26.4305C41.2758 26.7572 41.2313 27.0821 41.191 27.407Z" fill="black"/>
<path d="M40.3187 27.4748C40.3318 27.4637 40.3459 27.4538 40.3607 27.4453L40.3783 27.4349C40.3749 27.4627 40.3716 27.4878 40.3682 27.5104C40.3514 27.4991 40.3347 27.4879 40.3187 27.4748Z" fill="black"/>
<path d="M40.3372 27.5999C40.3543 27.574 40.3649 27.5442 40.3682 27.513C40.4034 27.5382 40.4403 27.5617 40.4781 27.5834L40.3372 27.5999Z" fill="black"/>
<path d="M39.7978 30.9829C39.7542 31.2279 39.8817 31.5042 40.1929 31.4833L40.765 31.4486L40.7809 31.4842C36.1295 33.6874 30.8606 33.1914 25.9793 32.1679C25.45 32.0567 25.6748 31.2192 26.2025 31.3304C30.6467 32.2626 35.5045 32.7813 39.7978 30.9829Z" fill="#81EA97"/>
<path d="M38.7366 19.0338C38.7395 19.0023 38.7395 18.9706 38.7366 18.9391C38.7831 19.0189 38.8132 19.1077 38.8251 19.2001C38.8369 19.2925 38.8302 19.3864 38.8053 19.476C38.776 19.5819 38.7304 19.6822 38.6703 19.7731C38.6921 19.5264 38.7139 19.2805 38.7366 19.0338Z" fill="black"/>
<path d="M38.6174 18.7063C38.6513 18.7349 38.6792 18.7703 38.6997 18.8102C38.7201 18.8502 38.7327 18.894 38.7365 18.9391C38.7042 18.8868 38.6653 18.8391 38.6208 18.7975C38.6208 18.7671 38.6199 18.7367 38.6174 18.7063Z" fill="black"/>
<path d="M38.235 18.6324C38.2999 18.614 38.3681 18.611 38.4343 18.6237C38.5005 18.6363 38.5631 18.6642 38.6175 18.7054C38.6175 18.7358 38.6175 18.7662 38.6175 18.7966C38.5115 18.6988 38.3767 18.641 38.235 18.6324Z" fill="black"/>
<path d="M38.235 18.6324C38.3779 18.6402 38.514 18.6981 38.6209 18.7966C38.6208 18.8294 38.6192 18.8622 38.6158 18.8948C38.5772 19.3075 38.0999 19.4161 37.8818 19.2093C37.8869 19.1502 37.8927 19.092 37.8978 19.0355C37.9046 18.9397 37.9411 18.8487 38.0019 18.7761C38.0626 18.7035 38.1444 18.6531 38.235 18.6324Z" fill="black"/>
<path d="M37.9371 19.3361L38.3272 19.4552C38.2559 19.4928 38.1757 19.5086 38.096 19.5006C38.0163 19.4926 37.9405 19.4612 37.8776 19.41L37.9371 19.3361Z" fill="black"/>
<path d="M38.0537 24.6565C38.1045 24.6549 38.1546 24.6434 38.2014 24.6226H38.2089L38.2584 24.7399L38.12 24.779C38.1106 24.7477 38.0961 24.7184 38.0772 24.6921C38.0696 24.6765 38.0587 24.6661 38.0537 24.6565Z" fill="black"/>
<path d="M37.7233 24.3933C37.8536 24.447 37.9669 24.5372 38.0504 24.6539C37.976 24.653 37.9039 24.6271 37.8449 24.5801C37.7859 24.5331 37.7432 24.4675 37.7233 24.3933Z" fill="black"/>
<path d="M38.0118 25.2134C38.0649 25.1571 38.1028 25.0873 38.1218 25.0111C38.1408 24.9349 38.1402 24.8549 38.12 24.779L38.2584 24.7399L38.2089 24.6226C38.2509 24.6044 38.2928 24.5879 38.3364 24.5731L38.3163 24.9597C38.3029 25.2204 38.0303 25.4254 37.8004 25.3941C37.8717 25.3342 37.9422 25.2751 38.0118 25.2134Z" fill="black"/>
<path d="M38.6208 18.7975C38.6653 18.8391 38.7043 18.8868 38.7366 18.9391C38.7395 18.9706 38.7395 19.0023 38.7366 19.0338C38.7139 19.2805 38.6921 19.5264 38.6703 19.7731C38.5433 19.9536 38.4052 20.1254 38.2568 20.2874C38.089 20.4864 37.9212 20.6827 37.7417 20.866C37.7786 20.3871 37.8189 19.9081 37.8625 19.4291L37.8776 19.41C37.9406 19.4612 38.0164 19.4926 38.096 19.5006C38.1757 19.5086 38.2559 19.4928 38.3272 19.4552L37.9372 19.3361L37.8776 19.41L37.865 19.3996C37.87 19.3361 37.8759 19.2736 37.8818 19.2102C38.0999 19.4143 38.5772 19.3083 38.6158 18.8957C38.6191 18.8631 38.6208 18.8303 38.6208 18.7975Z" fill="black"/>
<path d="M38.235 18.6324C38.1451 18.6533 38.064 18.7034 38.0036 18.7755C37.9432 18.8476 37.9067 18.9378 37.8994 19.033C37.8944 19.092 37.8885 19.1502 37.8835 19.2067C37.8428 19.1669 37.812 19.1176 37.7938 19.0628C37.7755 19.008 37.7703 18.9495 37.7787 18.8922C37.7829 18.8611 37.7829 18.8295 37.7787 18.7984C37.8157 18.7584 37.8595 18.7257 37.9078 18.7019C38.0097 18.6511 38.1221 18.6272 38.235 18.6324Z" fill="black"/>
<path d="M37.8626 19.4297C37.8617 19.4197 37.8617 19.4096 37.8626 19.3996L37.8758 19.4102L37.8626 19.4297Z" fill="black"/>
<path d="M37.5094 24.3533C37.4988 24.5537 37.4881 24.7564 37.4775 24.9615L38.1201 24.7808C38.1402 24.8566 38.1408 24.9367 38.1218 25.0129C38.1029 25.0891 38.0649 25.1588 38.0119 25.2151C37.9422 25.2768 37.8718 25.3359 37.8005 25.3941C37.7415 25.3865 37.6856 25.3623 37.6388 25.3242C37.5921 25.2861 37.5563 25.2354 37.5354 25.1778C37.4867 25.0631 37.4381 24.9484 37.3903 24.8303C37.3995 24.753 37.4096 24.6748 37.4188 24.5974C37.3886 24.6244 37.3576 24.6513 37.3265 24.6765C37.2913 24.5802 37.2898 24.4741 37.3223 24.3768C37.3835 24.3609 37.4463 24.353 37.5094 24.3533Z" fill="black"/>
<path d="M38.209 24.62H38.2015C38.1547 24.6408 38.1046 24.6523 38.0538 24.6539C37.9703 24.5373 37.857 24.447 37.7267 24.3933C37.6883 24.2809 37.6883 24.1582 37.7267 24.0458C37.7982 24.0406 37.8693 24.06 37.9292 24.1008C37.989 24.1416 38.0343 24.2016 38.058 24.2716C38.1109 24.3872 38.1603 24.5036 38.209 24.62Z" fill="black"/>
<path d="M37.865 19.3996C37.6905 19.2527 37.6192 18.9799 37.7744 18.8018C37.7786 18.833 37.7786 18.8645 37.7744 18.8957C37.7661 18.953 37.7713 19.0115 37.7895 19.0663C37.8078 19.121 37.8386 19.1704 37.8793 19.2102C37.8759 19.2736 37.87 19.3361 37.865 19.3996Z" fill="black"/>
<path d="M38.5117 26.0674C38.7634 26.6278 38.4488 27.1577 37.9103 27.3515C37.7291 27.4166 37.5303 27.4288 37.3524 27.5078C37.1932 27.593 37.0416 27.6928 36.8995 27.8058C36.6472 27.9839 36.3691 28.1191 36.0757 28.2063C34.6799 28.6094 33.0189 28.3636 31.6541 27.95C31.1365 27.7937 31.358 26.9553 31.8772 27.1126C32.9642 27.4485 34.1021 27.572 35.2327 27.4766C35.7202 27.4401 36.1891 27.2671 36.5891 26.9762C36.7828 26.8331 36.9956 26.7198 37.2208 26.6399C37.3306 26.6034 37.4481 26.5913 37.5563 26.553C37.6997 26.5035 37.7509 26.4193 37.7887 26.5044C37.5647 26.0005 38.2878 25.5592 38.5117 26.0674Z" fill="black"/>
<path d="M38.0588 24.2716C38.035 24.2016 37.9898 24.1416 37.9299 24.1008C37.8701 24.06 37.7989 24.0406 37.7274 24.0458C37.7488 23.9862 37.7824 23.932 37.8258 23.887C37.8693 23.8421 37.9215 23.8073 37.9791 23.7851C38.1123 23.7291 38.2494 23.6838 38.3893 23.6496C38.3708 23.9566 38.3535 24.2635 38.3373 24.5705C38.2945 24.5853 38.2534 24.6018 38.2098 24.62C38.1603 24.5036 38.1108 24.3872 38.0588 24.2716Z" fill="black"/>
<path d="M37.73 24.0458C37.6559 24.0507 37.5844 24.0758 37.5228 24.1187C37.5821 23.0333 37.6551 21.9491 37.7418 20.866C37.923 20.6827 38.0916 20.4864 38.2568 20.2874C38.4053 20.1254 38.5434 19.9536 38.6704 19.7731C38.5585 21.0641 38.4646 22.3563 38.3885 23.6496C38.2486 23.6838 38.1115 23.7291 37.9783 23.7851C37.9214 23.8077 37.8698 23.8427 37.827 23.8876C37.7841 23.9326 37.7511 23.9865 37.73 24.0458Z" fill="black"/>
<path d="M37.5094 24.3533C37.5136 24.2751 37.5178 24.1969 37.5228 24.1187C37.5844 24.0758 37.6559 24.0507 37.73 24.0458C37.6916 24.1582 37.6916 24.2809 37.73 24.3933C37.6596 24.3654 37.5847 24.3519 37.5094 24.3533Z" fill="black"/>
<path d="M37.5093 24.3533C37.5835 24.3523 37.6572 24.3658 37.7266 24.3933C37.7465 24.4675 37.7892 24.5331 37.8482 24.58C37.9072 24.627 37.9793 24.653 38.0537 24.6539C38.0621 24.6635 38.0696 24.6739 38.0772 24.6843C38.0961 24.7105 38.1106 24.7399 38.12 24.7712L37.4774 24.9519C37.4875 24.7538 37.4981 24.5543 37.5093 24.3533Z" fill="black"/>
<path d="M37.418 24.5992C37.4087 24.6765 37.3987 24.7547 37.3894 24.832C37.3718 24.7912 37.3542 24.7503 37.3374 24.7095C37.3374 24.6991 37.329 24.6887 37.3257 24.6782C37.3567 24.653 37.3878 24.627 37.418 24.5992Z" fill="black"/>
<path d="M37.5346 25.2195C37.4818 25.2352 37.4264 25.2395 37.372 25.2321C37.3175 25.2248 37.2651 25.206 37.2179 25.1768C37.1707 25.1477 37.1298 25.1088 37.0977 25.0627C37.0656 25.0165 37.043 24.964 37.0312 24.9085C37.1319 24.8363 37.2301 24.759 37.3257 24.6782C37.3257 24.6887 37.3332 24.6991 37.3374 24.7095C37.3542 24.7503 37.3718 24.7912 37.3894 24.832C37.3769 24.9302 37.3651 25.0275 37.3525 25.1256L37.5346 25.2195Z" fill="black"/>
<path d="M37.5093 24.3533C37.4459 24.3535 37.3828 24.362 37.3214 24.3785C37.358 24.2704 37.429 24.1785 37.5227 24.1179C37.5177 24.1969 37.5135 24.2795 37.5093 24.3533Z" fill="black"/>
<path d="M37.3215 24.3785C37.2889 24.4758 37.2904 24.5819 37.3257 24.6782C37.23 24.759 37.1319 24.8363 37.0312 24.9085C37.0135 24.8548 37.0068 24.798 37.0115 24.7415C37.0162 24.685 37.0323 24.6302 37.0586 24.5806C37.085 24.5309 37.1211 24.4875 37.1647 24.4532C37.2082 24.4188 37.2582 24.3943 37.3114 24.3811L37.3215 24.3785Z" fill="black"/>
<path d="M37.5345 25.2195L37.3525 25.1257C37.365 25.0275 37.3768 24.9302 37.3894 24.832C37.4372 24.9467 37.4858 25.0614 37.5345 25.1795C37.5554 25.2372 37.5912 25.2878 37.6379 25.3259C37.6847 25.364 37.7405 25.3882 37.7996 25.3958C36.8152 26.1955 35.6231 26.6731 34.3754 26.7676C33.727 26.8162 33.0753 26.7549 32.446 26.5861C31.7908 26.4123 31.176 26.1065 30.5376 25.8754C30.5646 25.5724 30.5685 25.2677 30.5493 24.9641C31.7489 25.3524 32.8184 25.9501 34.1162 25.9128C35.1621 25.8807 36.1761 25.5329 37.0337 24.9119C37.0459 24.9669 37.0687 25.0187 37.1008 25.0643C37.1329 25.1098 37.1736 25.1482 37.2204 25.1769C37.2673 25.2057 37.3192 25.2243 37.3732 25.2316C37.4272 25.2389 37.4821 25.2348 37.5345 25.2195Z" fill="black"/>
<path d="M34.2395 39.4639C36.1688 39.7046 38.1234 39.8305 40.0469 39.5873C39.1639 39.8691 38.2569 40.0623 37.3382 40.1641C35.918 40.3205 34.4861 40.2067 33.0659 40.3535C30.452 40.6229 27.9925 41.7679 25.377 41.9842C25.6566 40.7523 25.9787 39.5325 26.3433 38.3249C28.9731 38.7107 31.5996 39.1355 34.2395 39.4639Z" fill="#589968"/>
<path d="M28.8666 53.4651C30.036 53.7639 31.2221 54.1358 32.4183 54.3842C31.1247 54.4177 29.8328 54.2651 28.5797 53.9307C28.4954 53.9104 28.4197 53.8622 28.3641 53.7935C28.3751 53.737 28.3969 53.6835 28.4284 53.6361C28.46 53.5887 28.5004 53.5484 28.5474 53.5177C28.5944 53.487 28.6469 53.4665 28.7018 53.4575C28.7567 53.4484 28.8127 53.451 28.8666 53.4651Z" fill="black"/>
<path d="M30.109 24.9684C30.1568 24.9355 30.2113 24.9145 30.2682 24.9071C30.3251 24.8998 30.3829 24.9061 30.437 24.9258L30.5469 24.9606C30.566 25.2642 30.5621 25.5689 30.5351 25.8719L30.4135 25.8294H30.5142C30.4604 25.6875 30.4389 25.5347 30.4513 25.3828C30.4566 25.332 30.4518 25.2806 30.4372 25.2318C30.4227 25.183 30.3986 25.1378 30.3666 25.099C30.3345 25.0602 30.2951 25.0286 30.2508 25.0061C30.2065 24.9836 30.1583 24.9708 30.109 24.9684Z" fill="black"/>
<path d="M30.2147 25.7633C29.8288 25.6434 29.8548 25.1448 30.109 24.9684C30.1583 24.9708 30.2065 24.9837 30.2508 25.0061C30.2951 25.0286 30.3345 25.0602 30.3666 25.099C30.3986 25.1378 30.4227 25.183 30.4372 25.2318C30.4518 25.2806 30.4566 25.332 30.4513 25.3828C30.4389 25.5347 30.4604 25.6875 30.5142 25.8294H30.4135C30.3481 25.8059 30.2818 25.7842 30.2147 25.7633Z" fill="black"/>
<path d="M29.8573 20.6428C29.895 20.681 29.9336 20.7175 29.9731 20.754C31.0149 21.7174 32.4057 22.1362 33.7756 22.2309C35.1454 22.3256 36.5287 22.0015 37.5731 21.0328C37.629 20.9796 37.6849 20.9248 37.7409 20.8687C37.6553 21.9517 37.5823 23.0359 37.5219 24.1213C37.4282 24.182 37.3572 24.2739 37.3206 24.382H37.3105C37.2573 24.3951 37.2073 24.4197 37.1638 24.454C37.1203 24.4884 37.0841 24.5318 37.0578 24.5814C37.0314 24.6311 37.0153 24.6859 37.0106 24.7424C37.0059 24.7988 37.0126 24.8557 37.0304 24.9093C36.1736 25.5293 35.1608 25.8768 34.1162 25.9093C32.8185 25.9466 31.7489 25.3489 30.5494 24.9606C30.5015 24.0918 30.3027 23.223 30.1568 22.3751L29.8573 20.6428Z" fill="#513C2A"/>
<path d="M30.1089 24.9684C29.8573 25.1422 29.8287 25.6435 30.2146 25.7633C30.2817 25.7842 30.348 25.8059 30.4134 25.8294H29.7046C29.7356 25.5849 29.7468 25.3382 29.7381 25.0918C29.7878 25.0449 29.8466 25.0095 29.9106 24.9883C29.9745 24.967 30.0422 24.9602 30.1089 24.9684Z" fill="black"/>
<path d="M29.9068 24.1396C30.4034 24.3029 30.2138 25.0952 29.734 24.991C29.7168 24.6775 29.6818 24.3654 29.6292 24.0562C29.7239 24.0814 29.8162 24.11 29.9068 24.1396Z" fill="black"/>
<path d="M29.838 18.6776C29.9093 18.7905 30.1517 18.6116 30.2667 18.569C30.4501 18.5007 30.6349 18.4367 30.8211 18.377C31.1466 18.2736 31.4771 18.1859 31.8102 18.1164C32.5603 17.9543 33.3247 17.8728 34.091 17.8731C34.833 17.8699 35.5733 17.945 36.3005 18.0973C36.6562 18.1729 37.7023 18.2997 37.7719 18.8053C37.6167 18.9834 37.688 19.2562 37.8625 19.403C37.8617 19.4129 37.8617 19.4227 37.8625 19.4326L37.8013 19.5082C37.74 19.5837 37.6788 19.6584 37.6167 19.7323C37.4775 19.8991 37.3357 20.0633 37.1847 20.2179C36.8837 20.5381 36.5308 20.8009 36.142 20.9946C35.3459 21.3777 34.4299 21.429 33.5676 21.3421C32.6901 21.2553 31.806 21.0094 31.0569 20.5194C30.7167 20.2979 30.4126 20.022 30.1559 19.7019C30.0269 19.5395 29.9129 19.365 29.8154 19.1806C29.7793 19.1137 29.7441 19.0442 29.713 18.9738C29.753 18.9365 29.7848 18.8908 29.8064 18.8397C29.8279 18.7886 29.8387 18.7334 29.838 18.6776Z" fill="#6D5441"/>
<path d="M37.6167 19.7288C37.6788 19.655 37.74 19.5803 37.8013 19.5047L37.8625 19.4291C37.8189 19.9075 37.7786 20.3865 37.7417 20.866C37.6858 20.924 37.6299 20.9787 37.5739 21.0303C36.5296 21.9989 35.1513 22.3204 33.7764 22.2283C32.4016 22.1362 31.0158 21.7174 29.9739 20.7514C29.9345 20.7149 29.8959 20.6784 29.8582 20.6402C29.7664 20.105 29.6747 19.5701 29.583 19.0355C29.6311 19.0256 29.676 19.0035 29.7139 18.9712C29.7449 19.0416 29.7801 19.1111 29.8162 19.178C29.9138 19.3624 30.0278 19.5369 30.1568 19.6993C30.4135 20.0194 30.7176 20.2953 31.0577 20.5168C31.8077 21.0068 32.691 21.2561 33.5684 21.3395C34.4308 21.4221 35.3468 21.3717 36.1429 20.992C36.5316 20.7983 36.8846 20.5354 37.1856 20.2153C37.3357 20.0598 37.4775 19.8956 37.6167 19.7288Z" fill="black"/>
<path d="M29.7382 25.0918C29.7468 25.3382 29.7356 25.5849 29.7046 25.8294H30.4134L30.5351 25.8719C30.5292 25.9345 30.5225 25.997 30.5141 26.0596C30.452 26.5278 29.8279 26.4132 29.7046 26.0596C29.6284 25.8432 29.5969 25.6126 29.6123 25.3828C29.6165 25.2726 29.6616 25.1684 29.7382 25.0918Z" fill="black"/>
<path d="M29.6577 18.8375C29.6694 18.8714 29.6837 18.9061 29.6979 18.94L29.713 18.9739C29.6752 19.0061 29.6303 19.0282 29.5822 19.0381C29.5822 19.0156 29.5746 18.993 29.5704 18.9704C29.6078 18.9326 29.6375 18.8874 29.6577 18.8375Z" fill="black"/>
<path d="M29.6577 18.8375C29.6384 18.8871 29.6099 18.9322 29.5738 18.9704C29.5662 18.9226 29.5578 18.8757 29.5494 18.8279L29.6107 18.7653C29.5931 18.6454 29.5981 18.6341 29.6241 18.7306C29.6316 18.7662 29.6434 18.8062 29.6577 18.8375Z" fill="black"/>
<path d="M29.6955 18.6646C29.6979 18.6061 29.6875 18.5479 29.6651 18.4942C29.6428 18.4405 29.609 18.3927 29.5663 18.3544L29.573 18.3475L29.8196 18.6029C29.8198 18.629 29.8271 18.6546 29.8406 18.6767C29.841 18.7327 29.8298 18.7881 29.8078 18.8392C29.7858 18.8903 29.7535 18.9359 29.7131 18.973L29.698 18.9391C29.6837 18.9052 29.6695 18.8705 29.6577 18.8366C29.6761 18.7924 29.6877 18.7455 29.6921 18.6976C29.6938 18.6872 29.6946 18.6759 29.6955 18.6646Z" fill="black"/>
<path d="M29.4749 19.0468C29.5104 19.0267 29.5426 19.0009 29.5705 18.9704C29.5747 18.993 29.5789 19.0156 29.5822 19.0381C29.547 19.0461 29.5109 19.049 29.4749 19.0468Z" fill="black"/>
<path d="M29.573 18.3475L29.4001 18.1685L29.4421 18.1746C29.5576 18.1904 29.663 18.2511 29.7369 18.3443C29.8109 18.4375 29.8479 18.5563 29.8405 18.6767C29.8271 18.6546 29.8198 18.629 29.8196 18.6029L29.573 18.3475Z" fill="black"/>
<path d="M29.5461 18.8279C29.5544 18.8757 29.5628 18.9226 29.5704 18.9704C29.5425 19.0009 29.5103 19.0267 29.4748 19.0468H29.442L29.4001 19.0407L29.3514 19.0329C29.4185 18.9626 29.4815 18.8931 29.5461 18.8279Z" fill="black"/>
<path d="M29.3549 19.0599L29.3137 19.0688L29.3257 19.0564L29.3549 19.0599Z" fill="black"/>
<path d="M29.5461 18.8279L29.4933 18.5177C29.4856 18.4413 29.4537 18.3697 29.4025 18.3141C29.3514 18.2584 29.2839 18.2219 29.2106 18.2102C29.3089 18.2049 29.4063 18.2327 29.4882 18.2893C29.5161 18.3085 29.5422 18.3303 29.5662 18.3544C29.6089 18.3927 29.6427 18.4405 29.6651 18.4942C29.6875 18.5479 29.6978 18.6061 29.6954 18.6646C29.6954 18.6759 29.6954 18.6872 29.6954 18.6984C29.691 18.7464 29.6794 18.7933 29.661 18.8375C29.6468 18.8018 29.635 18.7662 29.6241 18.7306C29.5981 18.6341 29.5931 18.6437 29.6107 18.7653L29.5461 18.8279Z" fill="black"/>
<path d="M37.9036 18.7054C37.8553 18.7292 37.8115 18.7618 37.7744 18.8018C37.7048 18.2962 36.6587 18.1694 36.3031 18.0938C35.5758 17.9415 34.8355 17.8664 34.0935 17.8696C33.3272 17.8693 32.5629 17.9508 31.8127 18.1129C31.4771 18.1859 31.1491 18.2736 30.8237 18.3735C30.6374 18.4315 30.4526 18.4955 30.2692 18.5655C30.1543 18.6081 29.9118 18.7871 29.8405 18.6741C29.8479 18.5537 29.8109 18.4349 29.7369 18.3417C29.6629 18.2485 29.5576 18.1878 29.4421 18.172L29.4001 18.1659L29.5729 18.3449L29.5662 18.3518C29.5422 18.3277 29.5161 18.3059 29.4882 18.2867C29.4063 18.2301 29.3089 18.2024 29.2105 18.2076C29.1774 18.2028 29.1438 18.2028 29.1107 18.2076C29.2701 18.0234 29.5469 17.9313 29.7734 17.8392C30.2492 17.6458 30.7371 17.4862 31.2339 17.3614C32.1948 17.1183 33.1807 16.9975 34.1699 17.0017C35.1824 17.005 36.1904 17.1434 37.1688 17.4135C37.7912 17.5873 38.5688 17.9739 38.6208 18.708C38.5665 18.6669 38.5038 18.6389 38.4376 18.6263C38.3714 18.6136 38.3033 18.6166 38.2383 18.635C38.1228 18.6288 38.0076 18.653 37.9036 18.7054Z" fill="black"/>
<path d="M29.2106 18.2102C29.2839 18.2219 29.3514 18.2584 29.4026 18.3141C29.4537 18.3697 29.4856 18.4413 29.4933 18.5177L29.5461 18.8279C29.4815 18.8957 29.4161 18.9626 29.3515 19.0295C29.2508 19.0157 29.1582 18.9651 29.0902 18.8869C29.0223 18.8087 28.9835 18.708 28.9807 18.6029C28.9697 18.4697 29.0084 18.3372 29.089 18.2328C29.1283 18.2196 29.1692 18.212 29.2106 18.2102Z" fill="black"/>
<path d="M29.2105 18.2102C29.1692 18.212 29.1282 18.2196 29.0889 18.2328C29.0957 18.2234 29.103 18.2144 29.1107 18.2059C29.144 18.2025 29.1776 18.204 29.2105 18.2102Z" fill="black"/>
<path d="M29.0302 19.0155H29.0533L29.0653 19.0369L29.0302 19.0155Z" fill="black"/>
<path d="M29.0528 19.019L29.3255 19.0564L29.3137 19.0686L29.354 19.0599H29.3255L29.3515 19.0329L29.4001 19.0407L29.4421 19.0468H29.4748C29.2122 19.2015 28.8138 19.0868 28.8532 18.6993C28.8532 18.688 28.8532 18.6767 28.8532 18.6654L29.0495 19.0199H29.0268L29.0612 19.0442L29.0528 19.019Z" fill="black"/>
<path d="M29.3255 19.0564L29.0528 19.019L28.8565 18.6646C28.8565 18.6759 28.8565 18.6872 28.8565 18.6985C28.8171 19.0868 29.2156 19.2015 29.4781 19.046C29.5141 19.0481 29.5503 19.0452 29.5855 19.0373C29.6778 19.5724 29.7695 20.1073 29.8607 20.6419C29.435 20.224 29.1006 19.7165 28.88 19.1537C28.7911 18.9226 28.6997 18.668 28.8406 18.4335C28.8984 18.3379 28.9879 18.2675 29.0923 18.2354C29.0117 18.3398 28.973 18.4723 28.984 18.6055C28.9868 18.7106 29.0256 18.8114 29.0935 18.8895C29.1615 18.9677 29.2541 19.0183 29.3548 19.0321L29.3255 19.0564Z" fill="black"/>
<path d="M29.7341 24.991C30.2139 25.0918 30.4051 24.3029 29.9069 24.1396C29.8163 24.11 29.724 24.0814 29.6292 24.0527C29.5302 23.4446 29.3859 22.8408 29.2878 22.2674C29.0865 21.0934 28.8854 19.9194 28.6846 18.7454C28.674 18.6801 28.6769 18.6132 28.6932 18.5491C28.7094 18.4851 28.7387 18.4254 28.7791 18.374C28.8194 18.3226 28.8698 18.2807 28.927 18.2511C28.9842 18.2215 29.0469 18.2049 29.1108 18.2024C29.1031 18.211 29.0958 18.22 29.089 18.2293C28.9846 18.2614 28.8951 18.3318 28.8373 18.4274C28.6964 18.662 28.7878 18.9165 28.8767 19.1476C29.0959 19.7114 29.4292 20.22 29.854 20.6393L30.151 22.3716C30.2969 23.2239 30.4957 24.0892 30.5435 24.9571L30.4337 24.9223C30.3795 24.9027 30.3217 24.8963 30.2648 24.9037C30.2079 24.9111 30.1534 24.932 30.1057 24.9649C30.0389 24.9567 29.9713 24.9635 29.9073 24.9848C29.8433 25.0061 29.7845 25.0414 29.7349 25.0883C29.7374 25.0614 29.7357 25.024 29.7341 24.991Z" fill="black"/>
<path d="M37.9103 27.3515C38.4489 27.1577 38.7593 26.6278 38.5118 26.0674C38.2878 25.5592 37.5647 26.0005 37.7879 26.5018C37.7501 26.4149 37.6989 26.5018 37.5555 26.5504C37.4465 26.5878 37.329 26.6 37.22 26.6373C36.9948 26.7172 36.7821 26.8304 36.5883 26.9735C36.1883 27.2645 35.7194 27.4375 35.2319 27.474C34.1013 27.5693 32.9634 27.4459 31.8764 27.1099C31.3572 26.9527 31.1357 27.7911 31.6533 27.9474C33.0181 28.361 34.6791 28.6068 36.0749 28.2037C36.3683 28.1164 36.6464 27.9813 36.8987 27.8032C37.0408 27.6901 37.1924 27.5904 37.3517 27.5052C37.5303 27.4288 37.7291 27.4166 37.9103 27.3515ZM33.3906 55.4207C34.9005 55.6327 36.4105 55.4615 37.8583 54.9993C40.3749 54.1975 42.9116 52.7023 44.6287 50.6051C45.5439 49.4878 46.2184 48.1725 46.4449 46.7182C46.4994 46.3707 46.1672 46.011 45.8283 46.2273L45.5766 46.3907C44.5348 47.0708 43.5287 47.808 42.5626 48.5991C41.5057 49.4678 40.5251 50.4339 39.406 51.2158C37.8655 52.2852 36.1241 53.0052 34.2961 53.3287C32.4681 53.6523 30.5947 53.572 28.7987 53.0932C28.3717 52.9794 28.1444 53.5163 28.36 53.7935C28.3435 53.8462 28.338 53.902 28.3436 53.9571C28.3493 54.0122 28.3661 54.0655 28.3929 54.1135C28.4197 54.1615 28.4559 54.2031 28.4992 54.2357C28.5426 54.2682 28.592 54.291 28.6443 54.3026C30.213 54.704 31.7875 55.1948 33.3906 55.4207ZM43.295 36.709C43.3889 37.2581 44.1976 37.0253 44.1036 36.4779L43.102 30.6276C43.0081 30.0785 42.1994 30.3114 42.2934 30.8587L43.295 36.709ZM42.0627 39.1616C42.4142 38.9288 42.1885 38.2511 41.7137 38.3797C39.2676 39.0434 36.7259 38.9009 34.2395 38.5951C31.65 38.272 29.0688 37.8532 26.4868 37.4744C26.4202 37.4635 26.3521 37.4688 26.2877 37.4898C26.2234 37.5107 26.1646 37.5468 26.116 37.5952C26.0639 37.5786 26.0091 37.5729 25.9548 37.5783C25.9005 37.5838 25.8477 37.6003 25.7996 37.627C25.7515 37.6536 25.709 37.6898 25.6744 37.7336C25.6399 37.7773 25.6141 37.8277 25.5985 37.8819C25.1511 39.3484 24.7646 40.8322 24.4392 42.3335C24.3821 42.6002 24.5591 42.8921 24.8435 42.8834C27.7744 42.7965 30.4756 41.4186 33.383 41.1936C34.8535 41.0798 36.3266 41.178 37.7921 40.9764C39.2262 40.7736 40.6269 40.3687 41.9553 39.7732C42.2363 39.6481 42.2204 39.3536 42.0627 39.1616ZM39.1149 27.3063C39.3548 27.891 39.8473 28.2567 40.3934 28.5026C40.6156 28.6018 40.844 28.6854 41.077 28.7528C42.092 29.0543 43.1834 29.2028 44.2034 28.8518C44.2177 28.9585 44.2485 29.0621 44.2949 29.1585C44.3091 29.4478 44.3309 29.7988 44.539 29.983C44.5762 30.016 44.6181 30.0429 44.6631 30.0629C45.9355 35.1064 46.8309 40.2439 47.3416 45.4298C47.4534 46.5522 47.5449 47.6761 47.6159 48.8015C47.3986 48.7911 47.1797 48.9301 47.1906 49.2194C47.2132 49.8075 47.3584 50.4183 47.9036 50.6624C47.9321 51.4153 47.9531 52.1666 47.9665 52.916C47.7551 53.0116 47.6176 53.254 47.787 53.5033L48.0345 53.8682C48.0454 53.8845 48.0574 53.8999 48.0706 53.9142C47.9664 53.8838 47.8605 53.8603 47.7535 53.8439C47.4351 53.7962 47.1115 53.8012 46.7947 53.8586C46.3686 53.9408 45.9556 54.0838 45.5674 54.2835C45.5859 53.936 45.148 53.611 44.8586 53.936C42.7036 56.3294 39.8632 57.9645 36.7905 58.6994C33.5865 59.4645 30.2321 59.1795 27.1914 57.8837C25.1715 57.0297 23.3025 55.8325 21.4478 54.6553C21.1727 54.4815 20.9118 54.6762 20.8438 54.9255C20.8161 54.9255 20.7893 54.9255 20.7599 54.9211C20.6008 54.916 20.4416 54.9262 20.2843 54.9516V53.7674C20.3174 53.7595 20.3495 53.7475 20.3799 53.7318C21.3866 53.2105 21.4881 51.8778 21.6214 50.8561C21.8018 49.4722 21.9075 48.0761 21.9805 46.686C22.1298 43.8564 22.1482 41.0164 22.4603 38.1972C22.6282 36.5825 22.9308 34.9858 23.3646 33.4251C23.3818 33.3707 23.3876 33.3132 23.3817 33.2563C23.3757 33.1994 23.3582 33.1445 23.3302 33.0952C23.3021 33.0459 23.2643 33.0033 23.2192 32.9703C23.1741 32.9373 23.1227 32.9146 23.0685 32.9038C23.281 31.9887 23.5024 31.0768 23.7328 30.168C23.7806 30.1801 23.8301 30.1827 23.8788 30.1759C25.1782 30.0169 26.8031 29.7067 27.7753 28.7406C27.8197 28.7225 27.8598 28.6945 27.8927 28.6587C27.9256 28.6228 27.9505 28.5799 27.9657 28.533C28.3078 28.1207 28.5257 27.6135 28.5923 27.0743C28.6586 26.5895 28.0328 26.3489 27.8374 26.6834C27.8021 26.3185 27.7602 25.9414 27.8038 25.5783C27.9338 24.5106 28.953 24.7399 29.6812 24.978C29.6976 24.9837 29.7144 24.9883 29.7315 24.9919C29.7315 25.0249 29.7315 25.0588 29.7357 25.0927C29.6591 25.1693 29.6141 25.2735 29.6099 25.3837C29.5945 25.6135 29.6259 25.8441 29.7021 26.0605C29.8254 26.414 30.4496 26.5287 30.5116 26.0605C30.52 25.9979 30.5267 25.9354 30.5326 25.8728C31.171 26.1039 31.7859 26.4071 32.441 26.5835C33.0703 26.7523 33.722 26.8136 34.3704 26.765C35.6181 26.6705 36.8103 26.1929 37.7946 25.3932C38.0244 25.4237 38.2979 25.2195 38.3105 24.9589L38.3306 24.5723C39.0403 24.3229 39.8875 24.3985 40.3204 25.1178C40.5318 25.4705 40.5225 25.878 40.4881 26.2785C40.4655 26.5183 40.4311 26.7581 40.4043 26.9979C40.3967 27.0622 40.395 27.2794 40.3791 27.4366L40.3615 27.447C40.3467 27.4555 40.3326 27.4654 40.3195 27.4766C40.1078 27.3243 39.9416 27.1136 39.8397 26.8684C39.6292 26.355 38.9061 26.7989 39.1149 27.3063ZM40.9764 31.3895C41.3513 31.2053 41.1693 30.5555 40.765 30.5798L40.1929 30.6146C40.0961 30.6192 40.0038 30.6585 39.9318 30.7256C39.8597 30.7928 39.8124 30.8837 39.7978 30.9829C35.5045 32.7813 30.6467 32.2626 26.2083 31.3304C25.6807 31.2192 25.4533 32.0567 25.9852 32.1679C30.864 33.1914 36.1353 33.6874 40.7843 31.4842L40.9764 31.3895Z" fill="#73C98C"/>
<path d="M28.5798 53.9307C29.8342 54.2655 31.1275 54.4182 32.4226 54.3842C32.9195 54.4895 33.4216 54.5666 33.9266 54.6153C36.6412 54.8629 39.3633 53.7283 41.5929 52.2001C43.2547 51.0612 44.7386 49.5139 45.382 47.5574C45.6706 47.3593 45.962 47.1662 46.2561 46.9779L45.6396 46.4871L45.5809 46.3906L45.8325 46.2273C46.1681 46.011 46.5036 46.3689 46.4491 46.7182C46.2226 48.1751 45.5481 49.4878 44.6329 50.6051C42.9158 52.7023 40.3783 54.1975 37.8625 54.9993C36.4122 55.4615 34.9014 55.6327 33.3948 55.4207C31.7917 55.1948 30.2172 54.704 28.6486 54.3026C28.5962 54.291 28.5468 54.2682 28.5035 54.2357C28.4601 54.2031 28.4239 54.1615 28.3971 54.1135C28.3703 54.0655 28.3535 54.0122 28.3479 53.9571C28.3422 53.902 28.3477 53.8462 28.3642 53.7935C28.4198 53.8622 28.4954 53.9104 28.5798 53.9307Z" fill="black"/>
<path d="M28.36 53.7935C28.1444 53.5163 28.3717 52.9794 28.7987 53.0932C30.5947 53.572 32.4681 53.6523 34.2961 53.3287C36.1241 53.0052 37.8655 52.2852 39.406 51.2158C40.525 50.4339 41.5032 49.4635 42.5626 48.5991C43.5287 47.808 44.5348 47.0708 45.5766 46.3906L45.6354 46.4871C45.5786 46.8507 45.4924 47.2087 45.3778 47.5574C44.3142 48.2858 43.2914 49.0762 42.3143 49.9248C41.2951 50.8092 40.291 51.7171 39.1393 52.4156C38.0887 53.0506 36.9623 53.5401 35.7889 53.8717C34.6895 54.1828 33.5577 54.3549 32.4183 54.3842C31.2221 54.1358 30.036 53.7639 28.8666 53.4651C28.8125 53.4503 28.756 53.4472 28.7006 53.456C28.6453 53.4647 28.5922 53.4851 28.5447 53.5158C28.4973 53.5466 28.4564 53.5871 28.4246 53.6349C28.3928 53.6826 28.3708 53.7366 28.36 53.7935Z" fill="black"/>
<path d="M27.9858 28.3627C27.9422 27.8588 27.8988 27.3549 27.8558 26.851C27.8507 26.7963 27.8457 26.7407 27.8398 26.6851C28.0361 26.3506 28.6619 26.5913 28.5948 27.076C28.5281 27.6153 28.3103 28.1224 27.9682 28.5347C27.9856 28.4793 27.9916 28.4207 27.9858 28.3627Z" fill="black"/>
<path d="M27.7778 28.7415C27.8447 28.6757 27.9083 28.6064 27.9683 28.5339C27.9531 28.5808 27.9282 28.6237 27.8953 28.6595C27.8624 28.6954 27.8223 28.7234 27.7778 28.7415Z" fill="black"/>
<path d="M27.787 26.8423C27.7935 26.7858 27.8115 26.7313 27.8398 26.6825C27.8457 26.7381 27.8507 26.7937 27.8558 26.8484C27.8994 27.3523 27.9427 27.8562 27.9858 28.3601C27.9921 28.4186 27.9863 28.4778 27.969 28.5339C27.909 28.6064 27.8455 28.6757 27.7786 28.7415C27.5403 28.8458 27.1788 28.7172 27.1478 28.3601C27.1427 28.2967 27.1369 28.2324 27.131 28.169C27.4934 27.8203 27.7256 27.3506 27.787 26.8423Z" fill="black"/>
<path d="M27.8399 26.6825C27.8116 26.7313 27.7936 26.7858 27.787 26.8424C27.7254 27.3508 27.4929 27.8205 27.1302 28.169C27.0765 27.5556 27.0161 26.9423 26.9725 26.328C26.9356 25.8111 26.9381 25.2551 27.1654 24.7799C27.6478 23.7738 28.7207 23.8077 29.6292 24.0562C29.6818 24.3654 29.7168 24.6775 29.734 24.991C29.717 24.9875 29.7002 24.9828 29.6837 24.9771C28.9556 24.7391 27.9363 24.5097 27.8063 25.5774C27.7627 25.9406 27.8046 26.3176 27.8399 26.6825Z" fill="black"/>
<path d="M27.7778 28.7415C26.8056 29.7076 25.1773 30.0177 23.8813 30.1767C23.8326 30.1836 23.7831 30.1809 23.7354 30.1689C23.8041 29.8944 23.8754 29.6207 23.9467 29.347C23.9509 29.3305 23.9543 29.314 23.9568 29.2984C25.0129 29.1663 26.34 28.9387 27.1302 28.169C27.1361 28.2324 27.1419 28.2967 27.147 28.3601C27.178 28.7172 27.5396 28.8458 27.7778 28.7415Z" fill="black"/>
<path d="M34.2394 38.5951C36.7258 38.9053 39.2675 39.0434 41.7137 38.3797C42.1884 38.2511 42.4141 38.9287 42.0626 39.1616C42.0013 39.0809 41.916 39.0236 41.82 38.9984C41.7239 38.9733 41.6225 38.9818 41.5316 39.0226C41.0468 39.238 40.5511 39.4265 40.0468 39.5873C38.1233 39.8305 36.1671 39.7046 34.2394 39.4639C31.6021 39.1346 28.9731 38.7107 26.3433 38.3249C26.3643 38.2537 26.3852 38.1833 26.407 38.113C26.4909 37.8419 26.3232 37.6499 26.116 37.5917C26.1646 37.5433 26.2234 37.5072 26.2877 37.4863C26.352 37.4653 26.4201 37.4601 26.4867 37.4709C29.0687 37.8532 31.6499 38.2719 34.2394 38.5951Z" fill="black"/>
<path d="M26.116 37.5952C26.3224 37.6499 26.4901 37.8419 26.4071 38.1164C26.3853 38.1868 26.3643 38.2572 26.3433 38.3284L26.2636 38.3163C25.8836 38.2572 25.8904 37.8167 26.116 37.5952Z" fill="black"/>
<path d="M41.936 39.2224C41.9809 39.2108 42.0237 39.1918 42.0627 39.1659C42.2204 39.3579 42.2363 39.6524 41.9553 39.7741C40.6269 40.3696 39.2262 40.7744 37.792 40.9773C36.3266 41.1789 34.856 41.0807 33.383 41.1945C30.4755 41.4195 27.7744 42.793 24.8435 42.8843C24.5591 42.893 24.3821 42.6011 24.4391 42.3343C24.7629 40.8331 25.1494 39.3492 25.5984 37.8827C25.6141 37.8286 25.6399 37.7782 25.6744 37.7345C25.7089 37.6907 25.7515 37.6545 25.7996 37.6278C25.8477 37.6012 25.9004 37.5846 25.9547 37.5792C26.009 37.5737 26.0639 37.5795 26.116 37.596C25.8904 37.8176 25.8836 38.2581 26.2636 38.3137L26.3433 38.3258C25.9787 39.5328 25.6566 40.7526 25.377 41.9851C25.1997 42.0002 25.0219 42.0103 24.8435 42.0155L25.2486 42.5654C25.2906 42.372 25.3334 42.1785 25.377 41.9851C27.9925 41.7688 30.4521 40.6237 33.0659 40.3544C34.4861 40.2076 35.918 40.3214 37.3382 40.165C38.2569 40.0632 39.164 39.87 40.0469 39.5881C40.6838 39.5105 41.315 39.3883 41.936 39.2224Z" fill="black"/>
<path d="M25.377 41.9842C25.3334 42.1771 25.2906 42.3705 25.2487 42.5646L24.8435 42.0146C25.0219 42.0094 25.1997 41.9993 25.377 41.9842Z" fill="black"/>
<path d="M23.8822 29.3079L23.9577 29.2984C23.9577 29.314 23.9518 29.3305 23.9476 29.347C23.8763 29.6207 23.805 29.8944 23.7362 30.1689C23.352 30.0742 23.4048 29.3661 23.8822 29.3079Z" fill="black"/>
<path d="M22.5584 33.194C22.5728 33.1395 22.5977 33.0887 22.6315 33.0444C22.6653 33.0002 22.7074 32.9634 22.7553 32.9364C22.8031 32.9094 22.8557 32.8927 22.91 32.8872C22.9642 32.8818 23.019 32.8877 23.0709 32.9047C22.9032 33.635 22.7388 34.3674 22.5777 35.1018C22.1683 36.9882 21.7808 38.8798 21.415 40.7766C21.5719 38.2181 21.8538 35.6761 22.5584 33.194Z" fill="black"/>
<path d="M22.0157 56.0306L22.238 56.0601L22.2087 56.0801C22.1901 56.093 22.1708 56.1046 22.1508 56.1148L22.0157 56.0306Z" fill="black"/>
<path d="M22.2288 56.1635L22.1508 56.1148C22.1708 56.1046 22.1901 56.093 22.2087 56.0801L22.238 56.0601L22.0157 56.0306L21.7196 55.8455C21.7028 55.7778 21.6852 55.7109 21.6676 55.6431L22.0535 55.339C22.1248 55.339 22.0392 55.2904 21.9646 55.2521C22.0294 55.2441 22.0952 55.2511 22.1571 55.2725C22.2191 55.294 22.2756 55.3295 22.3227 55.3764C22.3891 55.44 22.4369 55.5215 22.4607 55.6118C22.4846 55.7021 22.4836 55.7975 22.4578 55.8872C22.4433 55.9487 22.415 56.0057 22.3752 56.0537C22.3354 56.1017 22.2853 56.1393 22.2288 56.1635Z" fill="black"/>
<path d="M21.9636 55.2539C21.9317 55.2383 21.9015 55.2244 21.8881 55.2165C21.7847 55.1602 21.6773 55.1119 21.5668 55.0723C21.3339 54.9879 21.0903 54.9387 20.8438 54.9264C20.9117 54.677 21.1726 54.4815 21.4477 54.6562C23.3024 55.8334 25.1714 57.0305 27.1914 57.8845C30.2321 59.1803 33.5864 59.4654 36.7904 58.7003C39.8631 57.9653 42.7035 56.3303 44.8585 53.9368C45.1521 53.611 45.5858 53.9368 45.5673 54.2843C45.3409 54.3947 45.1186 54.5137 44.8963 54.6319C44.6362 54.7726 44.6446 55.0584 44.7797 55.2487C43.6507 56.3592 42.3731 57.2955 40.9864 58.0288C38.0629 59.5769 34.6949 60.2676 31.4234 59.8992C28.052 59.5196 25.085 57.9306 22.2237 56.1635C22.2799 56.1395 22.33 56.1022 22.3698 56.0545C22.4095 56.0068 22.4379 55.9501 22.4527 55.889C22.4785 55.7993 22.4795 55.7038 22.4556 55.6136C22.4317 55.5233 22.3839 55.4417 22.3176 55.3781C22.2705 55.3312 22.214 55.2958 22.152 55.2743C22.0901 55.2528 22.0243 55.2458 21.9594 55.2539H21.9636Z" fill="black"/>
<path d="M21.7582 55.9958C21.7456 55.9454 21.733 55.8959 21.7196 55.8455L22.0157 56.0306L21.7582 55.9958Z" fill="black"/>
<path d="M21.7296 55.9897H21.7588L21.7682 56.0261L21.7296 55.9897Z" fill="black"/>
<path d="M22.1508 56.1148C21.8857 56.2452 21.6474 56.028 21.6005 55.7673L21.7196 55.8421C21.733 55.8924 21.7456 55.942 21.7582 55.9924H21.7296L21.7674 56.0314L21.7582 55.9958L22.0157 56.0306L22.1508 56.1148Z" fill="black"/>
<path d="M21.6004 55.7708C21.5848 55.6866 21.594 55.5994 21.6269 55.5206C21.6599 55.4419 21.7149 55.3753 21.785 55.3295L21.8144 55.3095C21.8593 55.2793 21.9104 55.2603 21.9637 55.2539C22.0383 55.2904 22.1239 55.3356 22.0526 55.3408L21.6667 55.6448C21.6667 55.6335 21.6608 55.6222 21.6583 55.6109L21.6483 55.6596L21.6667 55.6448C21.6843 55.7126 21.7019 55.7795 21.7187 55.8473L21.6004 55.7708Z" fill="black"/>
<path d="M21.6681 55.6422L21.649 55.657L21.6594 55.6084C21.662 55.6205 21.6655 55.6318 21.6681 55.6422Z" fill="black"/>
<path d="M21.9637 55.2539C21.9105 55.2603 21.8594 55.2793 21.8144 55.3095L21.785 55.3295C21.715 55.3753 21.6599 55.4419 21.627 55.5206C21.5941 55.5994 21.5848 55.6866 21.6005 55.7708L21.0242 55.4059C20.9454 55.3597 20.8845 55.2867 20.8517 55.1994C20.8188 55.112 20.816 55.0156 20.8438 54.9264C21.0904 54.9387 21.3339 54.9879 21.5669 55.0723C21.6774 55.1119 21.7848 55.1602 21.8882 55.2165C21.9016 55.2244 21.9318 55.2383 21.9637 55.2539Z" fill="black"/>
<path d="M22.1508 56.1148L22.2288 56.1635C22.1735 56.1892 22.114 56.2042 22.0535 56.2078C21.676 56.2286 21.3589 55.8698 20.9756 55.8082C20.7418 55.7714 20.5033 55.782 20.2734 55.8394C20.2823 55.804 20.2868 55.7675 20.2869 55.7308V54.9489C20.4442 54.9236 20.6034 54.9134 20.7625 54.9185C20.7893 54.9185 20.8162 54.9185 20.8464 54.9229C20.8186 55.0121 20.8213 55.1085 20.8542 55.1959C20.887 55.2832 20.948 55.3562 21.0267 55.4024L21.603 55.7673C21.645 56.0262 21.8857 56.2452 22.1508 56.1148Z" fill="black"/>
<path d="M20.4077 52.5233C20.4349 52.5689 20.454 52.6192 20.4639 52.6719L20.5746 53.2418L19.9589 52.9812C20.1505 52.8802 20.3073 52.7203 20.4077 52.5233Z" fill="black"/>
<path d="M20.4076 52.5233C20.2885 52.3287 20.0343 52.3183 19.8523 52.4365C19.7684 50.0734 20.1299 47.6903 20.5527 45.369C20.8323 43.837 21.1198 42.3068 21.4151 40.7784C21.2423 43.6079 21.2238 46.4593 20.9612 49.2741C20.8908 50.0325 20.8077 50.7919 20.6844 51.5434C20.6299 51.87 20.5653 52.2306 20.4076 52.5233Z" fill="#73C98C"/>
<path d="M20.4076 52.5233C20.3075 52.7209 20.1507 52.8814 19.9588 52.9829L20.5745 53.2435L20.4638 52.6736C20.4539 52.621 20.4349 52.5707 20.4076 52.5251C20.5653 52.2323 20.6299 51.8717 20.6844 51.5434C20.8078 50.7919 20.8908 50.0325 20.9613 49.2741C21.2238 46.4593 21.2423 43.6079 21.4151 40.7784C21.7825 38.8827 22.1701 36.9911 22.5777 35.1035C22.7371 34.3691 22.9015 33.6367 23.071 32.9064C23.1252 32.9172 23.1766 32.9399 23.2217 32.9729C23.2668 33.0059 23.3047 33.0485 23.3327 33.0978C23.3607 33.1471 23.3782 33.202 23.3842 33.2589C23.3901 33.3158 23.3843 33.3733 23.3671 33.4277C22.9333 34.9884 22.6307 36.5851 22.4628 38.1998C22.1541 41.019 22.1323 43.859 21.983 46.6886C21.91 48.083 21.8043 49.4757 21.624 50.8587C21.4906 51.8804 21.3924 53.2123 20.3825 53.7344C20.352 53.7501 20.3199 53.7621 20.2868 53.77V53.6831C20.2883 53.6293 20.2794 53.5757 20.2607 53.5255C20.242 53.4752 20.2138 53.4293 20.1778 53.3905C20.1418 53.3516 20.0988 53.3205 20.0511 53.299C20.0034 53.2775 19.9521 53.266 19.9001 53.2652C19.8772 52.9896 19.8612 52.7133 19.8523 52.4365C20.0343 52.3183 20.2885 52.3287 20.4076 52.5233Z" fill="black"/>
<path d="M19.9001 53.2635C19.9521 53.2643 20.0035 53.2758 20.0511 53.2973C20.0988 53.3188 20.1419 53.3499 20.1779 53.3887C20.2138 53.4276 20.242 53.4735 20.2607 53.5237C20.2794 53.574 20.2883 53.6276 20.2869 53.6814V53.7683C20.1713 53.7984 20.0489 53.783 19.9438 53.7248C19.927 53.5711 19.9127 53.4173 19.9001 53.2635Z" fill="black"/>
<path d="M20.2868 53.7683V54.9524C20.2356 54.9602 20.1845 54.9707 20.1341 54.9811C20.0503 54.5641 19.9899 54.1445 19.9437 53.7248C20.0489 53.783 20.1712 53.7984 20.2868 53.7683Z" fill="black"/>
<path d="M19.6686 56.0975C19.8563 55.9794 20.0602 55.8915 20.2734 55.8368C20.2054 56.1166 19.8766 56.2243 19.6543 56.1035L19.6686 56.0975Z" fill="black"/>
<path d="M20.2751 55.6153L19.4513 55.7308V55.233C19.6688 55.1192 19.8994 55.0346 20.1375 54.9811C20.1752 55.1931 20.2205 55.4042 20.2751 55.6153Z" fill="black"/>
<path d="M19.729 53.2835C19.7831 53.2656 19.8401 53.2588 19.8968 53.2635C19.9094 53.4173 19.9236 53.5711 19.9404 53.7248C19.8947 53.699 19.855 53.663 19.8243 53.6194C19.7936 53.5759 19.7725 53.5259 19.7626 53.4729C19.7533 53.4103 19.7416 53.3469 19.729 53.2835Z" fill="black"/>
<path d="M19.8557 52.4347C19.8646 52.7116 19.8805 52.9878 19.9035 53.2635C19.8468 53.2588 19.7898 53.2656 19.7357 53.2835C19.7114 53.1567 19.6862 53.0298 19.6619 52.903C19.6425 52.8137 19.6507 52.7204 19.6855 52.6363C19.7203 52.5523 19.7799 52.4817 19.8557 52.4347Z" fill="black"/>
<path d="M19.7659 53.4703C19.7758 53.5232 19.7969 53.5733 19.8276 53.6168C19.8584 53.6604 19.898 53.6964 19.9437 53.7222C19.9899 54.1418 20.0528 54.5615 20.1341 54.9785C19.896 55.032 19.6654 55.1166 19.448 55.2304V53.6788C19.4444 53.5893 19.4702 53.5012 19.5212 53.4289C19.5723 53.3566 19.6455 53.3044 19.729 53.2809C19.7416 53.3469 19.7533 53.4103 19.7659 53.4703Z" fill="black"/>
<path d="M19.4622 55.8464C19.4742 55.9016 19.4975 55.9535 19.5307 55.9985C19.5639 56.0435 19.606 56.0805 19.6543 56.107C19.1955 56.3677 18.7878 55.6318 19.2458 55.3486C19.2768 55.3295 19.3079 55.3104 19.3398 55.293C19.3767 55.4777 19.4175 55.6622 19.4622 55.8464Z" fill="black"/>
<path d="M19.4622 55.8464C19.4175 55.6622 19.3766 55.4774 19.3397 55.2921C19.375 55.2713 19.411 55.2513 19.4479 55.233V55.7291L20.2717 55.6135C20.2205 55.4024 20.1752 55.1913 20.1341 54.9794C20.1844 54.9689 20.2356 54.9585 20.2868 54.9507V55.7326C20.2868 55.7692 20.2822 55.8057 20.2734 55.8412C20.0602 55.8958 19.8563 55.9837 19.6686 56.1018L19.6543 56.1105C19.6056 56.0836 19.5632 56.0461 19.53 56.0004C19.4968 55.9548 19.4737 55.9023 19.4622 55.8464Z" fill="black"/>
<path d="M19.448 55.233C19.411 55.2513 19.375 55.2713 19.3397 55.2921C18.9891 53.5615 18.9346 51.7857 19.0646 50.023C19.3238 46.514 20.1232 43.0354 20.7985 39.5925C21.4872 36.0792 22.233 32.5771 23.1372 29.1159C23.2748 28.5947 24.039 28.7936 23.9568 29.2984L23.8813 29.3079C23.4048 29.3661 23.352 30.0742 23.7353 30.1689C23.5038 31.0776 23.2824 31.9895 23.071 32.9047C23.019 32.8877 22.9642 32.8818 22.91 32.8872C22.8558 32.8927 22.8031 32.9094 22.7553 32.9364C22.7074 32.9634 22.6653 33.0002 22.6315 33.0444C22.5977 33.0887 22.5728 33.1395 22.5584 33.194C21.8538 35.6761 21.5719 38.2181 21.4151 40.7766C21.1176 42.3051 20.8301 43.8353 20.5527 45.3672C20.1333 47.6886 19.7684 50.0716 19.8523 52.4347C19.7759 52.4812 19.7156 52.5515 19.6802 52.6357C19.6448 52.7198 19.636 52.8134 19.6551 52.903C19.6795 53.0298 19.7046 53.1567 19.729 53.2835C19.6455 53.3071 19.5723 53.3592 19.5212 53.4315C19.4702 53.5038 19.4443 53.5919 19.448 53.6814V55.233Z" fill="black"/>
</g>
<defs>
<clipPath id="clip0_366_2558">
<rect width="30" height="43" fill="white" transform="translate(19 17)"/>
</clipPath>
</defs>
</svg>
