<svg width="70" height="70" viewBox="0 0 70 70" fill="none" xmlns="http://www.w3.org/2000/svg">
<circle cx="35" cy="35" r="35" fill="#B28970"/>
<path d="M57.8376 21.2822L58.3795 21.5932C58.0598 21.7545 57.7665 21.9637 57.5097 22.2136C57.4105 22.2045 57.3133 22.1802 57.2215 22.1415C57.042 22.0643 57.0053 21.8002 57.0925 21.648C57.1086 21.6198 57.1288 21.594 57.1523 21.5715C57.2108 21.5204 57.2833 21.4881 57.3604 21.4787C57.4375 21.4693 57.5156 21.4833 57.5847 21.5189C57.7158 21.5722 57.8419 21.3861 57.8376 21.2822Z" fill="#F72900"/>
<path d="M56.6031 29.5881C56.8654 29.3454 57.1135 29.0877 57.3461 28.8162C57.8822 28.9814 58.3362 29.4417 58.3168 30.0426C58.2836 31.0411 57.0124 31.5324 56.2269 31.0664L56.3653 30.2403C56.3968 30.2601 56.4252 30.2844 56.4496 30.3125C56.7458 30.6587 57.5421 30.5642 57.5969 30.0398C57.6466 29.5571 56.9418 29.3277 56.6031 29.5881Z" fill="black"/>
<path d="M57.5874 21.5175C57.5184 21.4819 57.4403 21.4679 57.3632 21.4772C57.2861 21.4866 57.2136 21.519 57.1551 21.5701L57.1493 21.5636C57.4106 21.3291 57.7013 21.1298 58.0141 20.9706C58.069 20.94 58.131 20.9241 58.1939 20.9245C58.2568 20.9249 58.3185 20.9417 58.373 20.973C58.4276 21.0044 58.4731 21.0494 58.5052 21.1035C58.5372 21.1577 58.5547 21.2193 58.556 21.2823C58.5812 21.8782 58.04 22.2656 57.5074 22.2136C57.7642 21.9638 58.0575 21.7545 58.3773 21.5932L57.8353 21.2823C57.8418 21.3862 57.7157 21.5723 57.5874 21.5175Z" fill="#F72900"/>
<path d="M57.349 22.3803C57.0369 22.7251 56.5289 22.2136 56.8395 21.8702C56.9365 21.7621 57.0398 21.6598 57.1486 21.5636L57.1544 21.5701C57.1309 21.5926 57.1108 21.6183 57.0946 21.6466C57.006 21.7988 57.0442 22.0628 57.2236 22.14C57.3154 22.1788 57.4126 22.2031 57.5118 22.2122C57.4585 22.267 57.4009 22.3226 57.349 22.3803Z" fill="#F72900"/>
<path d="M56.7005 28.7672C56.7243 28.6479 56.7421 28.5276 56.7538 28.4065C56.9346 28.2043 57.1051 27.9931 57.2648 27.7738C58.7204 25.7682 59.3546 23.2504 59.2825 20.7917C59.2004 18.0582 58.2052 15.4257 56.81 13.102C56.0883 11.9106 55.2716 10.7795 54.3678 9.71988C53.4432 8.62835 52.4437 7.57433 51.2871 6.72665C48.9414 5.00747 46.0026 4.42237 43.1741 4.04723C37.8833 3.34059 32.5028 3.7725 27.3921 5.31407C24.8442 6.08505 22.3953 7.15236 20.0956 8.49416C17.84 9.81656 15.676 11.3979 13.9053 13.3343C12.1686 15.2331 10.7915 17.6117 10.7158 20.2435C10.6863 21.5072 10.9312 22.7623 11.4338 23.922C11.9363 25.0816 12.6845 26.1182 13.6265 26.96C13.4134 27.081 13.2386 27.2595 13.122 27.4751C12.6496 27.056 12.2217 26.5891 11.845 26.082C11.0584 25.0208 10.5047 23.8052 10.2202 22.5148C9.93569 21.2244 9.92678 19.8883 10.1941 18.5943C10.7554 15.9459 12.4331 13.6705 14.3622 11.8387C18.3733 8.03099 23.6059 5.4735 28.9364 4.13596C34.3639 2.78478 40.0207 2.63705 45.5111 3.7031C47.0483 4.00178 48.5782 4.39857 49.9892 5.09259C51.3224 5.74837 52.4956 6.69201 53.5391 7.74314C55.5655 9.7848 57.3433 12.2038 58.5316 14.8312C59.6688 17.3462 60.2532 20.1049 59.8951 22.8623C59.6112 25.0417 58.7759 27.1534 57.3455 28.8163C57.1371 28.7503 56.9164 28.7336 56.7005 28.7672Z" fill="black"/>
<path d="M56.7004 28.7672C56.6527 29.0068 56.5837 29.2417 56.4943 29.4691L56.6081 28.7852C56.6384 28.7773 56.6694 28.7715 56.7004 28.7672Z" fill="black"/>
<path d="M56.6083 28.7852L56.6537 28.5168C56.6883 28.48 56.7257 28.4447 56.7538 28.405C56.7421 28.526 56.7243 28.6464 56.7005 28.7657C56.6695 28.7715 56.6385 28.7772 56.6083 28.7852Z" fill="black"/>
<path d="M56.6082 28.7852C56.4615 28.8208 56.3234 28.8858 56.2025 28.9764C56.3582 28.8282 56.5085 28.675 56.6536 28.5168L56.6082 28.7852Z" fill="black"/>
<path d="M56.6009 29.5896C56.58 29.6098 56.5598 29.6293 56.5389 29.648C56.5576 29.6265 56.5784 29.607 56.6009 29.5896Z" fill="black"/>
<path d="M57.3461 28.8162C57.1136 29.0877 56.8655 29.3454 56.6032 29.5881C56.5806 29.6055 56.5599 29.6251 56.5412 29.6466L56.4771 29.5824L56.4965 29.4677C56.586 29.2403 56.655 29.0054 56.7026 28.7657C56.9182 28.7327 57.1384 28.75 57.3461 28.8162Z" fill="black"/>
<path d="M56.5389 29.648C56.5133 29.6718 56.4847 29.6922 56.4539 29.7086L56.4748 29.5838L56.5389 29.648Z" fill="black"/>
<path d="M56.4944 29.4691C56.4819 29.5008 56.4689 29.5326 56.4554 29.5643L56.0295 29.138C56.0879 29.0846 56.1456 29.0312 56.2025 28.9764C56.3234 28.8858 56.4614 28.8208 56.6082 28.7852L56.4944 29.4691Z" fill="black"/>
<path d="M56.4942 29.4691L56.4748 29.5838L56.4553 29.5643C56.4693 29.5326 56.4822 29.5008 56.4942 29.4691Z" fill="black"/>
<path d="M56.3776 29.7396C56.4049 29.6812 56.4309 29.6228 56.4547 29.5643L56.4741 29.5838L56.4532 29.7086C56.4292 29.7217 56.4038 29.7321 56.3776 29.7396Z" fill="black"/>
<path d="M56.3646 30.2389C56.3297 30.2165 56.2903 30.2021 56.2492 30.1968C56.2081 30.1914 56.1663 30.1952 56.1268 30.2079C56.219 30.0564 56.303 29.9001 56.3783 29.7396C56.4034 29.7319 56.4275 29.7215 56.4504 29.7086L56.3646 30.2389Z" fill="black"/>
<path d="M56.1268 30.2079C56.1663 30.1952 56.2081 30.1914 56.2492 30.1968C56.2903 30.2021 56.3297 30.2165 56.3646 30.2389L56.2263 31.0649C56.1176 31.001 56.0202 30.9196 55.938 30.824C55.8874 30.7672 55.8563 30.6956 55.8494 30.6198C55.951 30.4834 56.0425 30.3464 56.1268 30.2079Z" fill="black"/>
<path d="M56.0295 29.1379C56.0812 29.078 56.1392 29.0239 56.2025 28.9763C56.1456 29.0312 56.0894 29.0846 56.0295 29.1379Z" fill="black"/>
<path d="M56.3776 29.7396C56.3307 29.7503 56.2822 29.7516 56.2348 29.7434C56.1874 29.7352 56.1421 29.7178 56.1014 29.692C56.0608 29.6663 56.0257 29.6328 55.998 29.5934C55.9703 29.554 55.9507 29.5096 55.9402 29.4626C55.9431 29.409 55.9431 29.3553 55.9402 29.3017C55.956 29.2413 55.9859 29.1854 56.0274 29.1387L56.4533 29.565C56.4317 29.6227 56.4057 29.6812 56.3776 29.7396Z" fill="black"/>
<path d="M55.8652 28.8624L56.0223 27.9245L56.0519 27.9296C56.0519 27.9599 56.0519 27.9902 56.0519 28.0205C56.0511 28.3509 55.9991 28.6792 55.8977 28.9937C55.889 28.9497 55.8775 28.9057 55.8652 28.8624Z" fill="black"/>
<path d="M55.9451 29.301C55.9394 29.1973 55.9249 29.0942 55.9019 28.9929C56.0033 28.6785 56.0553 28.3502 56.0561 28.0197C56.0561 27.9894 56.0561 27.9591 56.0561 27.9288L56.7371 28.0435L56.6578 28.5168C56.5137 28.6755 56.3633 28.8287 56.2067 28.9764C56.1434 29.0239 56.0854 29.078 56.0337 29.138C55.9918 29.1845 55.9614 29.2404 55.9451 29.301Z" fill="black"/>
<path d="M55.9409 29.4626C55.9513 29.5096 55.971 29.554 55.9987 29.5934C56.0263 29.6328 56.0615 29.6663 56.1021 29.692C56.1428 29.7178 56.1881 29.7352 56.2355 29.7434C56.2829 29.7516 56.3314 29.7503 56.3783 29.7396C56.3029 29.9001 56.219 30.0564 56.1268 30.2078C56.0416 30.236 55.9682 30.2918 55.9182 30.3664C55.8682 30.441 55.8445 30.5302 55.8508 30.6198C55.7427 30.7641 55.6245 30.9134 55.4969 31.0577L55.6728 30.0116C55.8069 29.8916 55.8976 29.7305 55.9308 29.5535C55.9351 29.5232 55.938 29.4929 55.9409 29.4626Z" fill="black"/>
<path d="M55.9451 29.301C55.948 29.3546 55.948 29.4083 55.9451 29.4619C55.9322 29.409 55.9322 29.3538 55.9451 29.301Z" fill="black"/>
<path d="M55.8992 28.9937C55.9222 29.095 55.9366 29.198 55.9424 29.3017C55.9294 29.3546 55.9294 29.4098 55.9424 29.4626C55.9424 29.4929 55.9366 29.5232 55.9323 29.5535C55.8991 29.7305 55.8084 29.8916 55.6743 30.0116L55.7975 29.2722C55.835 29.1791 55.8689 29.086 55.8992 28.9937Z" fill="black"/>
<path d="M56.1267 30.2079C56.0424 30.3464 55.9509 30.4834 55.8507 30.6198C55.8444 30.5302 55.8682 30.441 55.9181 30.3664C55.9681 30.2918 56.0415 30.236 56.1267 30.2079Z" fill="black"/>
<path d="M55.899 28.9937C55.8687 29.0867 55.8348 29.1798 55.7959 29.2729L55.868 28.8631C55.8773 28.9057 55.8889 28.9497 55.899 28.9937Z" fill="black"/>
<path d="M51.2978 60.48C51.2341 60.3709 51.1349 60.287 51.0168 60.2425C50.8987 60.198 50.7689 60.1955 50.6492 60.2354C50.6344 60.2395 50.6199 60.2448 50.606 60.2513L55.4977 31.0577C55.6252 30.9134 55.7434 30.7691 55.8515 30.6198C55.8584 30.6956 55.8895 30.7672 55.9401 30.8239C56.0224 30.9196 56.1197 31.0009 56.2284 31.0649L51.2978 60.48Z" fill="black"/>
<path d="M55.27 30.1913C55.4217 30.1827 55.565 30.1188 55.6729 30.0116L55.497 31.0577C54.7303 31.9306 53.6277 32.7451 52.2159 33.4738C51.8409 33.2988 51.4273 33.2228 51.0146 33.253C51.8981 32.8653 52.7412 32.3915 53.5318 31.8383C53.8962 31.5811 54.2412 31.2973 54.5638 30.9892C54.8212 30.7436 55.0574 30.4766 55.27 30.1913Z" fill="black"/>
<path d="M55.27 30.1913C55.4822 29.9076 55.6589 29.5989 55.7961 29.2722L55.6729 30.0116C55.565 30.1188 55.4217 30.1827 55.27 30.1913Z" fill="black"/>
<path d="M55.2144 29.3897C55.2785 29.383 55.3431 29.3966 55.399 29.4287C55.4549 29.4609 55.4992 29.5098 55.5257 29.5686C55.285 29.6054 55.1827 29.56 55.2202 29.4316C55.218 29.4179 55.2159 29.4034 55.2144 29.3897Z" fill="black"/>
<path d="M55.2043 29.3125C55.1936 29.2419 55.1787 29.1721 55.1596 29.1033C55.1199 28.9448 55.0646 28.7906 54.9946 28.643C54.8512 28.3469 54.6652 28.0735 54.4426 27.8314C53.9828 27.3264 53.4207 26.9332 52.8219 26.605C52.1044 26.2149 51.3424 25.9131 50.5526 25.7061C49.8175 25.5134 49.0342 25.4774 48.3186 25.2133C47.6945 24.9832 47.2578 24.52 46.7123 24.1651C46.1904 23.8361 45.6013 23.629 44.9885 23.5591C43.6878 23.3903 42.4576 23.7257 41.1792 23.8808C39.7567 24.054 38.5755 23.2373 37.2424 22.899C35.8515 22.5455 34.4319 22.5382 33.0237 22.7994C32.7355 22.8535 32.4285 22.9076 32.133 22.8441C31.8188 22.7763 31.6372 22.5743 31.3756 22.4113C31.0723 22.2266 30.7091 22.3204 30.3804 22.3803C30.0518 22.4401 29.7239 22.5051 29.3975 22.5758C27.9824 22.882 26.5917 23.2919 25.2365 23.8022C24.005 24.2668 22.6811 24.774 21.6658 25.6368C20.8478 26.3308 20.2245 27.3495 20.2965 28.4295C20.0586 28.5108 19.8271 28.6099 19.604 28.726C19.4008 27.3156 20.1603 25.9355 21.2471 25.0503C22.55 23.9891 24.2276 23.378 25.7979 22.8333C27.325 22.2926 28.8972 21.8889 30.4958 21.6271C30.8316 21.5744 31.1739 21.5441 31.4989 21.6668C31.803 21.7807 32.0177 22.0924 32.342 22.1422C32.7211 22.1999 33.178 22.0253 33.5534 21.9748C33.9164 21.9248 34.2818 21.8942 34.6481 21.8832C36.2335 21.8406 37.718 22.21 39.1744 22.8095C39.5347 22.9581 39.9102 23.1067 40.3008 23.163C40.6913 23.2193 41.0935 23.171 41.4833 23.1031C42.204 22.9769 42.9246 22.8405 43.6575 22.7987C45.0678 22.7164 46.4132 22.9863 47.5374 23.8758C47.861 24.1319 48.1737 24.3894 48.5679 24.5308C48.9225 24.6585 49.2986 24.717 49.6691 24.7798C50.458 24.9077 51.2311 25.1196 51.9751 25.4117C53.2398 25.9167 54.506 26.6331 55.3117 27.7643C55.5522 28.0948 55.7375 28.4622 55.8601 28.8523L55.788 29.262C55.6508 29.5888 55.4742 29.8974 55.2619 30.1811C55.1229 30.1811 54.9903 30.109 54.8951 29.9229C54.751 29.6509 54.9773 29.3998 55.2065 29.3796C55.2065 29.3933 55.2065 29.4078 55.2122 29.4215C55.1748 29.5499 55.2771 29.5953 55.5178 29.5585C55.4913 29.4997 55.4469 29.4508 55.391 29.4186C55.3352 29.3865 55.2705 29.3729 55.2065 29.3796C55.2108 29.3638 55.2079 29.3385 55.2043 29.3125Z" fill="#EFE137"/>
<path d="M32.4703 24.9536C33.2479 25.1325 33.9908 25.3381 34.7929 25.3742C35.5784 25.4096 36.3668 25.3829 37.1508 25.3396C38.7564 25.2516 40.3563 25.0698 41.964 25.0236C43.3764 24.9832 44.8026 25.0561 46.1848 25.3648C47.5817 25.6825 48.8986 26.2838 50.0539 27.1316C50.6837 27.5854 51.3042 28.0529 51.9275 28.5139C52.4889 28.9287 53.1353 29.3183 53.585 29.8637C53.9273 30.2814 54.1082 30.7806 53.9208 31.3066C53.8503 31.5191 53.7124 31.7027 53.5281 31.8296C53.435 31.8904 53.3298 31.9302 53.2197 31.9462C53.1097 31.9621 52.9976 31.9539 52.8911 31.922C52.445 31.7964 52.6359 31.101 53.0827 31.2258C53.2449 31.2712 53.286 30.9177 53.2787 30.8117C53.2579 30.5231 53.002 30.2663 52.801 30.0794C52.2576 29.5744 51.6083 29.1639 51.0131 28.7246C49.8017 27.8293 48.6249 26.8943 47.1865 26.3936C44.6577 25.5127 41.9366 25.6974 39.3142 25.903C37.901 26.0134 36.4843 26.136 35.0624 26.1007C34.3946 26.0877 33.7302 26.0026 33.0807 25.8467C32.4487 25.6924 31.8289 25.5077 31.1724 25.5019C30.0215 25.4928 28.9059 25.8996 28.0304 26.6475C27.5851 27.035 27.2601 27.5392 26.8054 27.918C26.3506 28.2967 25.8361 28.4598 25.2632 28.5218C24.6189 28.594 23.966 28.5651 23.3175 28.6185C22.5879 28.6781 21.8634 28.7883 21.1491 28.9482C20.8816 29.0075 20.6184 29.0848 20.3614 29.1798C20.3955 29.1052 20.4009 29.0207 20.3765 28.9424C20.3308 28.7775 20.3023 28.6083 20.2915 28.4374C20.4565 28.3797 20.6216 28.3321 20.783 28.2931C21.6162 28.0953 22.4636 27.9629 23.3175 27.8971C24.1066 27.8314 24.98 27.9396 25.7431 27.6994C26.4068 27.4902 26.7715 26.8755 27.2341 26.4008C27.669 25.957 28.1789 25.5938 28.7403 25.328C29.9044 24.7804 31.2207 24.6482 32.4703 24.9536Z" fill="#EF492E"/>
<path d="M52.2131 34.3215C52.5331 34.5978 52.564 34.9563 52.5388 35.3567C52.4671 36.3449 52.3345 37.3277 52.1417 38.2994C51.9883 39.1118 51.8355 39.9587 51.5458 40.7292C51.5297 40.6801 51.5109 40.632 51.4896 40.585C51.4481 40.4553 51.3818 40.335 51.2943 40.2307C51.1993 40.1244 51.0727 40.0516 50.9331 40.0231C50.7935 39.9947 50.6485 40.0121 50.5196 40.0727C50.2393 40.2062 50.0649 40.4897 49.956 40.7696C49.7838 41.2119 49.6577 41.6787 49.5114 42.1303C49.4581 42.2955 49.4271 42.5018 49.3356 42.649C49.2441 42.7962 49.2044 42.7406 49.1057 42.6151C48.8383 42.2753 48.7641 41.7364 48.6402 41.3309C48.4398 40.6749 48.2457 40.0169 48.0579 39.3571C47.6918 38.0758 47.349 36.7883 47.0295 35.4945C47.036 35.4556 47.0432 35.4159 47.0519 35.3769C48.2531 35.0691 49.4327 34.6823 50.583 34.219C50.7944 34.1334 51.0007 34.0459 51.202 33.9564C51.2345 33.9564 51.2676 33.9564 51.3 33.9615C51.6346 33.9826 51.954 34.1085 52.2131 34.3215Z" fill="#CE2807"/>
<path d="M51.5854 40.8555L51.4996 40.849C51.5155 40.8093 51.5306 40.7696 51.5457 40.7292C51.5499 40.7426 51.5521 40.7564 51.5522 40.7704C51.5607 40.7997 51.5718 40.8282 51.5854 40.8555Z" fill="#F72900"/>
<path d="M23.1561 35.351C23.3406 35.3813 23.5525 35.3033 23.5993 35.0999C23.6757 35.1046 23.7524 35.1002 23.8278 35.0869C23.6397 35.1987 23.5431 35.4476 23.7557 35.6258L23.9539 35.7874C23.5172 36.5024 23.1266 37.3472 23.0761 38.1732C23.0271 38.974 23.6029 39.8166 24.4915 39.4754C25.4506 39.1075 25.6222 37.9474 25.816 37.0716C25.9155 36.62 26.0401 36.1417 26.3457 35.7802C26.3701 35.7523 26.3966 35.7263 26.425 35.7023C29.358 36.3393 32.6441 36.677 36.0556 36.677C38.1971 36.6802 40.3366 36.5419 42.4599 36.2628C42.3965 37.0499 42.7892 37.8579 43.5293 38.2259C43.613 38.2687 43.7099 38.2776 43.8 38.2507C43.89 38.2238 43.9663 38.1633 44.0129 38.0816C44.1445 38.167 44.2913 38.2265 44.4452 38.2569C44.7991 38.3384 45.0571 38.5108 45.1659 38.8737C45.2934 39.2979 45.9355 39.1435 45.8743 38.7388L45.9831 38.7229C46.0257 39.0125 46.1522 39.2831 46.347 39.5014C46.5827 39.7762 46.8789 39.9797 46.9279 40.3671C46.9704 40.7069 46.9055 41.051 46.979 41.3901C47.0123 41.5515 47.0799 41.7038 47.1772 41.8367C47.2344 41.9114 47.3002 41.9792 47.3732 42.0387L47.4525 42.1029L47.4993 42.1447V42.149C47.4943 42.5646 48.0355 42.6028 48.1832 42.2883C48.3922 42.9116 48.7431 43.6489 49.4522 43.4577C49.8126 43.3603 49.9733 43.0306 50.085 42.706C50.273 42.1606 50.4071 41.5863 50.6218 41.0503C50.6591 40.9606 50.7042 40.8745 50.7566 40.7927C50.7696 40.7725 50.7789 40.7567 50.7854 40.7458C50.7848 40.7484 50.7848 40.7512 50.7854 40.7538C50.8669 40.8425 50.882 41.046 50.936 41.1556C51.0982 41.4853 51.4571 41.6801 51.8116 41.507C52.1309 41.3511 52.2548 40.9897 52.3434 40.6708C52.4919 40.1319 52.6173 39.5887 52.7311 39.0397C52.9554 37.9591 53.1209 36.8672 53.227 35.7687C53.2738 35.286 53.3286 34.7897 53.116 34.3366C52.9475 33.9942 52.6754 33.7137 52.3384 33.5351C52.2985 33.5135 52.2589 33.4933 52.2195 33.4745C53.6312 32.7459 54.7338 31.9314 55.5006 31.0584L50.6089 60.252C50.3487 60.3595 50.3494 60.6849 50.5087 60.8508L50.477 61.0384L50.5 61.042C50.428 61.1242 50.3444 61.2014 50.263 61.2779C50.0789 61.4491 49.884 61.6082 49.6792 61.754C49.2792 62.0327 48.8592 62.2813 48.4225 62.4979C47.5218 62.9469 46.5937 63.3385 45.6437 63.6702C39.9911 65.6742 33.8454 65.8102 28.1098 64.0583C26.069 63.4285 24.0209 62.5657 22.5436 60.9684C22.5295 60.9531 22.5141 60.9391 22.4975 60.9265L16.452 30.8629C16.9788 31.5122 17.6887 32.1283 18.5693 32.704C18.8943 33.152 19.2589 33.7198 19.0391 34.2652C18.9418 34.5062 18.7797 34.7074 18.7033 34.9607C18.6269 35.2139 18.6147 35.5061 18.5938 35.7766C18.5693 36.0902 18.5452 36.4028 18.5217 36.7145C18.4972 37.0391 18.4186 37.4049 18.4684 37.7245C18.5404 38.2208 19.0499 38.4142 19.5025 38.3738C20.6728 38.2793 21.1239 37.0752 21.2255 36.0702C21.2724 35.61 21.2515 34.9881 21.6723 34.6995C21.8903 34.8037 22.1266 34.864 22.3678 34.877C22.416 34.8818 22.4647 34.8753 22.5099 34.858C22.5552 34.8407 22.5958 34.8131 22.6286 34.7774C22.6726 35.0537 22.8744 35.3048 23.1561 35.351ZM24.3012 53.2959C25.9428 57.1462 29.9222 59.9 34.1322 59.8855C36.1268 59.8808 38.0779 59.302 39.7532 58.2183C41.5366 57.0556 42.8414 55.2883 43.4284 53.2404C44.7025 48.8396 43.0465 43.7759 39.5211 40.8887C37.7195 39.4119 35.4135 38.4668 33.0599 38.6854C31.8593 38.7965 30.6601 39.1096 29.5093 39.466C28.5379 39.7669 27.5808 40.1644 26.7867 40.8129C26.4089 41.1242 26.0861 41.4968 25.8319 41.9153C25.8003 41.962 25.7815 42.0161 25.7775 42.0724C25.7734 42.1286 25.7842 42.1849 25.8088 42.2356C24.712 43.3589 24.054 44.9771 23.7153 46.451C23.1857 48.7373 23.39 51.1326 24.2991 53.2959H24.3012ZM21.5275 40.8836C21.5686 40.326 21.258 39.4891 20.5366 39.7683C20.4573 39.7975 20.3906 39.8533 20.3478 39.9263C20.3 39.9366 20.2553 39.9583 20.2177 39.9895C20.18 40.0208 20.1505 40.0608 20.1316 40.1059C19.9408 40.4945 19.829 40.9172 19.8027 41.3495C19.7765 41.7817 19.8364 42.2149 19.9788 42.6237C20.0207 42.7424 20.0688 42.8587 20.123 42.9722C20.2505 43.2435 20.6 43.1655 20.7456 42.9722C21.1996 42.3649 21.4702 41.6401 21.5253 40.8836H21.5275Z" fill="#41454F"/>
<path d="M50.786 40.7382C50.7889 40.7316 50.7925 40.7255 50.7969 40.7199C50.794 40.7264 50.7904 40.7325 50.786 40.7382Z" fill="#F72900"/>
<path d="M50.8401 60.9309C50.7636 60.9559 50.6808 60.9525 50.6066 60.9215C50.6318 60.8898 50.6563 60.8566 50.6786 60.822L50.8401 60.9309Z" fill="black"/>
<path d="M50.6067 60.9215C50.6809 60.9525 50.7638 60.9559 50.8402 60.9309L50.6788 60.822C50.6564 60.8566 50.6319 60.8898 50.6067 60.9215C50.5681 60.9049 50.5335 60.8803 50.5051 60.8494L50.6053 60.2506C50.6192 60.2441 50.6337 60.2388 50.6485 60.2347C50.7682 60.1948 50.898 60.1973 51.0161 60.2418C51.1342 60.2864 51.2334 60.3702 51.2971 60.4793L51.1832 61.1567L50.4957 61.0406C50.5028 61.0339 50.5096 61.027 50.5159 61.0196C50.5478 60.9885 50.5781 60.9558 50.6067 60.9215Z" fill="black"/>
<path d="M50.5166 61.0204C50.5103 61.0277 50.5035 61.0347 50.4964 61.0413L50.4734 61.0377L50.5051 60.8501C50.5335 60.881 50.5681 60.9056 50.6067 60.9222C50.5784 60.9565 50.5483 60.9892 50.5166 61.0204Z" fill="black"/>
<path d="M50.6052 60.2513L50.5051 60.8501C50.3458 60.6856 50.3451 60.3588 50.6052 60.2513Z" fill="black"/>
<path d="M50.1953 15.1998C50.4619 15.321 50.3077 15.5735 50.098 15.7885L49.827 15.3225L50.0021 15.2121C50.0289 15.195 50.0577 15.1814 50.0879 15.1717C50.1249 15.1753 50.1612 15.1848 50.1953 15.1998Z" fill="#CE2807"/>
<path d="M50.2095 15.1565C50.3774 15.2842 50.451 15.5584 50.2636 15.7077L49.2014 16.5547L49.1538 16.4926C49.3426 16.388 49.5229 16.2686 49.6928 16.1355C49.827 16.0367 49.9543 15.929 50.0741 15.813L50.105 15.8008L50.0979 15.7885C50.3076 15.5721 50.4582 15.321 50.1951 15.1998C50.161 15.1848 50.1248 15.1753 50.0878 15.1717C50.1268 15.1579 50.1683 15.1528 50.2095 15.1565Z" fill="#CE2807"/>
<path d="M50.0981 15.7914L50.1053 15.8038L50.0741 15.8163L50.0981 15.7914Z" fill="#CE2807"/>
<path d="M49.827 15.3225L50.098 15.7885L50.0742 15.8131C49.7123 15.9501 49.385 16.1654 49.1157 16.4436L48.8469 16.0951C48.9284 15.9953 49.0158 15.9004 49.1085 15.8109L49.2109 15.7084L49.827 15.3225Z" fill="#CE2807"/>
<path d="M49.783 15.2467C49.8757 15.1943 49.9814 15.1693 50.0878 15.1746C50.0576 15.1843 50.0288 15.1979 50.002 15.215L49.8269 15.3254C49.8118 15.2972 49.7974 15.272 49.783 15.2467Z" fill="#CE2807"/>
<path d="M49.827 15.3225L49.2108 15.7084C49.3614 15.5584 49.5711 15.3556 49.783 15.2467C49.7974 15.272 49.8118 15.2972 49.827 15.3225Z" fill="#CE2807"/>
<path d="M50.0742 15.8131C49.9545 15.929 49.8271 16.0367 49.693 16.1355C49.523 16.2686 49.3427 16.3881 49.1539 16.4927C49.1409 16.4768 49.1287 16.4602 49.1157 16.4436C49.385 16.1654 49.7123 15.9502 50.0742 15.8131Z" fill="#CE2807"/>
<path d="M48.7648 15.9884L49.2108 15.7084L49.1085 15.8109C49.0158 15.9004 48.9284 15.9953 48.8469 16.0951L48.7648 15.9884Z" fill="#CE2807"/>
<path d="M49.1286 16.6117C49.0687 16.6506 48.9972 16.6676 48.9261 16.66C48.9514 16.6268 48.9787 16.5936 49.0076 16.5619C49.0568 16.5403 49.1049 16.5162 49.1517 16.4897L49.1993 16.5518L50.2615 15.7048C50.4488 15.5555 50.3753 15.2813 50.2074 15.1536C50.5007 15.1767 50.6838 15.6312 50.3631 15.8325L49.1286 16.6117Z" fill="#CE2807"/>
<path d="M48.8469 16.0951L49.1157 16.4436C49.0782 16.4818 49.0436 16.5215 49.0076 16.5619C48.9442 16.5886 48.8789 16.6106 48.8123 16.6276C48.7304 16.5873 48.6633 16.5222 48.6206 16.4414C48.6827 16.3178 48.7586 16.2016 48.8469 16.0951Z" fill="#CE2807"/>
<path d="M49.1539 16.4926C49.1071 16.5191 49.059 16.5432 49.0098 16.5648C49.0436 16.5244 49.0818 16.4847 49.1179 16.4465C49.1287 16.4602 49.1409 16.4768 49.1539 16.4926Z" fill="#CE2807"/>
<path d="M49.0077 16.5619C48.9788 16.5936 48.9515 16.6268 48.9262 16.66C48.8867 16.6561 48.8481 16.6451 48.8124 16.6276C48.879 16.6106 48.9443 16.5886 49.0077 16.5619Z" fill="#CE2807"/>
<path d="M48.8109 16.6276C48.8466 16.6451 48.8852 16.6561 48.9248 16.66C48.7981 16.8196 48.6885 16.992 48.5976 17.1744L48.4917 16.9132C48.4921 16.9094 48.4921 16.9055 48.4917 16.9017C48.4974 16.8201 48.5113 16.7394 48.5335 16.6607C48.6271 16.6625 48.7204 16.6514 48.8109 16.6276Z" fill="#CE2807"/>
<path d="M48.7646 15.9884L48.8468 16.0951C48.7585 16.2016 48.6826 16.3178 48.6205 16.4414C48.5815 16.378 48.5672 16.3025 48.5805 16.2292C48.5938 16.1559 48.6338 16.0902 48.6926 16.0446L49.7548 15.1977L49.7836 15.2467C49.5718 15.3557 49.362 15.5584 49.2114 15.7084L48.7646 15.9884Z" fill="#CE2807"/>
<path d="M48.6207 16.4407C48.6634 16.5214 48.7305 16.5866 48.8124 16.6268C48.7223 16.6505 48.6295 16.6617 48.5364 16.66C48.558 16.5846 48.5862 16.5112 48.6207 16.4407Z" fill="#CE2807"/>
<path d="M47.9771 16.8101C48.3793 16.0135 49.0729 15.4029 49.9134 15.1053C49.963 15.0874 50.0164 15.0828 50.0683 15.0917C50.1202 15.1007 50.1689 15.123 50.2096 15.1565C50.1684 15.1528 50.1269 15.1579 50.0878 15.1717C49.9814 15.1664 49.8758 15.1914 49.783 15.2438L49.7542 15.1948L48.692 16.0417C48.6331 16.0873 48.5932 16.1531 48.5799 16.2263C48.5666 16.2996 48.5809 16.3752 48.6199 16.4385C48.5856 16.5081 48.5574 16.5805 48.5356 16.655C48.4846 16.6535 48.4337 16.6482 48.3835 16.6391L48.4923 16.9075C48.4869 16.9621 48.4697 17.0148 48.4418 17.0621C48.414 17.1093 48.3761 17.1499 48.331 17.181C48.2859 17.2121 48.2345 17.233 48.1805 17.2422C48.1264 17.2514 48.071 17.2487 48.0182 17.2343C47.9732 17.1741 47.9456 17.1027 47.9383 17.0279C47.9311 16.9531 47.9445 16.8778 47.9771 16.8101Z" fill="#CE2807"/>
<path d="M48.5363 16.6607C48.5142 16.7394 48.5002 16.8201 48.4946 16.9017C48.495 16.9055 48.495 16.9094 48.4946 16.9132L48.3857 16.6449C48.4355 16.6539 48.4858 16.6592 48.5363 16.6607Z" fill="#CE2807"/>
<path d="M50.7969 40.7199C50.7925 40.7254 50.7889 40.7315 50.7861 40.7379C50.7904 40.7324 50.794 40.7263 50.7969 40.7199ZM48.1355 40.2452C48.0916 39.9564 48.0278 39.671 47.9446 39.391L48.0577 39.3585C48.2451 40.0189 48.4392 40.6768 48.64 41.3324C48.7639 41.7378 48.8382 42.2767 49.1055 42.6165C49.2043 42.7421 49.2425 42.7998 49.3354 42.6504C49.4284 42.5011 49.4579 42.2969 49.5112 42.1317C49.6554 41.6801 49.7836 41.2133 49.9559 40.7711C50.0647 40.4912 50.2391 40.2077 50.5194 40.0742C50.6483 40.0135 50.7934 39.9961 50.9329 40.0246C51.0725 40.0531 51.1992 40.1259 51.2941 40.2322C51.3816 40.3364 51.4479 40.4567 51.4894 40.5864C51.5108 40.6334 51.5295 40.6816 51.5456 40.7307C51.5305 40.7711 51.5154 40.8108 51.4995 40.8505L51.5852 40.8569C51.5717 40.8296 51.5606 40.8011 51.5521 40.7718C51.5519 40.7579 51.5497 40.744 51.5456 40.7307C51.8339 39.9573 51.9881 39.1132 52.1416 38.3009C52.3343 37.3291 52.4669 36.3463 52.5387 35.3582C52.5639 34.9578 52.5329 34.5992 52.2129 34.3229C51.9549 34.1104 51.6369 33.9842 51.3035 33.9622C51.2711 33.9622 51.2379 33.9579 51.2055 33.9571C51.5576 33.8004 51.8939 33.639 52.2144 33.4731C52.2542 33.4918 52.2939 33.512 52.3333 33.5337C52.6703 33.7122 52.9424 33.9927 53.1108 34.3352C53.3234 34.7882 53.2687 35.2846 53.2218 35.7672C53.1158 36.8657 52.9503 37.9577 52.726 39.0382C52.6122 39.5851 52.4868 40.1305 52.3383 40.6694C52.2497 40.9883 52.1257 41.3497 51.8065 41.5055C51.4519 41.6787 51.093 41.4839 50.9309 41.1542C50.8769 41.0445 50.8589 40.8411 50.7803 40.7523C50.7797 40.7497 50.7797 40.747 50.7803 40.7444C50.7738 40.7552 50.7644 40.7711 50.7515 40.7913C50.6991 40.873 50.654 40.9592 50.6167 41.0489C50.4005 41.5849 50.2679 42.1591 50.0798 42.7046C49.9681 43.0292 49.8089 43.3589 49.4471 43.4563C48.738 43.6475 48.3871 42.9102 48.1781 42.2868C48.1991 42.2432 48.2116 42.196 48.2148 42.1476C48.217 42.1183 48.217 42.0889 48.2148 42.0596C48.2256 41.4536 48.2242 40.8469 48.1355 40.2481V40.2452Z" fill="#CE2807"/>
<path d="M48.1355 40.248C48.2242 40.8497 48.2256 41.4564 48.2177 42.0632C48.2069 41.872 48.1031 41.7638 47.9835 41.6512C47.8711 41.2872 47.7611 40.9224 47.6534 40.5568C47.6462 40.2365 47.5965 39.9205 47.4221 39.6456C47.4041 39.6168 47.3846 39.5894 47.3645 39.5627C47.02 38.355 46.6957 37.1413 46.3916 35.9216C46.474 35.7572 46.6086 35.6247 46.7743 35.545L46.6301 35.4866C46.7546 35.4563 46.8785 35.4253 47.002 35.3935C47.0099 35.4289 47.0186 35.4656 47.0279 35.4988C46.8543 36.5521 47.3162 37.5852 47.6679 38.562C47.7673 38.8369 47.8624 39.1139 47.9431 39.3939C48.0268 39.6738 48.0911 39.9592 48.1355 40.248Z" fill="#ED8A2F"/>
<path d="M48.2178 42.0603C48.2199 42.0896 48.2199 42.119 48.2178 42.1483C48.2178 42.1187 48.2178 42.0899 48.2178 42.0603Z" fill="#ED8A2F"/>
<path d="M48.2179 42.0603C48.2179 42.0899 48.2179 42.1188 48.2179 42.1483H48.1357C48.0946 42.0163 48.0593 41.8937 48.0276 41.7876C48.0132 41.74 47.9981 41.6924 47.9844 41.6433C48.1033 41.7631 48.2071 41.8691 48.2179 42.0603Z" fill="#ED8A2F"/>
<path d="M48.135 42.1483H48.2172C48.2139 42.1967 48.2015 42.2439 48.1804 42.2876C48.1624 42.2399 48.1494 42.1959 48.135 42.1483Z" fill="#ED8A2F"/>
<path d="M48.0577 39.3585L47.9446 39.391C47.8638 39.1111 47.7687 38.834 47.6693 38.5592C47.3154 37.5824 46.8557 36.5492 47.0293 35.4959C47.3488 36.7883 47.6916 38.0758 48.0577 39.3585Z" fill="#F72900"/>
<path d="M50.3639 16.5215C49.7319 17.0265 49.0379 17.5012 48.1926 17.3403C48.1237 17.3269 48.0619 17.2893 48.0182 17.2343C48.071 17.2491 48.1264 17.2521 48.1805 17.2433C48.2346 17.2344 48.2861 17.2139 48.3315 17.183C48.3768 17.1522 48.4149 17.1118 48.4431 17.0647C48.4712 17.0176 48.4888 16.9649 48.4945 16.9104L48.6005 17.1715C48.6913 16.9891 48.801 16.8167 48.9277 16.6571C48.9987 16.6648 49.0702 16.6477 49.1301 16.6088L50.3668 15.8325C50.6875 15.6313 50.5044 15.1767 50.2111 15.1537C50.1704 15.1202 50.1217 15.0978 50.0698 15.0889C50.0178 15.0799 49.9645 15.0846 49.9149 15.1024C49.0744 15.4001 48.3808 16.0107 47.9786 16.8072C47.9452 16.8751 47.9312 16.951 47.9382 17.0263C47.9452 17.1017 47.9729 17.1737 48.0182 17.2343C47.9427 17.2197 47.8756 17.1769 47.8305 17.1146C47.7854 17.0523 47.7657 16.9752 47.7753 16.8988C47.8287 16.093 48.3439 15.4906 48.9406 14.9921C49.44 14.5751 50.2306 14.1552 50.7905 14.7374C51.3504 15.3196 50.8777 16.1096 50.3639 16.5215Z" fill="#CE2807"/>
<path d="M47.6535 40.554C47.7616 40.92 47.8716 41.2848 47.9836 41.6484C47.9078 41.5822 47.8376 41.5098 47.7739 41.4319C47.593 41.1967 47.66 40.8432 47.6542 40.5662C47.6545 40.5621 47.6542 40.558 47.6535 40.554Z" fill="#ED8A2F"/>
<path d="M47.4222 39.6428C47.5966 39.9176 47.6463 40.2336 47.6535 40.5539C47.5574 40.2235 47.4613 39.8921 47.3652 39.5598C47.3847 39.5865 47.4042 39.6139 47.4222 39.6428Z" fill="#ED8A2F"/>
<path d="M47.5016 42.1483C47.5096 42.1551 47.5171 42.1624 47.5241 42.1703C47.5144 42.1635 47.5052 42.1562 47.4965 42.1483H47.5016Z" fill="#41454F"/>
<path d="M48.1801 42.2876C48.0324 42.6021 47.4912 42.5639 47.4963 42.1483C47.505 42.1561 47.5141 42.1633 47.5236 42.17C47.5167 42.1622 47.5092 42.155 47.5013 42.1483H48.1347C48.1492 42.1959 48.1621 42.2399 48.1801 42.2876Z" fill="#ED8A2F"/>
<path d="M47.502 42.1488H47.4965V42.144L47.502 42.1488Z" fill="#ED8A2F"/>
<path d="M47.3695 42.038C47.2965 41.9785 47.2307 41.9107 47.1734 41.8359C47.0762 41.703 47.0086 41.5507 46.9753 41.3894C46.9032 41.0503 46.9666 40.7062 46.9241 40.3664C46.8751 39.9819 46.5789 39.7784 46.3433 39.5007C46.1485 39.2824 46.022 39.0118 45.9793 38.7222C45.9666 38.6389 45.9598 38.5548 45.9592 38.4705C45.961 38.0107 45.8393 37.559 45.6068 37.1625C45.4036 36.7888 45.1809 36.4086 45.098 35.9858C45.0873 35.9334 45.0793 35.8804 45.0742 35.8271L45.3553 35.7694H45.6724C45.6536 35.8212 45.6374 35.8739 45.6241 35.9274C45.552 36.2052 45.7913 36.3841 46.0096 36.3754C46.0997 36.5666 46.1948 36.7361 46.2582 36.853C46.3408 37.0018 46.4158 37.1547 46.4831 37.3111C46.5335 37.4915 46.5897 37.6718 46.6495 37.8493C46.6495 37.8594 46.6539 37.8695 46.6553 37.8796C46.713 38.2403 46.5948 38.6443 46.8232 38.9538C46.9347 39.0921 47.055 39.223 47.1835 39.3456C47.2556 39.5757 47.3226 39.8073 47.3738 40.0432C47.5222 40.7321 47.5085 41.442 47.4992 42.1433L47.4523 42.1014L47.3695 42.038Z" fill="#ED8A2F"/>
<path d="M47.0885 35.198C47.6753 35.0563 48.2528 34.879 48.8181 34.667C49.5711 34.3842 50.3746 33.929 51.2026 33.9564C51.0018 34.0449 50.7955 34.1325 50.5836 34.219C49.4333 34.6823 48.2537 35.0691 47.0525 35.3769C47.0597 35.3401 47.0683 35.3048 47.0777 35.2658C47.0833 35.2436 47.0869 35.2209 47.0885 35.198Z" fill="#F72900"/>
<path d="M47.6577 40.5648C47.6634 40.844 47.5964 41.1975 47.7773 41.4305C47.8411 41.5083 47.9112 41.5807 47.987 41.6469C48.0007 41.6945 48.0158 41.7422 48.0302 41.7912C48.0619 41.8937 48.0973 42.0163 48.1383 42.1519H47.5049L47.4999 42.1476C47.5092 41.4464 47.5229 40.7365 47.3745 40.0475C47.3233 39.8116 47.2577 39.58 47.1842 39.3499C47.2499 39.4181 47.3113 39.4904 47.368 39.5663C47.4641 39.8982 47.5601 40.2296 47.6562 40.5605C47.6568 40.5619 47.6572 40.5633 47.6577 40.5648Z" fill="#ED8A2F"/>
<path d="M46.4227 34.61C47.4284 34.3835 48.4132 34.0722 49.3665 33.6794C49.8954 33.4673 50.4561 33.284 51.0146 33.253C50.7883 33.3545 50.5551 33.4543 50.3149 33.5524C49.041 34.0633 47.7315 34.48 46.3967 34.799C46.4222 34.7395 46.4311 34.6742 46.4227 34.61Z" fill="#F72900"/>
<path d="M46.9632 35.2298C46.9553 35.198 46.948 35.167 46.9401 35.1352C46.9143 35.0446 46.8541 34.9676 46.7724 34.9208C46.6906 34.874 46.5938 34.8611 46.5027 34.8849C46.7189 34.7197 47.1145 34.8799 47.0886 35.1995C47.0468 35.2105 47.005 35.2206 46.9632 35.2298Z" fill="#ED8A2F"/>
<path d="M47.0885 35.198C47.0867 35.2209 47.0828 35.2436 47.077 35.2658C47.0676 35.3026 47.059 35.338 47.0518 35.3769L47.0035 35.3892C46.9898 35.3358 46.9761 35.2817 46.9631 35.2283C47.0049 35.2201 47.0467 35.21 47.0885 35.198Z" fill="#ED8A2F"/>
<path d="M47.0517 35.3784C47.0431 35.4173 47.0359 35.457 47.0294 35.496C47.02 35.4613 47.0113 35.4238 47.0034 35.3906L47.0517 35.3784Z" fill="#ED8A2F"/>
<path d="M46.9631 35.2298C46.9761 35.2831 46.9898 35.3372 47.0035 35.3906C46.88 35.4224 46.7561 35.4534 46.6316 35.4837L46.6143 35.4765C46.6236 35.4207 46.6201 35.3634 46.6042 35.3091C46.7248 35.2831 46.8445 35.2567 46.9631 35.2298Z" fill="#ED8A2F"/>
<path d="M46.9372 35.1352C46.9452 35.167 46.9524 35.198 46.9603 35.2297C46.8416 35.2576 46.7215 35.2841 46.6 35.3091C46.5857 35.2542 46.5587 35.2034 46.5211 35.1609C46.4835 35.1184 46.4365 35.0854 46.3838 35.0645C46.402 34.9933 46.4433 34.9301 46.5012 34.8849C46.5922 34.8615 46.6886 34.8746 46.77 34.9214C46.8515 34.9682 46.9115 35.0449 46.9372 35.1352Z" fill="#ED8A2F"/>
<path d="M46.8463 38.4012C46.9609 38.7143 47.0784 39.0281 47.1807 39.3463C47.0522 39.2237 46.9318 39.0928 46.8204 38.9545C46.592 38.645 46.7102 38.2403 46.6525 37.8803C46.6525 37.8702 46.6525 37.8601 46.6467 37.85C46.713 38.0347 46.7793 38.2186 46.8463 38.4012Z" fill="#ED8A2F"/>
<path d="M46.6318 35.4867L46.6122 35.4918V35.4794L46.6318 35.4867Z" fill="#ED8A2F"/>
<path d="M46.6041 35.3091C46.62 35.3634 46.6235 35.4207 46.6142 35.4765L46.3353 35.3632C46.4254 35.3459 46.5148 35.3279 46.6041 35.3091Z" fill="#ED8A2F"/>
<path d="M46.3355 35.3632L46.6144 35.4765V35.4887L46.3059 35.5609C46.3036 35.5533 46.3017 35.5456 46.3002 35.5378C46.3067 35.4794 46.3146 35.4216 46.3247 35.3632H46.3355Z" fill="#ED8A2F"/>
<path d="M46.4839 37.3118C46.5604 37.484 46.6163 37.6647 46.6504 37.85C46.5905 37.6718 46.5343 37.4922 46.4839 37.3118Z" fill="#ED8A2F"/>
<path d="M46.6042 35.3091C46.5148 35.3279 46.4254 35.3459 46.3354 35.3632L46.3231 35.3582C46.3383 35.2644 46.3584 35.1706 46.3822 35.0761C46.3822 35.0718 46.3822 35.0682 46.3822 35.0645C46.436 35.0847 46.4842 35.1174 46.5228 35.1599C46.5614 35.2024 46.5893 35.2536 46.6042 35.3091Z" fill="#ED8A2F"/>
<path d="M46.3917 35.9194C46.378 35.8661 46.365 35.8127 46.3513 35.7586C46.417 35.7456 46.4771 35.7128 46.5237 35.6648C46.5703 35.6167 46.6012 35.5555 46.6122 35.4895L46.6316 35.4844L46.7758 35.5429C46.6096 35.6223 46.4745 35.7548 46.3917 35.9194Z" fill="#ED8A2F"/>
<path d="M47.1807 39.3463C47.0784 39.0281 46.9609 38.7143 46.8463 38.4012C46.7793 38.2186 46.713 38.0347 46.6503 37.85C46.6163 37.6647 46.5604 37.484 46.4839 37.3118C46.3814 36.9515 46.316 36.5816 46.2886 36.208C46.3038 36.1795 46.3154 36.1492 46.3232 36.1178C46.3398 36.0483 46.364 35.9808 46.3952 35.9165C46.6993 37.1358 47.0236 38.3495 47.3681 39.5576C47.3101 39.4833 47.2475 39.4127 47.1807 39.3463Z" fill="#ED8A2F"/>
<path d="M46.4226 34.6101C46.4311 34.6743 46.4221 34.7395 46.3967 34.7991C46.1697 34.8546 45.9398 34.9087 45.707 34.9599C45.7142 34.8938 45.7436 34.8321 45.7905 34.785C45.8375 34.738 45.899 34.7083 45.965 34.701C46.1188 34.6735 46.2713 34.6432 46.4226 34.6101Z" fill="#ED8A2F"/>
<path d="M46.5048 34.8849C46.4469 34.9301 46.4056 34.9933 46.3873 35.0645L46.3686 35.0573L46.2526 35.0169C46.3041 34.9813 46.3578 34.9487 46.4133 34.9195C46.4423 34.9043 46.473 34.8927 46.5048 34.8849Z" fill="#F72900"/>
<path d="M46.6121 35.4866C46.6011 35.5527 46.5703 35.6138 46.5237 35.6619C46.477 35.71 46.4169 35.7427 46.3513 35.7557L46.3037 35.5609L46.6121 35.4866Z" fill="#ED8A2F"/>
<path d="M46.3038 35.5631L46.3514 35.7578C46.3276 35.7626 46.3035 35.765 46.2793 35.7651C46.2793 35.6987 46.2879 35.6316 46.2951 35.5645L46.3038 35.5631Z" fill="#ED8A2F"/>
<path d="M46.3232 35.3582L46.3357 35.3633H46.3225C46.3226 35.3616 46.3228 35.3599 46.3232 35.3582Z" fill="#ED8A2F"/>
<path d="M46.484 37.3118C46.4167 37.1554 46.3417 37.0025 46.2591 36.8537C46.1957 36.7375 46.1006 36.5651 46.0105 36.3761C46.067 36.376 46.1224 36.3605 46.1708 36.3312C46.2191 36.302 46.2586 36.2602 46.2851 36.2102C46.3138 36.5832 46.3804 36.9523 46.484 37.3118Z" fill="#ED8A2F"/>
<path d="M46.3233 35.3582C46.323 35.3606 46.323 35.363 46.3233 35.3654L46.2585 35.3776C46.2549 35.3603 46.2505 35.3437 46.2462 35.3264L46.3233 35.3582Z" fill="#ED8A2F"/>
<path d="M46.2576 35.3777L46.3224 35.3654C46.3123 35.4238 46.3044 35.4815 46.2979 35.54C46.2842 35.4866 46.2713 35.4318 46.2576 35.3777Z" fill="#ED8A2F"/>
<path d="M46.3196 36.12C46.3118 36.1514 46.3002 36.1817 46.285 36.2102C46.2747 36.062 46.273 35.9134 46.28 35.7651C46.3042 35.765 46.3283 35.7626 46.352 35.7579C46.3657 35.812 46.3787 35.8654 46.3924 35.9187C46.3609 35.983 46.3365 36.0505 46.3196 36.12Z" fill="#ED8A2F"/>
<path d="M46.1777 34.991C46.2258 34.9772 46.2702 34.9529 46.3077 34.9197C46.3451 34.8864 46.3746 34.8452 46.3939 34.7991C47.7287 34.48 49.0382 34.0634 50.312 33.5524C50.5523 33.4562 50.7855 33.3564 51.0118 33.253C51.4245 33.2228 51.838 33.2988 52.2131 33.4738C51.8926 33.6397 51.5563 33.8011 51.2042 33.9579C50.3762 33.9305 49.5727 34.3857 48.8196 34.6685C48.2544 34.8804 47.6768 35.0578 47.0901 35.1995C47.116 34.8799 46.7204 34.7197 46.5042 34.8849C46.4724 34.8927 46.4417 34.9043 46.4127 34.9195C46.3572 34.9487 46.3035 34.9813 46.252 35.0169L46.1777 34.991Z" fill="#CE2807"/>
<path d="M46.2979 35.54C46.2995 35.5479 46.3014 35.5557 46.3038 35.5634H46.2958C46.2959 35.5555 46.2966 35.5477 46.2979 35.54Z" fill="#ED8A2F"/>
<path d="M46.2576 35.3777C46.2713 35.4318 46.2842 35.4859 46.2979 35.54C46.2972 35.5481 46.2972 35.5564 46.2979 35.5645L46.1992 35.5883C46.2086 35.5198 46.2172 35.452 46.2266 35.3834L46.2576 35.3777Z" fill="#ED8A2F"/>
<path d="M46.2707 35.7658H46.28C46.273 35.9141 46.2747 36.0627 46.2851 36.2109C46.2587 36.2609 46.2191 36.3027 46.1708 36.332C46.1224 36.3612 46.067 36.3767 46.0105 36.3768C45.915 36.1837 45.8424 35.9801 45.7943 35.7701L46.2707 35.7658Z" fill="#ED8A2F"/>
<path d="M46.3823 35.0761C46.3586 35.1706 46.3384 35.2644 46.3232 35.3582L46.2454 35.3264C46.2497 35.3438 46.2541 35.3603 46.2577 35.3777L46.2245 35.3834C46.2404 35.2702 46.2555 35.1576 46.2706 35.0444H46.2108C46.2238 35.0343 46.2368 35.0249 46.2505 35.0162L46.3665 35.0566L46.3852 35.0638C46.3852 35.0638 46.3831 35.0718 46.3823 35.0761Z" fill="#ED8A2F"/>
<path d="M46.2705 35.0444C46.2554 35.1576 46.2403 35.2702 46.2244 35.3834C46.2021 35.3885 46.179 35.3921 46.1566 35.3964C46.0679 35.4146 45.9755 35.3986 45.8979 35.3517C45.9865 35.2346 46.0919 35.1312 46.2107 35.0451L46.2705 35.0444Z" fill="#ED8A2F"/>
<path d="M46.1776 34.991L46.2496 35.0169C46.2359 35.0256 46.223 35.035 46.21 35.0451H46.0414C46.0831 35.0228 46.1271 35.0049 46.1725 34.9917L46.1776 34.991Z" fill="#ED8A2F"/>
<path d="M46.0421 35.0458H46.2107C46.0919 35.1319 45.9865 35.2353 45.898 35.3524C45.868 35.3343 45.8408 35.312 45.8173 35.286C45.8616 35.1819 45.9412 35.0969 46.0421 35.0458Z" fill="#ED8A2F"/>
<path d="M46.1971 35.5883C46.1892 35.6431 46.182 35.698 46.1748 35.7528L45.8988 35.6554C46.0004 35.6309 46.0984 35.6107 46.1971 35.5883Z" fill="#ED8A2F"/>
<path d="M46.4226 34.61C46.2713 34.6432 46.1187 34.6735 45.965 34.7009C45.899 34.7083 45.8374 34.7379 45.7905 34.785C45.7436 34.8321 45.7141 34.8938 45.707 34.9599C45.5665 34.9909 45.426 35.022 45.284 35.0515H45.1759C45.2427 34.8718 45.3502 34.7101 45.49 34.579C45.6298 34.448 45.7981 34.3511 45.9816 34.2962C46.2324 34.2219 46.4017 34.408 46.4226 34.61Z" fill="#ED8A2F"/>
<path d="M46.1776 34.991H46.1733C46.1278 35.0042 46.0839 35.0221 46.0421 35.0444H45.707C45.707 35.0444 45.707 35.0386 45.707 35.0364C45.748 34.9849 45.8047 34.9482 45.8684 34.9318C45.9321 34.9154 45.9994 34.9202 46.0602 34.9455L46.1776 34.991Z" fill="#ED8A2F"/>
<path d="M46.2958 35.5645C46.2886 35.6316 46.2835 35.6987 46.2799 35.7651H46.2706L45.7957 35.7687C45.7899 35.7391 45.7849 35.7095 45.7812 35.6807C45.8209 35.6727 45.8598 35.6641 45.8987 35.6547L46.1747 35.7521C46.1819 35.6972 46.1891 35.6424 46.1971 35.5876L46.2958 35.5645Z" fill="#ED8A2F"/>
<path d="M46.197 35.5883C46.0983 35.6107 45.9989 35.6338 45.8987 35.6554L45.867 35.6446C45.8334 35.633 45.8016 35.6168 45.7726 35.5963C45.7726 35.5804 45.7726 35.5645 45.7726 35.5486C45.8096 35.4797 45.852 35.4139 45.8994 35.3517C45.977 35.3986 46.0693 35.4146 46.1581 35.3964C46.1805 35.3921 46.2035 35.3885 46.2259 35.3834C46.2165 35.452 46.2064 35.5198 46.197 35.5883Z" fill="#ED8A2F"/>
<path d="M45.707 35.0487H46.0421C45.9414 35.0996 45.8618 35.1844 45.8173 35.2882C45.7559 35.2222 45.7172 35.1383 45.707 35.0487Z" fill="#ED8A2F"/>
<path d="M46.0104 36.3761C45.7942 36.3848 45.5557 36.2059 45.6249 35.9281C45.6382 35.8746 45.6543 35.8219 45.6731 35.7701H45.7956C45.8433 35.9798 45.9154 36.1832 46.0104 36.3761Z" fill="#ED8A2F"/>
<path d="M45.9598 38.4733C45.9605 38.5576 45.9672 38.6418 45.98 38.7251L45.8712 38.741C45.8682 38.7217 45.8638 38.7027 45.8582 38.684C45.6788 38.0881 45.232 37.7007 44.6331 37.5636C44.2555 37.477 44.2281 37.0694 44.1539 36.7318C44.1029 36.4973 44.0675 36.2596 44.048 36.0204C44.3948 35.9613 44.7369 35.8978 45.0742 35.83C45.0793 35.8833 45.0872 35.9362 45.0979 35.9887C45.1808 36.4115 45.4035 36.7917 45.6067 37.1654C45.8395 37.5617 45.9614 38.0135 45.9598 38.4733Z" fill="#ED8A2F"/>
<path d="M45.8987 35.6554C45.8598 35.6648 45.8209 35.6734 45.7812 35.6814C45.7776 35.6525 45.7747 35.6244 45.7726 35.5963C45.8016 35.6168 45.8334 35.633 45.867 35.6446L45.8987 35.6554Z" fill="#ED8A2F"/>
<path d="M45.8713 38.741C45.9326 39.1457 45.2905 39.3001 45.1629 38.8759C45.0541 38.5152 44.7961 38.3406 44.4423 38.2591C44.2884 38.2287 44.1416 38.1692 44.0099 38.0838C44.1115 37.9265 44.1051 37.7093 43.8903 37.6033C43.7625 37.5394 43.6461 37.4548 43.5458 37.353C43.4215 36.9589 43.3474 36.5507 43.3253 36.138C43.5675 36.1013 43.8074 36.0616 44.046 36.0204C44.0655 36.2596 44.1009 36.4973 44.1519 36.7318C44.224 37.0694 44.2535 37.477 44.6311 37.5636C45.2293 37.7007 45.676 38.0881 45.8562 38.684C45.8625 38.7026 45.8676 38.7217 45.8713 38.741Z" fill="#ED8A2F"/>
<path d="M46.0586 34.9491C45.9979 34.9238 45.9306 34.919 45.8669 34.9354C45.8032 34.9518 45.7465 34.9885 45.7055 35.04C45.703 35.0134 45.703 34.9866 45.7055 34.96C45.9383 34.9087 46.1682 34.8546 46.3952 34.7991C46.3758 34.8452 46.3463 34.8865 46.3089 34.9197C46.2715 34.9529 46.2271 34.9772 46.179 34.991L46.0586 34.9491Z" fill="#ED8A2F"/>
<path d="M45.8174 35.2853C45.8409 35.3112 45.8681 35.3336 45.8981 35.3517C45.8507 35.4138 45.8083 35.4797 45.7712 35.5486C45.7682 35.4586 45.7839 35.3689 45.8174 35.2853Z" fill="#ED8A2F"/>
<path d="M45.7957 35.7694H45.6732C45.6811 35.7456 45.6905 35.7218 45.6999 35.6973L45.7813 35.6792C45.7842 35.7102 45.79 35.7398 45.7957 35.7694Z" fill="#ED8A2F"/>
<path d="M45.7727 35.5962C45.7727 35.6244 45.7778 35.6525 45.7814 35.6814L45.7 35.6994C45.7165 35.659 45.7338 35.6208 45.754 35.5825C45.7598 35.5877 45.766 35.5923 45.7727 35.5962Z" fill="#ED8A2F"/>
<path d="M45.8172 35.2853C45.7837 35.3689 45.768 35.4586 45.7711 35.5486C45.7647 35.5596 45.759 35.5709 45.7538 35.5825C45.6789 35.5169 45.6317 35.4254 45.6216 35.3263C45.6116 35.2272 45.6395 35.128 45.6997 35.0487H45.7069C45.7177 35.1372 45.7563 35.2201 45.8172 35.2853Z" fill="#ED8A2F"/>
<path d="M45.7712 35.5486C45.7712 35.5645 45.7712 35.5804 45.7712 35.5962C45.7645 35.5923 45.7582 35.5877 45.7524 35.5825C45.7581 35.5709 45.7644 35.5596 45.7712 35.5486Z" fill="#ED8A2F"/>
<path d="M45.7059 35.0407C45.7059 35.0407 45.7059 35.0459 45.7059 35.0489H45.6985L45.7059 35.0407Z" fill="#ED8A2F"/>
<path d="M45.7056 35.04L45.6999 35.048H45.2841C45.4282 35.0184 45.5665 34.9874 45.7071 34.9563C45.7038 34.9841 45.7033 35.0122 45.7056 35.04Z" fill="#ED8A2F"/>
<path d="M45.7538 35.5825C45.7337 35.6208 45.7164 35.659 45.6998 35.6994C45.5859 35.7246 45.4713 35.7485 45.356 35.7715H45.0678C45.049 35.5346 45.0817 35.2963 45.1636 35.0732L45.2811 35.0487H45.6969C45.637 35.1283 45.6096 35.2277 45.6202 35.3268C45.6307 35.426 45.6785 35.5173 45.7538 35.5825Z" fill="#ED8A2F"/>
<path d="M45.6998 35.703C45.6905 35.7261 45.6811 35.7499 45.6732 35.7752H45.3561C45.4714 35.7485 45.586 35.7247 45.6998 35.703Z" fill="#ED8A2F"/>
<path d="M45.0708 35.7752H45.3591L45.078 35.8329C45.073 35.8112 45.0715 35.7932 45.0708 35.7752Z" fill="#ED8A2F"/>
<path d="M45.284 35.0537L45.1665 35.0783C45.1665 35.0703 45.1723 35.0624 45.1759 35.0544L45.284 35.0537Z" fill="#ED8A2F"/>
<path d="M43.6698 35.0638L45.1759 35.0523C45.1759 35.0602 45.1694 35.0682 45.1665 35.0761C44.7774 35.1564 44.3823 35.2312 43.9811 35.3004C43.8478 35.0638 43.4493 35.0703 43.3325 35.3228C43.3496 35.247 43.3927 35.1796 43.4544 35.1323C43.516 35.0849 43.5922 35.0607 43.6698 35.0638Z" fill="#ED8A2F"/>
<path d="M45.0707 35.7752C45.0707 35.7939 45.0707 35.812 45.075 35.8307C44.7387 35.8985 44.3966 35.962 44.0488 36.0212C44.0416 35.9418 44.0366 35.8632 44.033 35.7831L45.0707 35.7752Z" fill="#ED8A2F"/>
<path d="M45.0708 35.7751L44.0331 35.7831C44.028 35.6814 44.0259 35.5796 44.0252 35.4772C44.0257 35.4157 44.0106 35.3551 43.9812 35.3012C44.3828 35.2319 44.778 35.1571 45.1666 35.0768C45.0847 35.2999 45.052 35.5382 45.0708 35.7751Z" fill="#ED8A2F"/>
<path d="M44.033 35.7824H43.6727C43.4327 35.7824 43.3174 35.5934 43.3253 35.4072C43.5466 35.3719 43.7664 35.3351 43.984 35.2976C44.0134 35.3515 44.0285 35.4121 44.028 35.4736C44.0258 35.5789 44.028 35.6807 44.033 35.7824Z" fill="#ED8A2F"/>
<path d="M43.8933 37.6033C44.1095 37.7094 44.1145 37.9265 44.0129 38.0838C43.8961 38.0059 43.8002 37.9007 43.7333 37.7772C43.6591 37.6417 43.5973 37.4997 43.5488 37.353C43.6491 37.4548 43.7655 37.5394 43.8933 37.6033Z" fill="#EFE137"/>
<path d="M43.9825 35.3005C43.7663 35.3387 43.5451 35.3726 43.3239 35.4101C43.3248 35.3821 43.3287 35.3543 43.3354 35.3272C43.3354 35.3272 43.3354 35.3272 43.3354 35.3228C43.4492 35.0703 43.8477 35.0638 43.9825 35.3005Z" fill="#ED8A2F"/>
<path d="M43.7333 37.7771C43.8001 37.9006 43.8961 38.0059 44.0129 38.0837C43.9663 38.1654 43.89 38.226 43.8 38.2529C43.7099 38.2797 43.613 38.2708 43.5293 38.228C42.7892 37.8601 42.3965 37.0521 42.4599 36.265C42.7059 36.2323 42.9502 36.1974 43.1928 36.1604C43.1485 36.3735 43.1579 36.5942 43.22 36.8028C43.2822 37.0113 43.3951 37.2011 43.5488 37.3551C43.5974 37.5011 43.6592 37.6423 43.7333 37.7771Z" fill="#EFE137"/>
<path d="M43.3281 36.1359C43.3502 36.5485 43.4243 36.9567 43.5486 37.3508C43.395 37.1968 43.282 37.007 43.2199 36.7985C43.1577 36.5899 43.1484 36.3692 43.1926 36.1561C43.238 36.1525 43.2827 36.1453 43.3281 36.1359Z" fill="#41454F"/>
<path d="M43.3053 35.5356C43.3299 35.5824 43.3433 35.6342 43.3445 35.687C43.3458 35.7398 43.3348 35.7922 43.3125 35.8401C43.3082 35.7362 43.306 35.6345 43.3053 35.5356Z" fill="#EFE137"/>
<path d="M43.3282 36.1359C43.2828 36.1431 43.2381 36.1503 43.1927 36.1561C43.2156 36.0542 43.2517 35.9557 43.3001 35.8632C43.3044 35.8545 43.3088 35.8466 43.3124 35.8379C43.3153 35.9375 43.321 36.037 43.3282 36.1359Z" fill="black"/>
<path d="M43.3123 35.8401C43.3346 35.7922 43.3456 35.7398 43.3443 35.687C43.3431 35.6342 43.3296 35.5824 43.3051 35.5356C43.3051 35.5154 43.3051 35.496 43.3051 35.4765C43.3048 35.4548 43.3065 35.433 43.3101 35.4116H43.3231C43.3152 35.5977 43.4305 35.7889 43.6704 35.7867H44.0307C44.0343 35.8668 44.0394 35.9454 44.0466 36.0248C43.8081 36.0659 43.5681 36.1056 43.326 36.1424C43.3209 36.0371 43.3152 35.9375 43.3123 35.8401Z" fill="#ED8A2F"/>
<path d="M43.3094 35.4144C43.3135 35.3853 43.3217 35.3568 43.334 35.33C43.3272 35.3572 43.3234 35.385 43.3224 35.413L43.3094 35.4144Z" fill="#ED8A2F"/>
<path d="M43.3123 35.8401C43.3123 35.8487 43.3044 35.8567 43.3001 35.8653C43.2517 35.9579 43.2156 36.0563 43.1927 36.1582C42.9501 36.1958 42.7058 36.2306 42.4598 36.2628C42.4801 35.9983 42.5536 35.7406 42.676 35.5053C42.8581 35.4799 43.0395 35.4532 43.2201 35.4253C43.255 35.4567 43.284 35.4941 43.3059 35.5356C43.3059 35.6345 43.308 35.7362 43.3123 35.8401Z" fill="#EFE137"/>
<path d="M43.3051 35.5356C43.2833 35.4941 43.2542 35.4567 43.2194 35.4253L43.3094 35.4116C43.3059 35.433 43.3042 35.4548 43.3044 35.4765C43.3044 35.496 43.3044 35.5154 43.3051 35.5356Z" fill="black"/>
<path d="M42.6774 35.501C42.8021 35.2622 43.063 35.2846 43.2194 35.4289C43.0392 35.4567 42.8579 35.4834 42.6753 35.5089L42.6774 35.501Z" fill="#EFE137"/>
<path d="M38.5678 51.6835C38.6989 51.9822 38.4013 52.3328 38.1296 52.2167C38.1743 52.0972 38.2008 51.9717 38.2082 51.8444L38.5116 51.6107C38.439 51.5284 38.367 51.4459 38.2954 51.3632C38.4154 51.4411 38.5101 51.5525 38.5678 51.6835Z" fill="black"/>
<path d="M38.2954 51.3632C38.367 51.4459 38.439 51.5284 38.5116 51.6107L38.2082 51.8444C38.2169 51.6744 38.1925 51.5043 38.1361 51.3437C38.1287 51.321 38.1191 51.2989 38.1073 51.2781C38.1475 51.2858 38.1862 51.2999 38.2219 51.3199C38.2478 51.3339 38.2723 51.3483 38.2954 51.3632Z" fill="black"/>
<path d="M38.1094 51.2781C38.1211 51.2989 38.1308 51.3209 38.1382 51.3437C38.1945 51.5043 38.219 51.6744 38.2102 51.8444L37.9472 52.0471C37.9459 52.023 37.9371 51.9999 37.922 51.9812C37.9068 51.9624 37.8862 51.9489 37.8629 51.9425L37.8305 51.923L37.7123 51.7867C37.6028 51.5501 37.8269 51.2247 38.1094 51.2781Z" fill="black"/>
<path d="M38.0012 52.1207C37.9428 52.0551 37.8852 51.9894 37.8275 51.923L37.8599 51.9425C37.8832 51.9489 37.9039 51.9624 37.919 51.9812C37.9341 52 37.943 52.023 37.9442 52.0471L38.2073 51.8444C38.1999 51.9717 38.1734 52.0972 38.1287 52.2167C38.0797 52.1945 38.0361 52.1617 38.0012 52.1207Z" fill="black"/>
<path d="M37.7129 51.7867L37.8311 51.9231C37.7796 51.8897 37.7386 51.8424 37.7129 51.7867Z" fill="black"/>
<path d="M38.1094 51.278C37.8269 51.2247 37.605 51.55 37.7102 51.7867C37.6144 51.6756 37.5192 51.5645 37.4219 51.4519C37.3852 51.0941 37.9293 50.9512 38.1094 51.278Z" fill="black"/>
<path d="M35.6462 43.9606C35.982 43.6403 36.4915 44.1496 36.1557 44.4706C35.5061 45.0913 34.9648 45.8165 34.5544 46.6162C34.469 46.6019 34.3814 46.6066 34.2979 46.6299C34.1805 46.5687 34.0476 46.5436 33.916 46.5577C33.8956 46.5094 33.8864 46.4571 33.8891 46.4048C33.8919 46.3524 33.9065 46.3014 33.9318 46.2555C34.3718 45.4003 34.9512 44.6247 35.6462 43.9606Z" fill="#D3410F"/>
<path d="M34.8802 14.5397C35.0964 14.1278 35.7176 14.4935 35.5028 14.9004C35.3936 15.1096 35.3002 15.3266 35.2232 15.5497C35.1892 15.4142 35.1208 15.2899 35.0246 15.1887C34.9284 15.0876 34.8076 15.0131 34.6741 14.9726C34.7368 14.8283 34.8059 14.6826 34.8802 14.5397Z" fill="#CE2807"/>
<path d="M35.2232 15.5497C35.1389 15.7938 35.0729 16.0439 35.0257 16.2979L34.4961 15.891C34.5135 15.8769 34.5271 15.8586 34.5355 15.8379C34.544 15.8171 34.547 15.7946 34.5445 15.7723C34.5419 15.7501 34.5337 15.7289 34.5207 15.7106C34.5077 15.6924 34.4903 15.6777 34.4701 15.668L34.4355 15.6572C34.4998 15.4251 34.5795 15.1976 34.6741 14.9762C34.8072 15.0164 34.9276 15.0903 35.0238 15.1908C35.12 15.2913 35.1887 15.4149 35.2232 15.5497Z" fill="#CE2807"/>
<path d="M34.6618 14.9726H34.674C34.5795 15.194 34.4998 15.4215 34.4355 15.6536C34.0334 15.5072 34.2265 14.8535 34.6618 14.9726Z" fill="#CE2807"/>
<path d="M34.3303 16.106C34.3591 15.9545 34.3937 15.8044 34.4355 15.6572L34.4701 15.6681C34.4902 15.6777 34.5076 15.6924 34.5206 15.7106C34.5336 15.7289 34.5418 15.7501 34.5444 15.7724C34.547 15.7946 34.5439 15.8172 34.5354 15.8379C34.527 15.8586 34.5134 15.8769 34.496 15.891L35.0257 16.2979C35.0728 16.0439 35.1388 15.7938 35.2231 15.5497C35.3211 15.9003 35.2123 16.3101 34.8628 16.5136C34.5717 16.6802 34.274 16.4061 34.3303 16.106Z" fill="#CE2807"/>
<path d="M34.45 46.741C34.4056 46.6955 34.3543 46.6572 34.298 46.6277C34.3815 46.6044 34.469 46.5997 34.5545 46.614C34.5305 46.6642 34.4947 46.7078 34.45 46.741Z" fill="black"/>
<path d="M34.45 46.741C34.396 46.7769 34.3325 46.7961 34.2677 46.7961C34.2028 46.7961 34.1394 46.7769 34.0853 46.741C34.1476 46.6862 34.2216 46.6462 34.3015 46.6241C34.3568 46.655 34.4069 46.6945 34.45 46.741Z" fill="black"/>
<path d="M34.0852 46.7467C34.1392 46.7827 34.2026 46.8019 34.2675 46.8019C34.3324 46.8019 34.3958 46.7827 34.4498 46.7467C34.5207 46.8189 34.5746 46.9059 34.6076 47.0014L33.9497 46.9148C33.9858 46.852 34.0315 46.7953 34.0852 46.7467Z" fill="black"/>
<path d="M34.2979 46.6299C34.2179 46.652 34.144 46.692 34.0817 46.7468C34.0058 46.7037 33.9463 46.6367 33.9124 46.5563C34.0453 46.5418 34.1796 46.5675 34.2979 46.6299Z" fill="black"/>
<path d="M33.583 43.1237C33.8284 43.6517 33.8708 44.2517 33.7019 44.809C33.5664 45.2519 32.871 45.0622 33.0072 44.6171C33.1296 44.2477 33.1132 43.8462 32.9611 43.488C32.7759 43.0667 33.3971 42.701 33.583 43.1237Z" fill="#D3410F"/>
<path d="M33.9554 47.2741C33.9468 47.2613 33.9389 47.2481 33.9316 47.2345C33.9375 47.2488 33.9455 47.2622 33.9554 47.2741ZM34.5716 47.2741C34.5393 47.3263 34.4942 47.3694 34.4406 47.3993C34.387 47.4291 34.3266 47.4448 34.2653 47.4448C34.204 47.4448 34.1436 47.4291 34.09 47.3993C34.0364 47.3694 33.9913 47.3263 33.959 47.2741C33.9497 47.2741 33.9266 47.2792 33.887 47.3246C33.8363 47.3719 33.7815 47.4146 33.7234 47.4523C33.6273 47.5298 33.5189 47.5906 33.4027 47.632C33.1815 47.7039 32.9436 47.7064 32.721 47.6392C32.4352 47.5581 32.1904 47.3721 32.0356 47.1183C32.1077 47.057 32.1927 46.9899 32.161 46.9452C32.3772 46.9581 32.61 46.7908 32.5451 46.5274C32.5518 46.5245 32.5581 46.5209 32.5639 46.5166C32.5741 46.5448 32.5808 46.5741 32.5841 46.6039C32.6071 46.8045 32.8327 46.956 33.0222 46.9646C33.2542 46.9791 33.3868 46.7734 33.5692 46.6645C33.675 46.6003 33.794 46.5608 33.9172 46.5491C33.9512 46.6295 34.0107 46.6965 34.0866 46.7395C34.0332 46.787 33.9875 46.8425 33.9511 46.904L34.609 46.9906C34.576 46.895 34.5221 46.808 34.4512 46.7359C34.4953 46.7033 34.5309 46.6605 34.555 46.6111C34.7605 46.6483 34.9443 46.762 35.0695 46.9293C35.4443 47.4163 35.7354 47.9847 36.082 48.4926C36.7637 49.4901 37.5028 50.4469 38.2958 51.3582C38.2728 51.3428 38.2488 51.3283 38.2238 51.3149C38.1881 51.2949 38.1494 51.2808 38.1092 51.273C37.9305 50.9462 37.3849 51.0891 37.4246 51.4469C36.9691 50.9044 36.5312 50.3477 36.1109 49.7768C35.8096 49.367 35.5182 48.9505 35.2367 48.5273C35.1027 48.3243 34.9706 48.1201 34.8404 47.9148C34.7236 47.7351 34.4534 47.4718 34.5716 47.2756V47.2741Z" fill="black"/>
<path d="M32.5027 46.4127C32.529 46.4449 32.5493 46.4815 32.5625 46.5209C32.5567 46.5252 32.5504 46.5289 32.5438 46.5318C32.5423 46.5234 32.5401 46.5152 32.5373 46.5072C32.533 46.4942 32.5286 46.4812 32.525 46.4683C32.5193 46.4491 32.5118 46.4305 32.5027 46.4127Z" fill="black"/>
<path d="M32.5373 46.5072C32.5401 46.5152 32.5423 46.5234 32.5438 46.5318C32.368 46.6205 32.0977 46.5152 32.0192 46.2995C32.1012 46.2637 32.1926 46.2555 32.2797 46.2759C32.3668 46.2963 32.445 46.3443 32.5027 46.4127C32.5118 46.4305 32.5193 46.4491 32.5251 46.4683C32.5287 46.4813 32.533 46.4943 32.5373 46.5072Z" fill="black"/>
<path d="M32.1598 46.9495C32.1915 46.9942 32.1072 47.0613 32.0344 47.1226C31.9779 47.028 31.934 46.9264 31.9039 46.8203C31.9347 46.8591 31.9735 46.8907 32.0177 46.913C32.0619 46.9353 32.1103 46.9477 32.1598 46.9495Z" fill="black"/>
<path d="M32.0005 46.2244C32.0894 46.1987 32.1833 46.1957 32.2736 46.2158C32.3241 46.2293 32.3709 46.254 32.4106 46.2881C32.4503 46.3222 32.4818 46.3648 32.5028 46.4127C32.4451 46.3443 32.3669 46.2963 32.2798 46.2759C32.1926 46.2555 32.1013 46.2637 32.0192 46.2994C32.0103 46.2752 32.004 46.25 32.0005 46.2244Z" fill="black"/>
<path d="M32.0343 47.1226C32.1891 47.3764 32.4338 47.5624 32.7196 47.6435C32.9423 47.7107 33.1802 47.7082 33.4014 47.6363C33.5176 47.5948 33.626 47.5341 33.7221 47.4566C33.7802 47.4189 33.8349 47.3762 33.8856 47.3289C33.9267 47.2835 33.9498 47.2777 33.9577 47.2784C33.99 47.3306 34.0351 47.3737 34.0887 47.4036C34.1423 47.4335 34.2026 47.4491 34.264 47.4491C34.3253 47.4491 34.3856 47.4335 34.4392 47.4036C34.4928 47.3737 34.5379 47.3306 34.5702 47.2784C34.4521 47.4747 34.7223 47.738 34.8391 47.9227C34.9688 48.128 35.1009 48.3322 35.2354 48.5352C35.5165 48.9584 35.8078 49.3749 36.1095 49.7847C36.5289 50.3551 36.9669 50.9118 37.4233 51.4548C37.4264 51.4831 37.4326 51.5109 37.442 51.5378C37.718 52.353 36.6695 52.7245 36.054 52.7693C35.2844 52.8256 34.5205 52.7332 33.7538 52.8573C33.3308 52.9251 32.9157 53.0384 32.4912 53.1019C32.0372 53.1689 31.62 53.1242 31.1732 53.042C30.7264 52.9597 30.3019 52.9626 29.858 52.9309C29.5279 52.9071 28.9594 52.7974 28.9053 52.3804C28.8934 52.2902 28.8506 52.2069 28.7842 52.1447C28.7179 52.0825 28.6321 52.0452 28.5414 52.0392C28.5482 52.0346 28.5547 52.0295 28.5608 52.024C28.9976 51.675 29.3629 51.2448 29.6367 50.7572C29.6693 50.7036 29.6862 50.6419 29.6855 50.5791C29.6847 50.5163 29.6663 50.4551 29.6324 50.4022L30.3884 49.2862C30.6673 48.875 30.9483 48.4645 31.2459 48.067C31.4081 47.8505 31.5767 47.6341 31.7504 47.4307C31.8205 47.3484 31.8926 47.2674 31.9666 47.1875C31.9876 47.1643 32.0102 47.1426 32.0343 47.1226Z" fill="#54502C"/>
<path d="M32.2146 42.6519C32.7196 43.7978 32.8866 45.0645 32.696 46.3023C32.6917 46.3462 32.6775 46.3885 32.6544 46.4261C32.6313 46.4636 32.5999 46.4953 32.5627 46.5188C32.5494 46.4794 32.5292 46.4427 32.5028 46.4106C32.4818 46.3626 32.4503 46.3201 32.4107 46.286C32.371 46.2519 32.3242 46.2272 32.2737 46.2136C32.1834 46.1936 32.0894 46.1966 32.0006 46.2223C31.9952 46.1845 31.9952 46.1461 32.0006 46.1083C32.1557 45.0589 32.0141 43.987 31.592 43.0141C31.4089 42.5942 32.0301 42.2277 32.2146 42.6519Z" fill="#D3410F"/>
<path d="M32.5437 46.5318C32.6086 46.7951 32.378 46.9646 32.1596 46.9495C32.1388 46.9283 32.1113 46.9151 32.0818 46.912L31.8772 46.7071C31.8707 46.6746 31.8656 46.6414 31.862 46.6082C31.8502 46.5466 31.8592 46.4828 31.8876 46.4268C31.9161 46.3709 31.9623 46.3261 32.0191 46.2994C32.0977 46.5151 32.3679 46.6205 32.5437 46.5318Z" fill="black"/>
<path d="M33.7019 44.809C33.8707 44.2517 33.8284 43.6517 33.583 43.1237C33.3971 42.7002 32.7759 43.0667 32.9611 43.4844C33.1132 43.8426 33.1296 44.244 33.0072 44.6135C32.871 45.0622 33.5664 45.2519 33.7019 44.809ZM34.8931 39.4703C35.9481 39.6582 36.9586 40.0424 37.8722 40.603C41.456 42.7673 43.4752 47.0959 43.0803 51.2305C42.8778 53.3493 42.0065 55.36 40.4204 56.8C39.0843 58.012 37.3699 58.7651 35.5979 59.0501C31.785 59.6626 27.9 57.7602 25.7972 54.5642C24.638 52.7842 24.0644 50.6855 24.157 48.5626C24.237 46.5267 24.8993 44.234 26.3341 42.7305C26.6793 42.356 27.0977 42.0567 27.5635 41.8511C27.918 41.7017 27.8431 41.1838 27.5556 41.1297C28.6884 40.3267 30.2053 39.9883 31.5018 39.6868C32.6159 39.422 33.7531 39.2748 34.8931 39.4689V39.4703ZM28.6841 42.0026C28.8207 42.269 29.0321 42.4897 29.2923 42.6375C29.3333 42.6646 29.3794 42.683 29.4277 42.6916C29.4761 42.7002 29.5257 42.6989 29.5735 42.6876C29.6213 42.6763 29.6663 42.6554 29.7057 42.6261C29.7451 42.5968 29.7782 42.5597 29.8028 42.5172C29.8274 42.4746 29.843 42.4275 29.8488 42.3786C29.8545 42.3298 29.8502 42.2803 29.8361 42.2332C29.8221 42.1861 29.7985 42.1424 29.767 42.1047C29.7354 42.067 29.6965 42.0362 29.6526 42.0141C29.6295 42.0011 29.6065 41.9874 29.5842 41.973L29.5488 41.9499C29.5135 41.9201 29.4798 41.8883 29.448 41.8547C29.4328 41.8395 29.4191 41.823 29.4047 41.8071L29.3946 41.7955C29.3658 41.7443 29.3327 41.6967 29.3053 41.6433C29.257 41.5608 29.178 41.5008 29.0855 41.4766C28.9931 41.4523 28.8948 41.4659 28.8123 41.5142C28.7334 41.564 28.6763 41.642 28.6525 41.7324C28.6287 41.8228 28.64 41.9188 28.6841 42.0011V42.0026ZM28.2128 52.1929C28.185 52.2507 28.1757 52.3157 28.1861 52.379C28.2115 52.6053 28.2944 52.8213 28.4269 53.0065C28.5593 53.1916 28.7369 53.3397 28.9428 53.4366C29.4112 53.674 29.9358 53.6458 30.4453 53.6704C31.0218 53.6985 31.5659 53.8868 32.146 53.8572C32.7139 53.8255 33.2623 53.6711 33.8201 53.573C34.8109 53.3984 35.8552 53.6574 36.8273 53.3616C37.3923 53.1899 37.932 52.7635 38.1295 52.2181C38.4012 52.3371 38.6988 51.9836 38.5676 51.685C38.51 51.5539 38.4153 51.4426 38.2952 51.3647C37.5022 50.4534 36.7631 49.4966 36.0814 48.4991C35.7348 47.9941 35.4437 47.4227 35.0689 46.9358C34.9437 46.7684 34.7599 46.6548 34.5544 46.6176C34.9648 45.818 35.506 45.0928 36.1557 44.4721C36.4915 44.151 35.982 43.6417 35.6462 43.962C34.9513 44.6257 34.3719 45.4008 33.9318 46.2555C33.9064 46.3013 33.8919 46.3524 33.8891 46.4048C33.8864 46.4571 33.8955 46.5094 33.9159 46.5577C33.7927 46.5695 33.6737 46.609 33.5678 46.6732C33.3855 46.7821 33.2529 46.9877 33.0209 46.9733C32.8313 46.9617 32.6058 46.8102 32.5827 46.6126C32.5795 46.5828 32.5727 46.5535 32.5626 46.5253C32.5998 46.5018 32.6312 46.4701 32.6543 46.4326C32.6774 46.395 32.6916 46.3527 32.6959 46.3088C32.8865 45.071 32.7195 43.8043 32.2145 42.6584C32.03 42.2342 31.4088 42.6007 31.5926 43.0191C32.0147 43.9921 32.1563 45.064 32.0012 46.1133C31.9958 46.1511 31.9958 46.1895 32.0012 46.2273C31.8481 46.2786 31.7107 46.3683 31.6019 46.4878C31.9911 46.0231 31.8008 45.3739 31.5393 44.866C31.1767 44.1701 30.7623 43.5026 30.2997 42.869C30.0302 42.4961 29.4047 42.8561 29.6771 43.2298C30.0105 43.6882 30.3196 44.1638 30.6031 44.6546C30.8028 45.0023 31.3807 45.7555 30.9584 46.1076C30.5981 46.4048 31.1134 46.9127 31.4679 46.6176C31.4874 46.6017 31.5054 46.5852 31.5227 46.5686C31.3886 46.7186 31.2697 46.8867 31.1624 47.0166C30.7833 47.4711 30.4352 47.9508 30.0987 48.4378C29.399 49.4478 28.7165 50.4722 28.0283 51.4909L27.9274 51.6402C27.7761 51.8632 27.9793 52.1655 28.2128 52.1914V52.1929Z" fill="#9E9E9E"/>
<path d="M31.9039 46.8203C31.8938 46.7836 31.8844 46.7482 31.8772 46.7071L32.0819 46.912C32.1114 46.9151 32.1389 46.9283 32.1597 46.9495C32.1103 46.9477 32.0618 46.9353 32.0176 46.913C31.9735 46.8907 31.9346 46.8591 31.9039 46.8203Z" fill="black"/>
<path d="M31.8757 46.7071C31.8829 46.746 31.8923 46.7835 31.9024 46.8203C31.8744 46.7841 31.8533 46.743 31.8404 46.6991C31.8368 46.6854 31.8324 46.6724 31.8281 46.6595L31.8757 46.7071Z" fill="black"/>
<path d="M30.299 42.8662C30.7616 43.4997 31.176 44.1673 31.5385 44.8631C31.8001 45.3681 31.9903 46.0174 31.6012 46.4849C31.5745 46.5116 31.5479 46.5397 31.5219 46.5686C31.5046 46.5852 31.4866 46.6017 31.4672 46.6176C31.1126 46.9127 30.6024 46.4048 30.9577 46.1076C31.38 45.7555 30.802 45.0023 30.6024 44.6546C30.3188 44.1638 30.0097 43.6882 29.6764 43.2298C29.404 42.8532 30.0295 42.4932 30.299 42.8662Z" fill="#D3410F"/>
<path d="M31.6012 46.4849C31.5765 46.5143 31.5501 46.5423 31.522 46.5686C31.5479 46.5397 31.5746 46.5116 31.6012 46.4849Z" fill="black"/>
<path d="M31.3773 22.4178C31.6389 22.5773 31.8205 22.7785 32.1347 22.8507C32.4301 22.9142 32.7342 22.86 33.0254 22.8059C34.4321 22.5448 35.8532 22.552 37.244 22.9055C38.5772 23.2439 39.7583 24.0598 41.1808 23.8874C42.4593 23.7323 43.6894 23.3968 44.9901 23.5656C45.6029 23.6355 46.192 23.8426 46.7139 24.1716C47.2594 24.5266 47.6961 24.9897 48.3202 25.2199C49.0344 25.4839 49.8177 25.52 50.5542 25.7126C51.344 25.9196 52.106 26.2214 52.8235 26.6115C53.4223 26.9369 53.9844 27.3279 54.4442 27.8379C54.6669 28.08 54.8529 28.3535 54.9962 28.6496C55.0662 28.7972 55.1215 28.9514 55.1612 29.1098C55.1803 29.1786 55.1952 29.2485 55.2059 29.3191C55.2095 29.345 55.2124 29.3703 55.216 29.3963C54.9868 29.4165 54.7634 29.6675 54.9047 29.9395C54.9998 30.122 55.1324 30.197 55.2715 30.1978C55.0589 30.4831 54.8227 30.7501 54.5653 30.9957C54.2426 31.3038 53.8977 31.5876 53.5333 31.8448L53.5283 31.8376C53.7126 31.7107 53.8504 31.527 53.921 31.3145C54.1084 30.785 53.9275 30.2858 53.5852 29.8717C53.1384 29.3263 52.492 28.9338 51.9277 28.5219C51.3029 28.0609 50.6825 27.5934 50.0541 27.1396C48.8987 26.2918 47.5819 25.6904 46.185 25.3728C44.8028 25.064 43.3745 24.9912 41.9642 25.0316C40.3564 25.0777 38.7566 25.2595 37.151 25.3476C36.367 25.3908 35.5786 25.4197 34.7931 25.3822C33.991 25.3461 33.248 25.1405 32.4705 24.9616C31.2226 24.6595 29.9091 24.7934 28.7477 25.3411C28.1863 25.6069 27.6764 25.9701 27.2415 26.4138C26.7789 26.8871 26.4142 27.5018 25.7505 27.7124C24.9874 27.9527 24.114 27.8444 23.3249 27.9101C22.471 27.9759 21.6236 28.1083 20.7904 28.3062C20.6289 28.3458 20.4639 28.3935 20.2989 28.4504C20.2268 27.3683 20.8495 26.3518 21.6681 25.6578C22.6835 24.7921 24.0073 24.2871 25.2389 23.8232C26.594 23.3129 27.9847 22.903 29.3998 22.5967C29.726 22.526 30.0537 22.4609 30.3828 22.4012C30.7107 22.3269 31.0739 22.2331 31.3773 22.4178Z" fill="#ED8A2F"/>
<path d="M29.3977 41.7943C29.357 41.749 29.4144 41.8257 29.3977 41.7943C29.397 41.7936 29.3977 41.7936 29.3977 41.7943Z" fill="black"/>
<path d="M29.0157 50.39C29.1692 50.1151 29.5043 50.1938 29.634 50.3994L28.5487 52.0075L28.0558 51.514C28.451 51.2109 28.778 50.8279 29.0157 50.39Z" fill="black"/>
<path d="M28.8131 41.5077C28.8955 41.4594 28.9938 41.4458 29.0862 41.4701C29.1787 41.4943 29.2577 41.5543 29.306 41.6368C29.3334 41.6902 29.3665 41.7378 29.3953 41.7891C29.3557 41.7458 29.4126 41.8215 29.3953 41.7891L29.4054 41.8006C29.4198 41.8165 29.4335 41.8331 29.4487 41.8482C29.4805 41.8818 29.5142 41.9136 29.5495 41.9434L29.5849 41.9665C29.6072 41.981 29.6302 41.9946 29.6533 42.0076C29.6972 42.0297 29.7361 42.0605 29.7677 42.0982C29.7992 42.1359 29.8228 42.1796 29.8368 42.2267C29.8509 42.2738 29.8552 42.3233 29.8495 42.3721C29.8437 42.421 29.8281 42.4681 29.8035 42.5107C29.7789 42.5532 29.7458 42.5903 29.7064 42.6196C29.667 42.6489 29.622 42.6699 29.5742 42.6811C29.5264 42.6924 29.4768 42.6938 29.4284 42.6851C29.3801 42.6765 29.334 42.6581 29.293 42.631C29.0328 42.4832 28.8214 42.2625 28.6848 41.9961C28.6402 41.9136 28.6287 41.8172 28.6525 41.7265C28.6763 41.6358 28.7337 41.5576 28.8131 41.5077Z" fill="#D3410F"/>
<path d="M29.6339 50.3994C29.6677 50.4522 29.6861 50.5135 29.6869 50.5762C29.6876 50.639 29.6708 50.7007 29.6382 50.7543C29.3643 51.242 28.999 51.6721 28.5623 52.0212L28.5486 52.0039L29.6339 50.3994Z" fill="black"/>
<path d="M28.9067 52.3776C28.9608 52.7945 29.5294 52.9042 29.8594 52.928C30.3033 52.9598 30.735 52.9576 31.1746 53.0391C31.6142 53.1206 32.0394 53.1661 32.4926 53.099C32.9171 53.0355 33.3322 52.9222 33.7552 52.8544C34.522 52.7303 35.2858 52.8227 36.0555 52.7664C36.6709 52.7217 37.7194 52.3501 37.4434 51.5349C37.4341 51.5081 37.4278 51.4802 37.4247 51.452C37.5191 51.5645 37.6142 51.6756 37.713 51.7867C37.7386 51.8424 37.7796 51.8897 37.8311 51.9231C37.8888 51.9894 37.9464 52.0551 38.0048 52.1207C38.0397 52.1618 38.0833 52.1945 38.1324 52.2167C37.9349 52.7621 37.3951 53.1885 36.8302 53.3602C35.858 53.6559 34.8124 53.3969 33.8229 53.5715C33.2652 53.6696 32.7168 53.824 32.1489 53.8558C31.5688 53.8875 31.0225 53.6971 30.4482 53.6689C29.9387 53.6444 29.4141 53.6689 28.9457 53.4352C28.7398 53.3383 28.5622 53.1902 28.4297 53.005C28.2973 52.8199 28.2144 52.6039 28.189 52.3776C28.1785 52.3142 28.1878 52.2493 28.2156 52.1914C28.2893 52.2002 28.3633 52.1794 28.4218 52.1337C28.4636 52.102 28.5054 52.0695 28.5457 52.0363C28.6359 52.043 28.721 52.0806 28.7868 52.1427C28.8525 52.2049 28.8949 52.2878 28.9067 52.3776Z" fill="black"/>
<path d="M32.0344 47.1226C32.0104 47.1417 31.9878 47.1624 31.9667 47.1846C31.8946 47.265 31.8226 47.346 31.7505 47.4278C31.5747 47.6341 31.406 47.8469 31.246 48.0641C30.9484 48.4616 30.6695 48.8721 30.3885 49.2833L29.6325 50.3994C29.5028 50.1938 29.1677 50.1151 29.0142 50.39C28.7761 50.8266 28.4491 51.2083 28.0543 51.5104L28.0255 51.4909C28.7137 50.4722 29.3947 49.4485 30.0959 48.4378C30.4324 47.9508 30.7805 47.4711 31.1596 47.0166C31.2677 46.8867 31.3866 46.7186 31.5199 46.5686C31.548 46.5423 31.5744 46.5143 31.5991 46.4849C31.7079 46.3654 31.8453 46.2758 31.9984 46.2244C32.0021 46.2491 32.0084 46.2732 32.0171 46.2966C31.9604 46.3232 31.9141 46.368 31.8856 46.4239C31.8572 46.4799 31.8482 46.5437 31.86 46.6053C31.8636 46.6385 31.8687 46.6717 31.8752 46.7042L31.8276 46.6566C31.8319 46.6696 31.8362 46.6825 31.8398 46.6962C31.8528 46.7401 31.8739 46.7812 31.9018 46.8174C31.9324 46.9246 31.9769 47.0272 32.0344 47.1226Z" fill="black"/>
<path d="M28.5428 52.0363C28.5025 52.0695 28.4607 52.102 28.4189 52.1337C28.3605 52.1794 28.2864 52.2002 28.2128 52.1914C28.2455 52.1351 28.2947 52.09 28.3536 52.0623C28.4126 52.0346 28.4786 52.0255 28.5428 52.0363Z" fill="black"/>
<path d="M28.5429 52.0363C28.4787 52.0255 28.4127 52.0346 28.3537 52.0623C28.2948 52.09 28.2456 52.1351 28.2128 52.1914C27.9794 52.1654 27.7761 51.8617 27.9246 51.6402L28.0255 51.4909L28.0543 51.5104L28.5472 52.0038L28.5609 52.0212C28.5553 52.0266 28.5492 52.0317 28.5429 52.0363Z" fill="black"/>
<path d="M27.9612 35.2701C30.6341 35.7344 33.3425 35.9637 36.0554 35.9555C38.2698 35.9597 40.4817 35.8093 42.6752 35.5053C42.5528 35.7406 42.4792 35.9983 42.459 36.2628C40.3357 36.5419 38.1962 36.6802 36.0547 36.6769C32.6432 36.6769 29.3571 36.3393 26.4241 35.7023C26.6525 35.5025 27.175 35.193 27.309 35.5659C27.4654 35.9988 28.1615 35.8127 28.0037 35.374C27.9913 35.3387 27.9771 35.304 27.9612 35.2701Z" fill="black"/>
<path d="M26.3225 34.8741C26.894 34.5653 27.6679 34.6576 27.9612 35.2709C27.4246 35.1747 26.8988 35.0696 26.3838 34.9556C26.3673 34.9256 26.3467 34.8982 26.3225 34.8741Z" fill="#F72900"/>
<path d="M26.3837 34.9556C26.5509 35.2564 26.2396 35.7001 25.9138 35.4606C25.8658 35.4236 25.8161 35.3889 25.7646 35.3567C25.8921 35.1956 26.0441 35.0556 26.215 34.9419L26.2388 34.9267L26.3837 34.9556Z" fill="#F72900"/>
<path d="M25.6408 35.5234C25.8988 35.5854 26.1601 35.6451 26.4248 35.7023C26.3965 35.7263 26.37 35.7523 26.3456 35.7802C26.04 36.1409 25.9132 36.62 25.8159 37.0716C25.622 37.9474 25.4505 39.1075 24.4914 39.4754C23.6028 39.8166 23.027 38.974 23.076 38.1732C23.1265 37.3472 23.5171 36.5024 23.9538 35.7874L24.17 35.9663L24.1138 35.5292C24.059 35.6128 24.0049 35.6987 23.9509 35.7874L23.7527 35.6258C23.5365 35.4498 23.6345 35.1987 23.8248 35.0869C23.8622 35.0802 23.8997 35.073 23.9372 35.0653C24.0734 35.1057 24.2103 35.1461 24.3487 35.185L24.6816 35.4563C24.7379 35.5127 24.774 35.5862 24.7842 35.6653C24.7943 35.7444 24.778 35.8246 24.7378 35.8935C24.4609 36.3109 24.2306 36.7575 24.051 37.2253C23.9069 37.6026 23.7397 38.0412 23.7995 38.4517C23.8774 38.9899 24.3566 38.8297 24.6088 38.4928C24.8971 38.1126 24.9691 37.5802 25.0672 37.1271C25.1832 36.5803 25.3309 35.9952 25.6408 35.5234Z" fill="#CE2807"/>
<path d="M26.3839 34.9556L26.2397 34.9232C26.2671 34.9058 26.2945 34.8892 26.3233 34.8741C26.3473 34.8983 26.3676 34.9257 26.3839 34.9556Z" fill="#F72900"/>
<path d="M26.4523 42.2818C26.2808 42.5617 25.9176 42.4614 25.8074 42.2378C26.2502 41.7756 26.7816 41.4076 27.3697 41.1556C27.4272 41.1293 27.4912 41.1208 27.5535 41.1311C27.1118 41.4353 26.737 41.827 26.4523 42.2818Z" fill="black"/>
<path d="M26.4248 35.703C26.1601 35.6463 25.8987 35.5866 25.6407 35.5241C25.6797 35.4657 25.7207 35.4087 25.7647 35.3538C25.8161 35.386 25.8658 35.4207 25.9139 35.4577C26.2367 35.7008 26.5509 35.2572 26.3837 34.9527C26.8983 35.0677 27.4241 35.1727 27.9612 35.268C27.9773 35.3016 27.9918 35.336 28.0044 35.3711C28.1623 35.8098 27.4661 35.9966 27.3097 35.5631C27.1757 35.193 26.6533 35.5024 26.4248 35.703Z" fill="#F72900"/>
<path d="M25.7952 54.5628C27.9002 57.7587 31.7851 59.6612 35.5959 59.0487C37.3679 58.7601 39.0823 58.0105 40.4184 56.7985C42.0038 55.3556 42.8758 53.3479 43.0783 51.229C43.4732 47.093 41.4539 42.7644 37.8702 40.6016C36.9566 40.041 35.9461 39.6568 34.8911 39.4689C33.751 39.2748 32.6139 39.422 31.4976 39.6853C30.2004 39.9891 28.6871 40.3274 27.5514 41.1282C27.489 41.1179 27.4251 41.1264 27.3676 41.1527C26.7795 41.4047 26.2481 41.7727 25.8053 42.2349C25.7807 42.1842 25.7699 42.1279 25.7739 42.0716C25.778 42.0154 25.7967 41.9612 25.8283 41.9146C26.0826 41.4961 26.4054 41.1235 26.7832 40.8122C27.5759 40.1629 28.5343 39.7661 29.5058 39.4653C30.6588 39.1089 31.8557 38.7958 33.0563 38.6847C35.4135 38.4683 37.7145 39.4112 39.5176 40.888C43.043 43.7737 44.699 48.8411 43.4249 53.2397C42.8379 55.2876 41.533 57.0549 39.7496 58.2176C38.0744 59.3013 36.1232 59.8801 34.1286 59.8848C29.9223 59.8992 25.9393 57.1434 24.2977 53.2952C23.3886 51.1327 23.1838 48.7382 23.7125 46.4524C24.0512 44.9756 24.7092 43.3603 25.806 42.2371C25.9162 42.4607 26.2794 42.561 26.451 42.2811C26.7353 41.8249 27.11 41.4321 27.5521 41.1268C27.8403 41.1802 27.9124 41.6981 27.56 41.8482C27.0943 42.0538 26.6758 42.3532 26.3306 42.7276C24.8958 44.2333 24.2336 46.5238 24.1536 48.5597C24.0611 50.6833 24.6352 52.7825 25.7952 54.5628Z" fill="black"/>
<path d="M25.7647 35.3531C25.7207 35.4079 25.6797 35.4649 25.6408 35.5234C25.2012 35.4171 24.7707 35.3043 24.3494 35.185C24.3213 35.1612 24.2932 35.1389 24.265 35.1129C24.2127 35.0687 24.149 35.04 24.0813 35.0299C24.1296 35.0184 24.1786 35.0083 24.2254 35.0003C24.7646 34.9194 25.3144 35.0454 25.7647 35.3531Z" fill="black"/>
<path d="M25.6408 35.5234C25.331 35.9952 25.1832 36.5803 25.0679 37.1293C24.9721 37.5824 24.895 38.1148 24.6096 38.495C24.3574 38.8319 23.8781 38.992 23.8003 38.4538C23.7405 38.0412 23.9099 37.6025 24.0518 37.2274C24.2314 36.7596 24.4617 36.3131 24.7386 35.8956C24.7788 35.8268 24.7951 35.7466 24.7849 35.6675C24.7748 35.5884 24.7387 35.5149 24.6824 35.4585L24.3495 35.1872C24.7703 35.3055 25.2008 35.4176 25.6408 35.5234Z" fill="#CE2807"/>
<path d="M24.2651 35.1158C24.2932 35.1389 24.3214 35.1612 24.3495 35.1879C24.2111 35.149 24.0742 35.1086 23.938 35.0682L24.0821 35.0357C24.1493 35.0451 24.2126 35.0728 24.2651 35.1158Z" fill="#F72900"/>
<path d="M24.3488 34.2659C24.5689 34.2491 24.7903 34.259 25.0081 34.2955C25.4693 34.3669 25.9054 34.5521 26.2772 34.8344C26.2933 34.8465 26.3085 34.8598 26.3226 34.8741C26.2938 34.8893 26.2664 34.9058 26.239 34.9232C25.4497 34.7433 24.6901 34.5418 23.9603 34.3186C23.9834 34.3186 24.0064 34.3128 24.0324 34.3085C24.1371 34.289 24.2427 34.2748 24.3488 34.2659Z" fill="#F72900"/>
<path d="M24.1168 35.5292L24.173 35.9663L23.9568 35.7874C24.008 35.6987 24.062 35.6128 24.1168 35.5292Z" fill="#F72900"/>
<path d="M23.8961 35.0537C23.9551 35.0311 24.0189 35.0242 24.0813 35.0335L23.9372 35.066L23.8961 35.0537Z" fill="#F72900"/>
<path d="M23.8962 35.0537L23.938 35.066C23.9005 35.0737 23.863 35.0809 23.8256 35.0876C23.8479 35.0739 23.8715 35.0625 23.8962 35.0537Z" fill="#F72900"/>
<path d="M23.9603 34.3186C23.8479 34.3316 23.7441 34.3395 23.7441 34.4629C23.7472 34.4194 23.7415 34.3757 23.7274 34.3344C23.7133 34.2931 23.6911 34.2551 23.662 34.2226C23.7586 34.2558 23.8587 34.2876 23.9603 34.3186Z" fill="black"/>
<path d="M23.6022 34.9628L23.8962 35.053C23.871 35.0617 23.8469 35.0731 23.8241 35.0869C23.7488 35.1002 23.6721 35.1046 23.5957 35.0999C23.606 35.055 23.6082 35.0085 23.6022 34.9628Z" fill="#F72900"/>
<path d="M23.3946 35.0537C23.3282 35.026 23.2669 34.9875 23.213 34.9397C23.2518 34.9247 23.2877 34.903 23.3189 34.8755L23.6022 34.9657C23.6085 35.0109 23.6068 35.0568 23.5971 35.1013C23.5275 35.0967 23.459 35.0806 23.3946 35.0537Z" fill="#F72900"/>
<path d="M23.5972 35.0999C23.5503 35.3033 23.3384 35.3813 23.154 35.351C22.8743 35.3048 22.6726 35.0566 22.625 34.7868C22.6482 34.7607 22.6669 34.731 22.6805 34.6988C22.7451 34.7401 22.804 34.7899 22.8556 34.8467C22.8977 34.8989 22.9556 34.936 23.0206 34.9523C23.0857 34.9686 23.1543 34.9632 23.2159 34.9368C23.2698 34.9846 23.3311 35.0231 23.3975 35.0508C23.461 35.0779 23.5284 35.0945 23.5972 35.0999Z" fill="#F72900"/>
<path d="M23.6606 34.2241C23.5532 34.1902 23.4444 34.1555 23.342 34.1202C23.3996 34.1112 23.4584 34.116 23.5137 34.134C23.569 34.1521 23.6194 34.1829 23.6606 34.2241Z" fill="#F72900"/>
<path d="M23.319 34.8727C23.3759 34.8249 23.4188 34.7626 23.4429 34.6923C23.4878 34.7228 23.5254 34.7628 23.553 34.8096C23.5805 34.8564 23.5973 34.9087 23.6022 34.9628L23.319 34.8727Z" fill="#F72900"/>
<path d="M23.3398 34.1202C23.445 34.1555 23.551 34.1923 23.6583 34.2241C23.6874 34.2566 23.7097 34.2946 23.7238 34.3358C23.7379 34.3771 23.7436 34.4208 23.7405 34.4643C23.7448 34.3395 23.8479 34.3316 23.9567 34.32C24.685 34.5432 25.4446 34.7447 26.2354 34.9246L26.2116 34.9397C26.0406 35.0534 25.8886 35.1934 25.7612 35.3546C25.3112 35.0486 24.7626 34.9237 24.2248 35.0047C24.1751 35.0126 24.126 35.0227 24.0806 35.0342C24.0182 35.0249 23.9544 35.0319 23.8954 35.0544L23.6014 34.9643C23.5969 34.9102 23.5805 34.8579 23.5533 34.811C23.5261 34.7641 23.4889 34.7238 23.4443 34.693C23.4658 34.6324 23.4699 34.5669 23.4561 34.5041C23.4424 34.4412 23.4113 34.3835 23.3665 34.3373C23.312 34.2775 23.2527 34.2222 23.1892 34.1721C23.2353 34.1447 23.2866 34.127 23.3398 34.1202Z" fill="#F72900"/>
<path d="M23.3369 34.6663L23.3451 34.6738L23.3377 34.6678L23.3369 34.6663Z" fill="#F72900"/>
<path d="M23.3465 34.6882C23.3426 34.6822 23.3392 34.6758 23.3363 34.6692C23.3401 34.6753 23.3435 34.6817 23.3465 34.6882Z" fill="#F72900"/>
<path d="M23.3354 34.6637C23.3362 34.6598 23.3362 34.6558 23.3354 34.6519H23.3435C23.3435 34.6563 23.3435 34.66 23.3435 34.6644C23.3435 34.6644 23.3362 34.6644 23.3354 34.6637Z" fill="#F72900"/>
<path d="M23.3378 34.6663L23.3363 34.6678V34.6663H23.3378Z" fill="#F72900"/>
<path d="M23.3356 34.6707V34.6795V34.686C23.3362 34.68 23.3362 34.6738 23.3356 34.6678C23.3334 34.6692 23.3349 34.6707 23.3356 34.6707Z" fill="#F72900"/>
<path d="M23.3304 34.6555L23.3349 34.6637C23.3354 34.6629 23.3358 34.662 23.3358 34.661C23.3359 34.66 23.3357 34.6591 23.3352 34.6582C23.3347 34.6574 23.334 34.6567 23.3332 34.6562C23.3324 34.6557 23.3314 34.6555 23.3304 34.6555Z" fill="#F72900"/>
<path d="M23.332 34.6519C23.3328 34.6558 23.3328 34.6598 23.332 34.6637L23.3276 34.6556C23.3276 34.6556 23.3276 34.6519 23.3276 34.6512L23.332 34.6519Z" fill="#F72900"/>
<path d="M23.3313 34.6629C23.3313 34.6629 23.3313 34.6629 23.3262 34.6584C23.3262 34.6584 23.3321 34.6622 23.3313 34.6629Z" fill="#F72900"/>
<path d="M23.3291 34.654C23.3295 34.6553 23.3295 34.6566 23.3291 34.6578C23.3296 34.659 23.3296 34.6603 23.3291 34.6615V34.654Z" fill="#F72900"/>
<path d="M23.3304 34.6557C23.3308 34.6545 23.3308 34.6531 23.3304 34.6519C23.3304 34.6519 23.3304 34.6534 23.3304 34.6557Z" fill="#F72900"/>
<path d="M23.3269 34.6462C23.3267 34.6443 23.3267 34.6423 23.3269 34.6404C23.3296 34.6437 23.3319 34.6474 23.3335 34.6514C23.3329 34.6501 23.3319 34.6489 23.3308 34.648C23.3297 34.6471 23.3283 34.6465 23.3269 34.6462Z" fill="#F72900"/>
<path d="M23.3312 34.6861C23.3283 34.6779 23.3266 34.6693 23.3262 34.6605C23.3262 34.6605 23.3262 34.6605 23.3312 34.6649C23.3321 34.672 23.3321 34.6791 23.3312 34.6861Z" fill="#F72900"/>
<path d="M23.3262 34.6605C23.3266 34.6692 23.3283 34.6777 23.3312 34.6858C23.3211 34.7182 23.3226 34.68 23.3262 34.6605Z" fill="#F72900"/>
<path d="M23.3246 34.6466V34.6389C23.3244 34.6409 23.3244 34.643 23.3246 34.645C23.325 34.6465 23.325 34.6481 23.3246 34.6496V34.6466Z" fill="#F72900"/>
<path d="M23.3269 34.6543C23.3265 34.6516 23.3265 34.6488 23.3269 34.6461C23.3269 34.6461 23.3261 34.6521 23.3269 34.6543Z" fill="#F72900"/>
<path d="M23.3377 34.6678L23.3449 34.6735L23.337 34.6663C23.337 34.662 23.337 34.6584 23.337 34.654H23.3427C23.3774 34.6595 23.4106 34.6723 23.44 34.6916C23.4159 34.7619 23.373 34.8242 23.3161 34.8719L23.0999 34.7998C23.0409 34.6977 23.0129 34.5806 23.0192 34.4629C23.0203 34.3811 23.0499 34.3023 23.1028 34.2399C23.1843 34.2698 23.2526 34.3275 23.2959 34.4028C23.3391 34.4782 23.3544 34.5664 23.3391 34.6519H23.3312C23.3296 34.648 23.3274 34.6443 23.3247 34.6411C23.3247 34.6367 23.3247 34.6367 23.3247 34.6411C23.3225 34.6381 23.3195 34.6359 23.3161 34.6346C23.3161 34.6346 23.3211 34.6404 23.3247 34.6468V34.6504H23.3117C23.3057 34.6484 23.2994 34.6472 23.293 34.6468C23.2642 34.6468 23.3254 34.6699 23.3254 34.6634C23.3218 34.6829 23.3204 34.7211 23.3305 34.6887V34.6822V34.6735C23.3333 34.68 23.3367 34.6863 23.3406 34.6923C23.3402 34.6841 23.3392 34.6758 23.3377 34.6678Z" fill="#F72900"/>
<path d="M23.3242 34.639V34.6442C23.3242 34.6376 23.3176 34.6324 23.3154 34.6317C23.3189 34.633 23.322 34.6353 23.3242 34.6383V34.639Z" fill="#F72900"/>
<path d="M23.3116 34.6469H23.3249C23.3245 34.6495 23.3245 34.6522 23.3249 34.6549H23.3212L23.3116 34.6469Z" fill="#F72900"/>
<path d="M23.1006 34.8012L23.3168 34.8734C23.2855 34.9008 23.2496 34.9225 23.2108 34.9376C23.1672 34.8982 23.13 34.8522 23.1006 34.8012Z" fill="#F72900"/>
<path d="M23.3185 34.6521H23.3221C23.3221 34.6587 23.2603 34.6345 23.2894 34.6353C23.2958 34.6356 23.3022 34.6369 23.3083 34.6389L23.3185 34.6521Z" fill="#F72900"/>
<path d="M23.3651 34.3366C23.4103 34.3826 23.4417 34.4404 23.4557 34.5034C23.4698 34.5664 23.4658 34.6321 23.4444 34.693C23.415 34.6738 23.3818 34.661 23.3471 34.6555H23.3414C23.3566 34.57 23.3413 34.4818 23.2981 34.4064C23.2549 34.3311 23.1865 34.2734 23.105 34.2435C23.129 34.2151 23.1574 34.1907 23.1893 34.1714C23.2523 34.2216 23.3111 34.2768 23.3651 34.3366Z" fill="#F72900"/>
<path d="M23.2129 34.9368C23.1512 34.9632 23.0827 34.9686 23.0176 34.9523C22.9526 34.9361 22.8946 34.8989 22.8526 34.8467C22.801 34.7899 22.7421 34.7401 22.6775 34.6988C22.6829 34.6869 22.6875 34.6746 22.6912 34.662C22.8252 34.7101 22.9607 34.7565 23.0976 34.8012C23.1286 34.8523 23.1675 34.8981 23.2129 34.9368Z" fill="#F72900"/>
<path d="M22.6827 34.3914C22.7249 34.3272 22.786 34.2776 22.8575 34.2497C22.9291 34.2218 23.0075 34.2169 23.082 34.2356L23.1036 34.2414C23.0507 34.3037 23.0212 34.3825 23.02 34.4643C23.0138 34.5821 23.0418 34.6991 23.1007 34.8012C22.9638 34.7555 22.8283 34.7091 22.6943 34.662C22.7204 34.573 22.7163 34.4779 22.6827 34.3914Z" fill="#F72900"/>
<path d="M23.1878 34.1714C23.1559 34.1907 23.1274 34.2151 23.1035 34.2436L23.0818 34.2378C23.0074 34.219 22.9289 34.224 22.8574 34.2519C22.7858 34.2798 22.7247 34.3294 22.6826 34.3936C22.6581 34.3284 22.6147 34.272 22.5579 34.2316C22.5012 34.1913 22.4337 34.1688 22.3641 34.1671C22.1212 34.1484 21.8891 34.0585 21.6968 33.9088C21.9484 33.8318 22.2146 33.8155 22.4737 33.8611C22.7329 33.9068 22.9775 34.0131 23.1878 34.1714Z" fill="#EFE137"/>
<path d="M22.6826 34.3915C22.7162 34.4779 22.7203 34.573 22.6941 34.662C22.6675 34.6533 22.6415 34.644 22.6149 34.6339C22.6171 34.585 22.6251 34.5366 22.6387 34.4896C22.6482 34.4548 22.663 34.4217 22.6826 34.3915Z" fill="#F72900"/>
<path d="M22.6943 34.662C22.6906 34.6746 22.686 34.6868 22.6806 34.6988C22.6593 34.6844 22.6371 34.6714 22.6143 34.6598C22.6143 34.6512 22.6143 34.6425 22.6143 34.6338C22.6416 34.6439 22.6676 34.6533 22.6943 34.662Z" fill="#F72900"/>
<path d="M22.6827 34.3914C22.6633 34.421 22.6485 34.4534 22.6388 34.4874C22.6252 34.5344 22.6172 34.5828 22.615 34.6317C22.2417 34.5004 21.8782 34.3626 21.5247 34.2183C21.436 34.1822 21.3488 34.1461 21.2623 34.1094C21.3951 34.0193 21.541 33.9502 21.6947 33.9045C21.887 34.0542 22.1191 34.144 22.362 34.1627C22.4322 34.1642 22.5004 34.1868 22.5576 34.2276C22.6148 34.2684 22.6584 34.3255 22.6827 34.3914Z" fill="#EFE137"/>
<path d="M22.6141 34.6598C22.637 34.6714 22.6591 34.6844 22.6804 34.6988C22.6668 34.731 22.6481 34.7607 22.6249 34.7868C22.617 34.7449 22.6134 34.7024 22.6141 34.6598Z" fill="#F72900"/>
<path d="M22.6142 34.6598C22.6134 34.7024 22.6171 34.7449 22.625 34.7868C22.5922 34.8225 22.5516 34.8501 22.5063 34.8674C22.461 34.8847 22.4123 34.8912 22.3641 34.8863C22.1229 34.8733 21.8867 34.813 21.6687 34.7089C21.6878 34.6949 21.7078 34.6821 21.7285 34.6706C21.8636 34.5951 22.0153 34.5546 22.17 34.5527C22.3246 34.5509 22.4773 34.5877 22.6142 34.6598Z" fill="#EFE137"/>
<path d="M51.323 61.1358C51.0765 61.6307 50.5266 62.0231 50.0878 62.3406C49.1185 63.0418 47.99 63.5223 46.8853 63.9667C42.745 65.6159 38.2777 66.2762 33.8381 65.8951C31.6196 65.7106 29.4308 65.263 27.3178 64.5619C25.372 63.9126 23.4465 63.0094 22.0304 61.4777C22.0171 61.4634 22.0051 61.4479 21.9944 61.4316L22.5709 61.3147L22.4924 60.9259C22.5089 60.9384 22.5244 60.9524 22.5385 60.9677C24.0158 62.565 26.0638 63.4278 28.1047 64.0576C33.8403 65.8095 39.9859 65.6735 45.6386 63.6695C46.5886 63.3378 47.5167 62.9462 48.4173 62.4971C48.854 62.2806 49.2741 62.032 49.6741 61.7533C49.8788 61.6075 50.0738 61.4485 50.2579 61.2772C50.3393 61.2007 50.4207 61.1235 50.4949 61.0413L51.1824 61.1574L51.2963 60.48C51.3555 60.5782 51.389 60.6898 51.3936 60.8045C51.3983 60.9191 51.374 61.033 51.323 61.1358Z" fill="black"/>
<path d="M21.9944 61.4315C21.771 61.1105 22.1926 60.6856 22.4938 60.9265L22.5724 61.3154L21.9944 61.4315Z" fill="black"/>
<path d="M23.1877 34.1714C22.9776 34.0127 22.7331 33.906 22.4739 33.86C22.2148 33.814 21.9485 33.83 21.6967 33.9066C21.4258 33.7111 21.1923 33.4355 20.9689 33.1939C21.235 33.3175 21.5108 33.4377 21.7962 33.5546C22.2896 33.7556 22.8041 33.9449 23.3398 34.1224C23.2863 34.1281 23.2345 34.1448 23.1877 34.1714Z" fill="black"/>
<path d="M22.6142 34.6598C22.4773 34.5877 22.3246 34.5509 22.17 34.5527C22.0153 34.5546 21.8636 34.5952 21.7285 34.6706C21.7078 34.6821 21.6878 34.6949 21.6687 34.7089C21.4436 34.5981 21.235 34.4566 21.049 34.2883L21.0864 34.2522C21.1416 34.2011 21.2003 34.1541 21.2623 34.1115C21.3487 34.1483 21.4359 34.1837 21.5246 34.2205C21.8777 34.3647 22.2411 34.5025 22.6149 34.6338C22.6142 34.6425 22.6142 34.6512 22.6142 34.6598Z" fill="#EFE137"/>
<path d="M20.9942 15.1465C21.2142 15.7553 21.4342 16.364 21.6543 16.9724H20.9596C21.0519 16.5086 21.0805 16.0343 21.0446 15.5627C21.0309 15.4228 21.0136 15.2864 20.9942 15.1465Z" fill="#CE2807"/>
<path d="M20.969 33.1939C21.1917 33.4356 21.4259 33.7111 21.6968 33.9067C21.5431 33.9524 21.3973 34.0215 21.2645 34.1115C21.0173 34.0069 20.778 33.9009 20.5438 33.7912C20.2664 33.4932 19.949 33.2354 19.6005 33.025C19.4502 32.7242 19.2711 32.4386 19.0658 32.1723C19.6755 32.5571 20.3114 32.8985 20.969 33.1939Z" fill="#EFE137"/>
<path d="M21.2623 34.1115C21.2003 34.1541 21.1416 34.2011 21.0865 34.2522L21.049 34.2883C20.9142 34.1707 20.7845 34.0423 20.6584 33.9102L20.5431 33.7912C20.778 33.8994 21.0151 34.0069 21.2623 34.1115Z" fill="#EFE137"/>
<path d="M21.0411 15.5627C21.077 16.0343 21.0484 16.5086 20.9561 16.9724L20.8948 16.9948C20.5922 16.1579 20.2897 15.3215 19.9875 14.4856C19.878 14.1826 20.1771 13.9994 20.4199 14.0592C20.4306 14.138 20.4643 14.2118 20.5167 14.2715C20.5692 14.3312 20.638 14.374 20.7147 14.3947C20.805 14.6453 20.8955 14.8959 20.9863 15.1465C21.0137 15.2864 21.031 15.4228 21.0411 15.5627Z" fill="#CE2807"/>
<path d="M21.6845 16.9782C21.6744 17.0402 21.6629 17.1022 21.6506 17.1643C21.5785 17.543 21.0662 17.4695 20.9559 17.1643L20.8947 16.9947L20.9559 16.9724H21.6506L21.6845 16.9782Z" fill="#F72900"/>
<path d="M21.5253 40.8836C21.47 41.6417 21.1983 42.3679 20.7427 42.9758C20.5986 43.1692 20.2476 43.2471 20.1201 42.9758C20.0659 42.8623 20.0178 42.746 19.976 42.6274L20.1201 42.6115H20.7427C20.64 42.3923 20.57 42.1592 20.5352 41.9196C20.5955 41.7868 20.6464 41.6499 20.6872 41.5098C20.7189 41.4002 20.871 40.5316 20.7593 40.4681C20.9034 40.1593 20.5971 39.8801 20.3492 39.9299C20.392 39.8569 20.4587 39.8011 20.538 39.7719C21.2558 39.4891 21.5664 40.326 21.5253 40.8836Z" fill="#CE2807"/>
<path d="M20.8119 33.0337C20.8637 33.0856 20.9163 33.1405 20.969 33.1975C20.3118 32.9008 19.6763 32.5583 19.0672 32.1723C18.9822 32.1182 18.8986 32.0634 18.8171 32.0078H18.8503C19.6142 32.1182 20.2692 32.4883 20.8119 33.0337Z" fill="#EFE137"/>
<path d="M20.7931 14.3738C20.7506 14.3067 20.7592 14.2966 20.819 14.3428L21.0742 14.2367L21.0273 14.2887C20.9998 14.3216 20.9658 14.3486 20.9275 14.3681C20.8893 14.3876 20.8475 14.3991 20.8046 14.4019C20.801 14.3926 20.7974 14.3832 20.7931 14.3738Z" fill="#CE2807"/>
<path d="M20.3456 39.9263C20.5935 39.8765 20.8998 40.1557 20.7556 40.4645C20.751 40.4623 20.746 40.4612 20.7409 40.4612C20.7358 40.4612 20.7307 40.4623 20.7261 40.4645C20.3816 40.5972 20.1935 40.1846 20.3456 39.9263Z" fill="#F72900"/>
<path d="M20.8191 14.3428C20.7593 14.2966 20.7471 14.3067 20.7932 14.3738C20.7975 14.3832 20.8011 14.3925 20.8047 14.4019C20.776 14.4038 20.747 14.4014 20.719 14.3947C20.7074 14.3608 20.6952 14.3276 20.6829 14.2937C20.6636 14.2356 20.6296 14.1835 20.5843 14.1425C20.539 14.1014 20.4839 14.0727 20.4242 14.0592C20.4183 14.0084 20.4236 13.9568 20.44 13.9083C20.4563 13.8598 20.4831 13.8155 20.5186 13.7786C20.7348 13.5412 21.0634 13.5917 21.2789 13.8053C21.5153 14.039 21.5816 14.4394 21.6479 14.7504C21.8011 15.4839 21.8138 16.2399 21.6854 16.9782L21.6515 16.9724C21.4315 16.3635 21.2114 15.7548 20.9914 15.1464C20.9726 15.0346 20.9503 14.9242 20.9236 14.8139C20.9035 14.7287 20.8818 14.6429 20.8566 14.5592C20.844 14.5054 20.8269 14.4528 20.8054 14.4019C20.8483 14.3991 20.8901 14.3876 20.9284 14.3681C20.9666 14.3486 21.0006 14.3216 21.0281 14.2886L21.075 14.2367L20.8191 14.3428Z" fill="#CE2807"/>
<path d="M20.7556 40.4645C20.871 40.528 20.7189 41.3966 20.6836 41.5062C20.6427 41.6463 20.5919 41.7832 20.5315 41.916C20.4589 41.4242 20.5342 40.9219 20.7477 40.4731L20.7556 40.4645Z" fill="#41454F"/>
<path d="M20.6583 33.9102C20.7844 34.0423 20.9141 34.1707 21.0489 34.2883C20.2562 35.0855 20.7851 36.3927 20.1221 37.2563C19.9716 37.4616 19.7511 37.6046 19.5024 37.6581C19.3756 37.6783 19.2408 37.6891 19.1853 37.5795C19.1298 37.4698 19.199 37.2339 19.2076 37.1206C19.2545 36.5146 19.2343 35.8588 19.3655 35.2658C19.426 34.9953 19.5968 34.7781 19.702 34.5256C19.8015 34.2868 19.8404 34.0271 19.8151 33.7696C19.8032 33.642 19.779 33.5159 19.7431 33.393C19.9996 33.5291 20.2667 33.6618 20.5444 33.7912L20.6583 33.9102Z" fill="#EFE137"/>
<path d="M20.7426 42.6079H20.12C20.2832 42.3931 20.4223 42.1611 20.5351 41.916C20.57 42.1556 20.6399 42.3887 20.7426 42.6079Z" fill="#F72900"/>
<path d="M20.7183 14.3947C20.6417 14.374 20.5728 14.3312 20.5204 14.2715C20.468 14.2118 20.4343 14.138 20.4236 14.0592C20.4832 14.0727 20.5383 14.1014 20.5837 14.1425C20.629 14.1836 20.663 14.2356 20.6823 14.2937C20.6945 14.3276 20.7061 14.3608 20.7183 14.3947Z" fill="#CE2807"/>
<path d="M20.2987 28.4396C20.3096 28.6104 20.3381 28.7797 20.3838 28.9446C20.4081 29.0229 20.4027 29.1074 20.3686 29.182C20.2162 29.2387 20.067 29.3039 19.9219 29.3775C19.8649 29.3622 19.8132 29.3317 19.7722 29.2892C19.7312 29.2468 19.7024 29.194 19.6891 29.1365C19.6529 29.0052 19.6252 28.8717 19.6062 28.7368C19.8293 28.6205 20.0608 28.5212 20.2987 28.4396Z" fill="#EFE137"/>
<path d="M20.7533 40.4695C20.5398 40.9183 20.4645 41.4206 20.5371 41.9124C20.4244 42.1575 20.2852 42.3895 20.1221 42.6043L19.9779 42.6201C19.8354 42.2116 19.7755 41.7787 19.8014 41.3467C19.8274 40.9148 19.9388 40.4923 20.1293 40.1038C20.1482 40.0586 20.1777 40.0187 20.2153 39.9874C20.253 39.9561 20.2976 39.9344 20.3455 39.9241C20.1934 40.1824 20.3815 40.5951 20.726 40.4616C20.7306 40.4594 20.7356 40.4583 20.7407 40.4583C20.7459 40.4583 20.7509 40.4594 20.7555 40.4616L20.7533 40.4695Z" fill="#CE2807"/>
<path d="M20.3685 29.1813C20.3277 29.2601 20.261 29.3225 20.1797 29.3581C20.0984 29.3937 20.0073 29.4003 19.9218 29.3768C20.0669 29.3032 20.2161 29.238 20.3685 29.1813Z" fill="black"/>
<path d="M20.543 33.7912C20.2658 33.6623 19.9987 33.5296 19.7417 33.393C19.7028 33.2669 19.6546 33.1439 19.5975 33.025C19.9467 33.2352 20.265 33.4931 20.543 33.7912Z" fill="black"/>
<path d="M19.0651 32.1723C19.2704 32.4386 19.4495 32.7242 19.5998 33.025C19.3096 32.8583 18.9901 32.7488 18.6587 32.7026L19.0651 32.1723Z" fill="#EFE137"/>
<path d="M19.7417 33.3944C19.3463 33.1852 18.9759 32.9688 18.6305 32.7451L18.6586 32.7018C18.99 32.7481 19.3095 32.8576 19.5997 33.0243C19.6562 33.144 19.7037 33.2677 19.7417 33.3944Z" fill="#EFE137"/>
<path d="M18.6586 32.7025L18.6305 32.7458L18.5657 32.7033C18.5239 32.6456 18.4821 32.59 18.4431 32.5366C18.2414 32.2632 18.5541 31.9905 18.8172 32.0042C18.8986 32.0598 18.9822 32.1146 19.0672 32.1687L18.6586 32.7025Z" fill="#EFE137"/>
<path d="M18.5657 32.7033L18.6305 32.7459C18.9755 32.9681 19.3459 33.1845 19.7417 33.3952C19.7777 33.5181 19.8018 33.6442 19.8138 33.7717C19.8391 34.0293 19.8002 34.289 19.7007 34.5278C19.5954 34.7803 19.4246 34.9975 19.3641 35.268C19.233 35.861 19.2531 36.5168 19.2063 37.1228C19.1976 37.2361 19.1342 37.477 19.184 37.5816C19.2337 37.6863 19.3742 37.6805 19.501 37.6603C19.7498 37.6068 19.9703 37.4638 20.1208 37.2584C20.7838 36.3927 20.2527 35.0876 21.0475 34.2905C21.2336 34.4588 21.4422 34.6003 21.6673 34.7111C21.2464 34.9996 21.2673 35.6208 21.2205 36.0818C21.1189 37.0839 20.6678 38.2908 19.4974 38.3853C19.0449 38.4221 18.539 38.2288 18.4633 37.736C18.4136 37.4135 18.4922 37.0478 18.5167 36.726C18.5402 36.4129 18.5642 36.1003 18.5887 35.7882C18.6096 35.5176 18.6197 35.2334 18.6982 34.9722C18.7768 34.7111 18.9368 34.5177 19.0341 34.2767C19.2553 33.7191 18.8907 33.1513 18.5657 32.7033Z" fill="#EFE137"/>
<path d="M18.523 30.5808C18.5723 30.5796 18.6212 30.5893 18.6662 30.6091C18.7113 30.6289 18.7515 30.6584 18.7839 30.6955C18.7563 30.8606 18.7542 31.029 18.7774 31.1948C18.8264 31.5613 18.3767 31.632 18.1627 31.4112V30.9415C18.1644 30.8464 18.2029 30.7556 18.2701 30.6883C18.3373 30.621 18.428 30.5825 18.523 30.5808Z" fill="#EFE137"/>
<path d="M35.0639 26.1022C36.4829 26.1375 37.8996 26.0149 39.3157 25.9045C41.9381 25.6989 44.6592 25.5142 47.188 26.3951C48.6292 26.8957 49.8032 27.8307 51.0145 28.726C51.6098 29.1654 52.2591 29.5759 52.8024 30.0809C53.0035 30.2677 53.2593 30.5217 53.2802 30.8131C53.2874 30.9192 53.2464 31.2727 53.0842 31.2272C52.6374 31.1024 52.4464 31.7979 52.8925 31.9234C52.999 31.9553 53.1112 31.9636 53.2212 31.9476C53.3312 31.9317 53.4365 31.8919 53.5296 31.8311L53.5346 31.8383C52.744 32.3915 51.9009 32.8653 51.0174 33.253C50.4589 33.2841 49.8983 33.4695 49.3693 33.6794C48.416 34.0722 47.4313 34.3836 46.4255 34.6101C46.4046 34.4081 46.2353 34.2219 45.9845 34.297C45.801 34.3519 45.6327 34.4487 45.4929 34.5798C45.3531 34.7108 45.2456 34.8726 45.1788 35.0523L43.6727 35.0638C43.5956 35.0614 43.52 35.0859 43.459 35.1332C43.398 35.1805 43.3553 35.2475 43.3383 35.3228C43.3383 35.3228 43.3383 35.3228 43.3383 35.3272C43.3261 35.354 43.3178 35.3824 43.3138 35.4116L43.2237 35.4253C43.0673 35.281 42.8065 35.2622 42.6818 35.4974V35.5017C40.4883 35.8057 38.2764 35.9561 36.062 35.9519C33.3492 35.9604 30.6408 35.7313 27.9678 35.2673C27.6745 34.6533 26.9005 34.5617 26.3291 34.8705C26.3149 34.8562 26.2997 34.8429 26.2836 34.8308C25.9119 34.5485 25.4758 34.3633 25.0146 34.2919C24.7968 34.2554 24.5754 34.2455 24.3552 34.2623C24.2479 34.2711 24.1411 34.2853 24.0353 34.3049C24.0129 34.3092 23.9899 34.3121 23.9632 34.315C23.8616 34.284 23.7614 34.2522 23.6613 34.2205C23.62 34.1793 23.5697 34.1485 23.5144 34.1304C23.4591 34.1124 23.4002 34.1076 23.3427 34.1166C22.808 33.9401 22.2935 33.7508 21.7991 33.5488C21.5137 33.4324 21.238 33.3122 20.9718 33.1881C20.9192 33.1311 20.8666 33.0763 20.8147 33.0243C20.2721 32.4825 19.617 32.1124 18.8532 32.0013H18.82C18.7191 31.9328 18.6204 31.8643 18.5245 31.7943C18.6196 31.7926 18.7103 31.7541 18.7775 31.6868C18.8447 31.6195 18.8832 31.5287 18.8849 31.4336V30.9416C18.8834 30.85 18.848 30.7623 18.7854 30.6956C18.8921 30.0859 19.3619 29.6646 19.9233 29.3768C20.0089 29.4003 20.0999 29.3937 20.1812 29.3581C20.2626 29.3225 20.3292 29.2601 20.3701 29.1813C20.6271 29.0863 20.8903 29.0089 21.1578 28.9497C21.8721 28.7898 22.5966 28.6796 23.3262 28.62C23.9747 28.5666 24.6233 28.5926 25.2719 28.5233C25.8448 28.4613 26.3673 28.2939 26.814 27.9195C27.2608 27.545 27.5909 27.0364 28.0391 26.649C28.9146 25.9011 30.0302 25.4943 31.1811 25.5034C31.8376 25.5092 32.4574 25.6938 33.0894 25.8482C33.7366 26.0036 34.3985 26.0887 35.0639 26.1022Z" fill="#CE2807"/>
<path d="M18.5216 31.7972C18.4442 31.7966 18.3691 31.7711 18.3073 31.7244C18.2455 31.6778 18.2004 31.6125 18.1786 31.5382C18.2891 31.6257 18.4034 31.712 18.5216 31.7972Z" fill="black"/>
<path d="M18.1627 31.4148C18.3789 31.6312 18.8264 31.5591 18.7774 31.1984C18.7542 31.0326 18.7563 30.8642 18.7839 30.6991C18.8465 30.7659 18.8819 30.8536 18.8834 30.9451V31.44C18.8817 31.5352 18.8432 31.626 18.776 31.6933C18.7088 31.7605 18.6181 31.7991 18.523 31.8008C18.4049 31.7156 18.2905 31.6293 18.18 31.5418C18.1697 31.5088 18.1644 31.4745 18.1642 31.44L18.1627 31.4148Z" fill="#EFE137"/>
<path d="M18.1628 30.9415V31.4148C18.1047 31.3563 18.0675 31.2802 18.0568 31.1984C17.9033 30.0405 18.6665 29.2296 19.6062 28.7397C19.6252 28.8746 19.6529 29.0081 19.6891 29.1394C19.7025 29.1969 19.7312 29.2497 19.7722 29.2921C19.8132 29.3345 19.8649 29.365 19.9219 29.3804C19.359 29.6689 18.8906 30.0895 18.784 30.6991C18.7516 30.662 18.7114 30.6325 18.6663 30.6127C18.6212 30.5929 18.5723 30.5832 18.5231 30.5844C18.4287 30.5861 18.3385 30.6241 18.2714 30.6906C18.2043 30.7571 18.1654 30.847 18.1628 30.9415Z" fill="#EFE137"/>
<path d="M54.5636 25.0503C55.5227 25.9745 56.0229 26.9419 56.0517 27.9288L56.0221 27.9238L55.865 28.8616C55.7424 28.4716 55.5572 28.1041 55.3166 27.7737C54.511 26.6425 53.2448 25.9268 51.9801 25.4211C51.236 25.1289 50.463 24.9171 49.674 24.7891C49.3036 24.7264 48.9274 24.6679 48.5729 24.5402C48.1787 24.396 47.8659 24.1413 47.5424 23.8852C46.4182 22.9956 45.0728 22.7258 43.6625 22.8081C42.9281 22.8499 42.2111 22.9863 41.4883 23.1125C41.0984 23.1803 40.6999 23.2301 40.3057 23.1724C39.9115 23.1147 39.5418 22.9675 39.1794 22.8189C37.723 22.2194 36.2384 21.85 34.653 21.8926C34.2868 21.9036 33.9214 21.9342 33.5584 21.9842C33.1829 22.0347 32.726 22.2093 32.347 22.1516C32.0227 22.1018 31.808 21.7909 31.5038 21.6761C31.1788 21.5535 30.8365 21.5838 30.5007 21.6365C28.9021 21.8983 27.33 22.3019 25.8029 22.8427C24.2326 23.3874 22.5549 23.997 21.252 25.0597C20.1653 25.9449 19.4058 27.325 19.609 28.7354C18.6721 29.2252 17.9061 30.034 18.0596 31.194C18.0702 31.2759 18.1074 31.3519 18.1655 31.4105V31.4321C18.1658 31.4666 18.1711 31.5009 18.1814 31.5338C17.9546 31.3544 17.7442 31.1714 17.5501 30.9848C16.7776 30.241 16.3027 29.4698 16.1326 28.6805C16.0847 28.4621 16.0605 28.2391 16.0605 28.0154C16.0605 26.9974 16.5614 25.9954 17.5501 25.046C18.5388 24.0966 19.9714 23.2272 21.8019 22.4827C25.6047 20.9331 30.6657 20.0796 36.0612 20.0796C41.4566 20.0796 46.5176 20.9331 50.3204 22.4827C52.1422 23.2316 53.5712 24.0944 54.5636 25.0503Z" fill="#41454F"/>
<path d="M21.8661 61.4583L15.4949 29.7772C15.5346 29.7569 15.5699 29.7289 15.5985 29.6946C15.6271 29.6604 15.6485 29.6208 15.6613 29.578C15.8608 30.0419 16.1258 30.4746 16.4483 30.8629L22.4937 60.9265C22.1925 60.6863 21.7731 61.1112 21.9943 61.4315L21.8661 61.4583Z" fill="black"/>
<path d="M17.5472 30.9892C17.7394 31.1763 17.9498 31.3593 18.1785 31.5382C18.2003 31.6125 18.2455 31.6778 18.3072 31.7245C18.369 31.7711 18.4442 31.7966 18.5215 31.7972C18.6174 31.8693 18.7161 31.9357 18.817 32.0042C18.554 31.9905 18.2405 32.2632 18.443 32.5367C18.4819 32.59 18.5237 32.6456 18.5655 32.7033C17.6849 32.1261 16.975 31.51 16.4483 30.8622L16.0159 28.708L16.1305 28.6849C16.2998 29.4727 16.7747 30.2454 17.5472 30.9892Z" fill="black"/>
<path d="M56.7327 28.0435L56.0517 27.9288C56.0229 26.9419 55.5228 25.9745 54.5636 25.0503C53.5713 24.0944 52.1423 23.2316 50.3119 22.487C46.509 20.9374 41.448 20.0839 36.0526 20.0839C30.6571 20.0839 25.5961 20.9374 21.7933 22.487C19.9657 23.2316 18.5367 24.0944 17.5415 25.0503C16.5463 26.0062 16.0519 26.9982 16.0519 28.0197C16.0519 28.2434 16.0761 28.4664 16.124 28.6849L16.0094 28.708L15.4178 28.8277C15.3298 28.4197 15.3093 28 15.3573 27.5854C15.4033 27.5396 15.4337 27.4804 15.4442 27.4163C15.4546 27.3522 15.4447 27.2864 15.4156 27.2283C15.848 25.1614 17.9782 23.264 21.5194 21.8212C25.4066 20.234 30.5671 19.3647 36.0504 19.3647C41.5337 19.3647 46.6942 20.2369 50.5814 21.8212C54.5715 23.4473 56.7688 25.6491 56.7688 28.0219C56.7689 28.1506 56.7622 28.2792 56.7486 28.4071C56.7169 28.4447 56.683 28.4793 56.6484 28.519L56.7327 28.0435Z" fill="black"/>
<path d="M16.0153 28.7051L16.4477 30.8593C16.1252 30.471 15.8602 30.0383 15.6608 29.5744C15.6846 29.4934 15.682 29.407 15.6534 29.3276C15.6247 29.2482 15.5715 29.18 15.5015 29.1329C15.4705 29.0297 15.4439 28.9266 15.4222 28.8227L16.0139 28.7029L16.0153 28.7051Z" fill="black"/>
<path d="M15.6615 29.5773C15.5997 29.4334 15.5465 29.286 15.5022 29.1358C15.5722 29.1828 15.6254 29.251 15.654 29.3304C15.6827 29.4099 15.6853 29.4963 15.6615 29.5773Z" fill="black"/>
<path d="M15.5021 29.138C15.5464 29.2882 15.5996 29.4356 15.6614 29.5795C15.6485 29.6222 15.6271 29.6619 15.5985 29.6961C15.5699 29.7303 15.5347 29.7584 15.4949 29.7786L15.3573 29.0954C15.4085 29.0964 15.4585 29.1111 15.5021 29.138Z" fill="black"/>
<path d="M15.3572 29.0932L15.3082 28.8486L15.4228 28.8256C15.4444 28.9294 15.4711 29.0326 15.5021 29.1358C15.4584 29.109 15.4084 29.0943 15.3572 29.0932Z" fill="black"/>
<path d="M15.3623 27.5833C15.3757 27.4633 15.3952 27.3441 15.4207 27.2262C15.4497 27.2843 15.4597 27.3501 15.4492 27.4142C15.4387 27.4783 15.4083 27.5375 15.3623 27.5833Z" fill="black"/>
<path d="M15.335 27.1223C15.3699 27.1512 15.399 27.1864 15.4208 27.2261C15.3953 27.3441 15.3759 27.4633 15.3624 27.5833C15.3307 27.6221 15.2915 27.6543 15.2472 27.6779C15.2029 27.7015 15.1544 27.7161 15.1044 27.7207C15.0544 27.7253 15.004 27.72 14.9562 27.7049C14.9083 27.6899 14.8639 27.6654 14.8255 27.633C14.2822 27.1713 13.5479 27.7052 13.71 28.3624C13.7893 28.682 14.0329 29.0305 14.2815 29.2454C14.4371 29.3796 14.5229 29.3248 14.7139 29.2671L15.232 29.1098C15.2721 29.0973 15.314 29.0916 15.3559 29.0932L15.4936 29.7764C15.4706 29.7885 15.4464 29.7981 15.4215 29.8053C15.1073 29.9005 14.752 30.0664 14.4198 30.0693C14.11 30.0693 13.8858 29.8846 13.6869 29.6689C13.2841 29.2361 12.9245 28.6806 12.9591 28.0623C12.9685 27.8565 13.0236 27.6554 13.1205 27.4736C13.1412 27.4933 13.1621 27.5121 13.1832 27.5299C13.532 27.8329 14.0437 27.325 13.6927 27.0198L13.6206 26.9585C13.8886 26.8061 14.1969 26.74 14.5037 26.7693C14.8105 26.7986 15.1008 26.9219 15.335 27.1223Z" fill="black"/>
<path d="M13.6265 26.9585L13.6985 27.0198C14.0495 27.325 13.5378 27.8329 13.189 27.5299C13.1684 27.5121 13.1475 27.4933 13.1263 27.4736C13.2418 27.2586 13.415 27.0802 13.6265 26.9585Z" fill="black"/>
</svg>
